<svg width="229" height="223" viewBox="0 0 229 223" fill="none" xmlns="http://www.w3.org/2000/svg">
<path d="M98.7866 222.232C146.957 222.232 186.006 219.8 186.006 216.799C186.006 213.798 146.957 211.365 98.7866 211.365C50.6165 211.365 11.5669 213.798 11.5669 216.799C11.5669 219.8 50.6165 222.232 98.7866 222.232Z" fill="#6159E4"/>
<path opacity="0.8" d="M98.7866 222.232C146.957 222.232 186.006 219.8 186.006 216.799C186.006 213.798 146.957 211.365 98.7866 211.365C50.6165 211.365 11.5669 213.798 11.5669 216.799C11.5669 219.8 50.6165 222.232 98.7866 222.232Z" fill="white"/>
<path d="M164.328 10.1811H76.6291C70.5744 10.1811 65.666 15.0894 65.666 21.1442V206.293C65.666 212.348 70.5744 217.256 76.6291 217.256H164.328C170.383 217.256 175.292 212.348 175.292 206.293V21.1442C175.292 15.0894 170.383 10.1811 164.328 10.1811Z" fill="#263238"/>
<path d="M170.417 32.9198H70.5356V194.517H170.417V32.9198Z" fill="white" stroke="#263238" stroke-width="1.33739" stroke-miterlimit="10"/>
<path d="M135.787 98.3552C144.242 89.9004 144.242 76.1926 135.787 67.7378C127.333 59.2831 113.625 59.2831 105.17 67.7378C96.7153 76.1926 96.7153 89.9004 105.17 98.3552C113.625 106.81 127.333 106.81 135.787 98.3552Z" fill="#6159E4"/>
<path d="M148.902 184.355H92.0611C91.9332 184.356 91.8064 184.331 91.688 184.283C91.5696 184.234 91.4619 184.163 91.3712 184.073C91.2805 183.983 91.2085 183.875 91.1594 183.757C91.1103 183.639 91.085 183.513 91.085 183.385C91.0842 183.256 91.109 183.129 91.1578 183.01C91.2065 182.891 91.2784 182.784 91.3692 182.693C91.46 182.602 91.5679 182.53 91.6867 182.481C91.8054 182.432 91.9327 182.408 92.0611 182.408H148.902C149.03 182.408 149.157 182.434 149.275 182.483C149.393 182.532 149.5 182.604 149.591 182.695C149.681 182.785 149.752 182.893 149.801 183.011C149.849 183.13 149.874 183.257 149.873 183.385C149.873 183.642 149.771 183.889 149.589 184.071C149.407 184.253 149.16 184.355 148.902 184.355Z" fill="#6159E4"/>
<path d="M150.753 116.867H90.2045C88.9549 116.867 87.9419 117.88 87.9419 119.129V126.267C87.9419 127.517 88.9549 128.529 90.2045 128.529H150.753C152.002 128.529 153.015 127.517 153.015 126.267V119.129C153.015 117.88 152.002 116.867 150.753 116.867Z" fill="#6159E4"/>
<path d="M150.753 138.68H90.2045C88.9549 138.68 87.9419 139.693 87.9419 140.943V148.08C87.9419 149.33 88.9549 150.343 90.2045 150.343H150.753C152.002 150.343 153.015 149.33 153.015 148.08V140.943C153.015 139.693 152.002 138.68 150.753 138.68Z" fill="#6159E4"/>
<path d="M131.258 93.8459L124.888 90.1784V87.1484C125.81 86.0325 126.479 84.729 126.846 83.3286C127.065 83.4064 127.296 83.4465 127.529 83.447C128.319 83.447 128.821 80.9983 128.905 79.2491C129.825 77.3025 128.572 76.1628 128.572 76.1628C128.572 76.1628 129.092 75.6437 129.436 73.5616C129.78 71.4796 128.223 72.3485 127.01 70.4414C125.796 68.5343 124.928 66.4579 120.944 66.4579C119.846 66.4218 118.763 66.7167 117.835 67.3044C116.908 67.8921 116.178 68.7452 115.742 69.753C114.75 69.7566 113.762 69.8721 112.796 70.0972C111.578 70.4414 111.234 74.4305 112.272 75.9935C112.736 76.8476 112.984 77.8028 112.994 78.7752C112.717 78.4366 112.43 78.3463 112.272 79.1137C111.928 80.8459 113.316 83.2721 113.316 83.2721L114.032 83.069C114.393 84.5656 115.09 85.9606 116.069 87.1484V90.1784L109.699 93.8459C108.955 94.2754 108.337 94.8931 107.907 95.6368C107.477 96.3806 107.251 97.2243 107.25 98.0833V100.182C111.039 103.109 115.691 104.697 120.479 104.697C125.266 104.697 129.918 103.109 133.707 100.182V98.0833C133.707 97.2241 133.481 96.3799 133.051 95.6359C132.621 94.892 132.003 94.2746 131.258 93.8459V93.8459Z" fill="#263238"/>
<path d="M96.1854 147.443C96.0394 147.441 95.8998 147.382 95.7961 147.279C95.7406 147.23 95.6963 147.169 95.6661 147.101C95.636 147.032 95.6206 146.959 95.6212 146.884C95.6229 146.782 95.6522 146.683 95.7058 146.597L96.7215 144.972L94.741 145.034C94.6664 145.038 94.5916 145.027 94.5216 145.001C94.4516 144.975 94.3879 144.934 94.3347 144.881C94.2427 144.778 94.1919 144.644 94.1919 144.506C94.1919 144.368 94.2427 144.234 94.3347 144.131C94.3867 144.076 94.4501 144.034 94.5203 144.007C94.5905 143.979 94.6658 143.968 94.741 143.973L96.6932 144.046L95.6889 142.427C95.6343 142.339 95.605 142.237 95.6043 142.133C95.6037 142.059 95.619 141.985 95.6492 141.917C95.6794 141.849 95.7237 141.788 95.7792 141.738C95.8829 141.636 96.0224 141.577 96.1685 141.575C96.2646 141.575 96.3586 141.603 96.4395 141.655C96.5204 141.707 96.5849 141.781 96.6255 141.868L97.5904 143.612L98.5439 141.879C98.5892 141.787 98.6588 141.709 98.7453 141.653C98.8319 141.597 98.932 141.566 99.0348 141.564C99.1061 141.564 99.1766 141.579 99.2417 141.608C99.3068 141.637 99.3651 141.68 99.4129 141.733C99.5164 141.84 99.5732 141.984 99.5708 142.133C99.5706 142.23 99.5453 142.326 99.4975 142.41L98.4762 144.046L100.457 143.973C100.532 143.968 100.607 143.979 100.677 144.007C100.748 144.034 100.811 144.076 100.863 144.131C100.959 144.231 101.012 144.365 101.01 144.503C101.009 144.643 100.957 144.778 100.863 144.881C100.81 144.934 100.746 144.975 100.676 145.001C100.606 145.027 100.531 145.038 100.457 145.034L98.465 144.972L99.458 146.58C99.5137 146.669 99.543 146.773 99.5426 146.879C99.5426 147.028 99.4832 147.172 99.3774 147.278C99.2716 147.383 99.128 147.443 98.9784 147.443C98.8817 147.442 98.7874 147.412 98.7072 147.358C98.627 147.304 98.5644 147.227 98.527 147.138L97.5847 145.445L96.6481 147.138C96.6066 147.227 96.5414 147.302 96.4597 147.356C96.3781 147.409 96.2831 147.44 96.1854 147.443V147.443Z" fill="#263238"/>
<path d="M105.337 147.443C105.191 147.441 105.052 147.382 104.948 147.279C104.892 147.23 104.848 147.169 104.818 147.101C104.788 147.032 104.773 146.959 104.773 146.884C104.775 146.782 104.804 146.683 104.858 146.597L105.873 144.972L103.898 145.034C103.823 145.037 103.748 145.025 103.677 144.999C103.606 144.973 103.542 144.933 103.487 144.881C103.412 144.804 103.362 144.706 103.343 144.6C103.325 144.494 103.339 144.385 103.383 144.287C103.428 144.189 103.501 144.106 103.593 144.05C103.684 143.994 103.791 143.967 103.898 143.973L105.845 144.046L104.841 142.427C104.786 142.339 104.757 142.237 104.756 142.133C104.756 142.059 104.771 141.985 104.801 141.917C104.831 141.849 104.876 141.788 104.931 141.738C105.035 141.636 105.174 141.577 105.32 141.575C105.417 141.575 105.51 141.603 105.591 141.655C105.672 141.707 105.737 141.781 105.777 141.868L106.742 143.612L107.696 141.879C107.741 141.787 107.811 141.709 107.897 141.653C107.984 141.597 108.084 141.566 108.187 141.564C108.258 141.563 108.329 141.578 108.394 141.607C108.459 141.637 108.517 141.679 108.565 141.733C108.617 141.786 108.658 141.848 108.686 141.917C108.715 141.986 108.729 142.059 108.728 142.133C108.726 142.231 108.699 142.326 108.649 142.41L107.628 144.046L109.614 143.984C109.689 143.979 109.763 143.991 109.832 144.018C109.902 144.045 109.964 144.088 110.015 144.142C110.111 144.242 110.164 144.376 110.162 144.514C110.161 144.654 110.109 144.789 110.015 144.893C109.963 144.945 109.9 144.986 109.831 145.012C109.762 145.038 109.688 145.049 109.614 145.045L107.617 144.983L108.61 146.591C108.666 146.681 108.695 146.784 108.694 146.89C108.694 147.04 108.635 147.183 108.529 147.289C108.423 147.395 108.28 147.454 108.13 147.454C108.034 147.453 107.939 147.423 107.859 147.369C107.779 147.315 107.716 147.239 107.679 147.149L106.737 145.457L105.8 147.149C105.757 147.236 105.691 147.309 105.609 147.361C105.528 147.412 105.434 147.441 105.337 147.443V147.443Z" fill="#263238"/>
<path d="M114.495 147.443C114.347 147.442 114.205 147.383 114.1 147.279C114.045 147.23 114 147.169 113.97 147.101C113.94 147.032 113.925 146.959 113.925 146.884C113.927 146.782 113.956 146.683 114.01 146.597L115.025 144.972L113.051 145.034C112.944 145.038 112.839 145.01 112.748 144.955C112.658 144.899 112.586 144.817 112.542 144.72C112.497 144.624 112.483 144.516 112.5 144.411C112.518 144.306 112.566 144.208 112.639 144.131C112.692 144.076 112.756 144.034 112.827 144.007C112.898 143.98 112.975 143.968 113.051 143.973L114.997 144.046L113.993 142.427C113.938 142.339 113.909 142.237 113.908 142.133C113.91 142.059 113.926 141.986 113.956 141.919C113.986 141.851 114.029 141.79 114.083 141.738C114.188 141.634 114.33 141.575 114.478 141.575C114.573 141.576 114.666 141.605 114.746 141.657C114.826 141.709 114.889 141.782 114.929 141.868L115.894 143.612L116.848 141.879C116.893 141.787 116.963 141.709 117.049 141.653C117.136 141.597 117.236 141.566 117.339 141.564C117.41 141.563 117.481 141.578 117.546 141.607C117.611 141.637 117.669 141.679 117.717 141.733C117.769 141.786 117.81 141.848 117.839 141.917C117.867 141.986 117.881 142.059 117.88 142.133C117.878 142.231 117.851 142.326 117.801 142.41L116.78 144.046L118.766 143.973C118.839 143.966 118.913 143.974 118.983 143.998C119.052 144.021 119.116 144.059 119.169 144.11C119.223 144.16 119.265 144.221 119.293 144.289C119.32 144.357 119.333 144.43 119.331 144.503C119.332 144.642 119.281 144.777 119.189 144.881C119.136 144.934 119.073 144.975 119.003 145.001C118.933 145.027 118.858 145.038 118.783 145.034L116.791 144.972L117.779 146.58C117.835 146.669 117.864 146.773 117.864 146.879C117.862 146.953 117.845 147.026 117.815 147.094C117.785 147.161 117.742 147.222 117.689 147.274C117.64 147.326 117.58 147.369 117.514 147.398C117.448 147.427 117.377 147.442 117.305 147.443C117.209 147.441 117.116 147.411 117.036 147.357C116.957 147.303 116.896 147.227 116.859 147.138L115.911 145.445L114.975 147.138C114.932 147.23 114.865 147.307 114.78 147.361C114.695 147.415 114.596 147.443 114.495 147.443V147.443Z" fill="#263238"/>
<path d="M123.647 147.443C123.499 147.442 123.357 147.383 123.252 147.279C123.146 147.175 123.085 147.033 123.083 146.884C123.081 146.783 123.109 146.683 123.162 146.597L124.178 144.972L122.203 145.034C122.127 145.037 122.052 145.025 121.981 144.999C121.911 144.973 121.846 144.933 121.791 144.881C121.699 144.778 121.648 144.644 121.648 144.506C121.648 144.368 121.699 144.234 121.791 144.131C121.845 144.078 121.91 144.037 121.981 144.01C122.051 143.983 122.127 143.97 122.203 143.973L124.155 144.046L123.156 142.427C123.102 142.339 123.072 142.237 123.072 142.133C123.073 142.059 123.09 141.986 123.12 141.919C123.15 141.851 123.193 141.79 123.247 141.738C123.352 141.634 123.493 141.575 123.641 141.575C123.738 141.575 123.832 141.603 123.913 141.655C123.993 141.707 124.058 141.781 124.099 141.868L125.058 143.612L126.011 141.879C126.057 141.787 126.126 141.709 126.213 141.653C126.299 141.597 126.399 141.566 126.502 141.564C126.574 141.563 126.644 141.578 126.709 141.607C126.775 141.637 126.833 141.679 126.88 141.733C126.933 141.786 126.974 141.848 127.002 141.917C127.03 141.986 127.044 142.059 127.044 142.133C127.042 142.231 127.015 142.326 126.965 142.41L125.944 144.046L127.93 143.973C128.003 143.966 128.076 143.974 128.146 143.998C128.215 144.021 128.279 144.059 128.333 144.11C128.386 144.16 128.428 144.221 128.456 144.289C128.484 144.357 128.497 144.43 128.494 144.503C128.495 144.642 128.445 144.777 128.353 144.881C128.3 144.934 128.236 144.975 128.166 145.001C128.096 145.027 128.021 145.038 127.947 145.034L125.955 144.972L126.942 146.58C126.998 146.669 127.027 146.773 127.027 146.879C127.027 146.953 127.012 147.027 126.982 147.095C126.952 147.163 126.907 147.224 126.852 147.274C126.803 147.326 126.744 147.369 126.678 147.398C126.612 147.427 126.54 147.442 126.468 147.443C126.372 147.441 126.279 147.411 126.2 147.357C126.121 147.303 126.059 147.227 126.023 147.138L125.075 145.445L124.138 147.138C124.095 147.231 124.026 147.31 123.938 147.364C123.851 147.418 123.75 147.446 123.647 147.443Z" fill="#263238"/>
<path d="M132.799 147.443C132.651 147.442 132.509 147.383 132.404 147.279C132.317 147.191 132.261 147.076 132.246 146.952C132.23 146.829 132.256 146.704 132.319 146.597L133.329 144.972L131.355 145.034C131.279 145.037 131.204 145.025 131.133 144.999C131.062 144.973 130.998 144.933 130.943 144.881C130.851 144.778 130.8 144.644 130.8 144.506C130.8 144.368 130.851 144.234 130.943 144.131C130.997 144.078 131.062 144.037 131.133 144.01C131.203 143.983 131.279 143.97 131.355 143.973L133.307 144.046L132.302 142.427C132.248 142.339 132.219 142.237 132.218 142.133C132.22 141.985 132.281 141.843 132.387 141.738C132.492 141.634 132.634 141.575 132.782 141.575C132.878 141.575 132.972 141.603 133.053 141.655C133.134 141.707 133.198 141.781 133.239 141.868L134.198 143.612L135.152 141.879C135.197 141.787 135.267 141.709 135.353 141.653C135.44 141.597 135.54 141.566 135.643 141.564C135.715 141.563 135.787 141.578 135.853 141.607C135.919 141.636 135.978 141.679 136.026 141.733C136.13 141.84 136.187 141.984 136.184 142.133C136.182 142.231 136.155 142.326 136.105 142.41L135.084 144.046L137.07 143.973C137.143 143.966 137.217 143.974 137.286 143.998C137.356 144.021 137.42 144.059 137.473 144.11C137.527 144.16 137.569 144.221 137.596 144.289C137.624 144.357 137.637 144.43 137.634 144.503C137.636 144.642 137.585 144.777 137.493 144.881C137.44 144.934 137.377 144.975 137.307 145.001C137.237 145.027 137.162 145.038 137.087 145.034L135.095 144.972L136.083 146.58C136.138 146.669 136.168 146.773 136.167 146.879C136.168 146.953 136.153 147.027 136.123 147.095C136.092 147.163 136.048 147.224 135.993 147.274C135.943 147.326 135.884 147.369 135.818 147.398C135.752 147.427 135.681 147.442 135.609 147.443C135.513 147.441 135.42 147.411 135.34 147.357C135.261 147.303 135.2 147.227 135.163 147.138L134.215 145.445L133.279 147.138C133.236 147.23 133.169 147.307 133.084 147.361C132.999 147.415 132.9 147.443 132.799 147.443Z" fill="#263238"/>
<path d="M141.951 147.443C141.805 147.441 141.665 147.382 141.561 147.279C141.506 147.23 141.461 147.169 141.431 147.101C141.401 147.032 141.386 146.959 141.386 146.884C141.388 146.782 141.417 146.683 141.471 146.597L142.481 144.972L140.506 145.034C140.434 145.039 140.361 145.029 140.292 145.005C140.223 144.981 140.16 144.943 140.107 144.893C140.054 144.843 140.012 144.782 139.984 144.715C139.955 144.648 139.941 144.576 139.942 144.503C139.942 144.434 139.955 144.366 139.981 144.302C140.007 144.238 140.046 144.18 140.094 144.131C140.146 144.076 140.21 144.034 140.28 144.007C140.35 143.979 140.425 143.968 140.501 143.973L142.453 144.046L141.448 142.427C141.394 142.339 141.365 142.237 141.364 142.133C141.366 141.985 141.427 141.843 141.533 141.738C141.638 141.634 141.78 141.575 141.928 141.575C142.024 141.575 142.118 141.603 142.199 141.655C142.28 141.707 142.344 141.781 142.385 141.868L143.344 143.612L144.303 141.879C144.348 141.788 144.417 141.71 144.502 141.655C144.588 141.599 144.687 141.567 144.789 141.564C144.861 141.563 144.933 141.578 144.999 141.607C145.065 141.636 145.124 141.679 145.172 141.733C145.276 141.84 145.333 141.984 145.33 142.133C145.33 142.23 145.305 142.326 145.257 142.41L144.236 144.046L146.216 143.973C146.291 143.968 146.367 143.979 146.437 144.007C146.507 144.034 146.571 144.076 146.622 144.131C146.719 144.231 146.771 144.365 146.769 144.503C146.769 144.643 146.717 144.778 146.622 144.881C146.569 144.934 146.506 144.975 146.436 145.001C146.366 145.027 146.291 145.038 146.216 145.034L144.224 144.972L145.212 146.58C145.268 146.669 145.297 146.773 145.297 146.879C145.294 147.027 145.234 147.169 145.127 147.274C145.024 147.379 144.885 147.439 144.738 147.443C144.642 147.441 144.549 147.411 144.469 147.357C144.39 147.303 144.329 147.227 144.292 147.138L143.344 145.445L142.408 147.138C142.367 147.226 142.303 147.301 142.222 147.355C142.142 147.409 142.048 147.439 141.951 147.443Z" fill="#263238"/>
<g style="mix-blend-mode:multiply">
<path d="M170.417 33.1341H70.5356V39.3915H170.417V33.1341Z" fill="#6159E4"/>
</g>
<path d="M131.338 21.6068H109.615C109.222 21.6068 108.846 21.451 108.569 21.1738C108.292 20.8966 108.136 20.5205 108.136 20.1285V20.1285C108.136 19.7364 108.292 19.3604 108.569 19.0832C108.846 18.8059 109.222 18.6502 109.615 18.6502H131.338C131.73 18.6502 132.106 18.8059 132.383 19.0832C132.66 19.3604 132.816 19.7364 132.816 20.1285V20.1285C132.816 20.5205 132.66 20.8966 132.383 21.1738C132.106 21.451 131.73 21.6068 131.338 21.6068V21.6068Z" fill="#6159E4" stroke="#263238" stroke-width="1.33739" stroke-linecap="round" stroke-linejoin="round"/>
<path d="M126.4 203.646C126.401 202.474 126.055 201.328 125.404 200.353C124.754 199.378 123.828 198.617 122.746 198.168C121.663 197.719 120.471 197.601 119.321 197.83C118.172 198.058 117.115 198.623 116.287 199.452C115.458 200.28 114.893 201.337 114.665 202.486C114.436 203.636 114.554 204.828 115.003 205.911C115.452 206.993 116.213 207.919 117.188 208.569C118.163 209.22 119.309 209.566 120.481 209.565C122.051 209.564 123.555 208.94 124.665 207.83C125.775 206.72 126.399 205.216 126.4 203.646Z" fill="#6159E4"/>
<path d="M123.483 200.645H117.48V206.648H123.483V200.645Z" fill="#6159E4" stroke="#263238" stroke-width="1.33739" stroke-linecap="round" stroke-linejoin="round"/>
<path d="M191.993 135.521C191.993 135.521 184.127 115.535 191.129 113.16C198.419 110.683 198.098 123.88 197.816 130.313C197.223 144.057 195.705 146.613 194.571 143.256L191.993 135.521ZM189.629 151.11C191.79 153.932 192.399 151.009 188.5 137.811C186.672 131.605 182.7 119.05 176.606 123.762C170.755 128.276 184.68 144.639 184.68 144.639L189.629 151.11ZM185.453 162.564C187.513 164.392 187.552 162.085 182.66 152.555C180.364 148.092 175.506 139.058 171.528 143.527C167.708 147.838 180.725 158.316 180.725 158.316L185.453 162.564ZM180.939 176.185C182.999 178.019 183.038 175.705 178.146 166.181C175.85 161.718 170.992 152.679 167.014 157.153C163.217 161.475 176.194 171.953 176.194 171.953L180.939 176.185ZM193.973 148.458C190.678 149.745 193.296 151.144 207.058 151.105C213.513 151.105 226.693 150.811 223.883 143.64C221.192 136.751 201.59 145.524 201.59 145.524L193.973 148.458ZM190.221 157.622C186.734 158.225 189.025 160.121 202.521 162.818C208.846 164.088 221.818 166.429 220.492 158.869C219.223 151.579 198.267 156.284 198.267 156.284L190.221 157.622ZM186.023 168.81C183.055 169.239 184.951 170.893 196.298 173.488C201.619 174.707 212.537 176.992 211.589 170.543C210.686 164.336 192.856 167.846 192.856 167.846L186.023 168.81ZM182.835 179.175C179.929 179.915 181.989 181.359 193.556 182.736C198.972 183.379 210.071 184.496 208.451 178.182C206.889 172.123 189.533 177.488 189.533 177.488L182.835 179.175ZM199.841 137.213C198.148 141.005 201.664 140.429 213.614 130.002C219.211 125.11 230.44 114.875 221.547 109.78C213.01 104.882 203.83 128.513 203.83 128.513L199.841 137.213ZM183.275 192.678C181.487 193.722 183.241 194.128 191.445 192.491C195.293 191.73 203.119 190.037 200.473 186.697C197.912 183.481 187.417 190.251 187.417 190.251L183.275 192.678Z" fill="#6159E4"/>
<path opacity="0.3" d="M191.993 135.521C191.993 135.521 184.127 115.535 191.129 113.16C198.419 110.683 198.098 123.88 197.816 130.313C197.223 144.057 195.705 146.613 194.571 143.256L191.993 135.521ZM189.629 151.11C191.79 153.932 192.399 151.009 188.5 137.811C186.672 131.605 182.7 119.05 176.606 123.762C170.755 128.276 184.68 144.639 184.68 144.639L189.629 151.11ZM185.453 162.564C187.513 164.392 187.552 162.085 182.66 152.555C180.364 148.092 175.506 139.058 171.528 143.527C167.708 147.838 180.725 158.316 180.725 158.316L185.453 162.564ZM180.939 176.185C182.999 178.019 183.038 175.705 178.146 166.181C175.85 161.718 170.992 152.679 167.014 157.153C163.217 161.475 176.194 171.953 176.194 171.953L180.939 176.185ZM193.973 148.458C190.678 149.745 193.296 151.144 207.058 151.105C213.513 151.105 226.693 150.811 223.883 143.64C221.192 136.751 201.59 145.524 201.59 145.524L193.973 148.458ZM190.221 157.622C186.734 158.225 189.025 160.121 202.521 162.818C208.846 164.088 221.818 166.429 220.492 158.869C219.223 151.579 198.267 156.284 198.267 156.284L190.221 157.622ZM186.023 168.81C183.055 169.239 184.951 170.893 196.298 173.488C201.619 174.707 212.537 176.992 211.589 170.543C210.686 164.336 192.856 167.846 192.856 167.846L186.023 168.81ZM182.835 179.175C179.929 179.915 181.989 181.359 193.556 182.736C198.972 183.379 210.071 184.496 208.451 178.182C206.889 172.123 189.533 177.488 189.533 177.488L182.835 179.175ZM199.841 137.213C198.148 141.005 201.664 140.429 213.614 130.002C219.211 125.11 230.44 114.875 221.547 109.78C213.01 104.882 203.83 128.513 203.83 128.513L199.841 137.213ZM183.275 192.678C181.487 193.722 183.241 194.128 191.445 192.491C195.293 191.73 203.119 190.037 200.473 186.697C197.912 183.481 187.417 190.251 187.417 190.251L183.275 192.678Z" fill="white"/>
<path d="M195.463 144.825L194.092 122.013ZM191.124 152.352L182.457 132.733ZM213.49 146.647L192.721 149.626ZM186.632 162.926L175.387 148.498ZM188.607 158.502L204.101 159.281ZM184.94 169.567L196.789 170.74ZM182.079 176.597L176.194 167.744ZM181.402 179.723L195.333 179.853ZM178.581 205.858C178.674 205.851 178.761 205.807 178.822 205.737C178.883 205.666 178.914 205.574 178.908 205.48C178.022 192.176 183.168 170.385 191.423 152.498C196.698 141.067 217.378 118.599 217.598 118.373C217.664 118.307 217.702 118.216 217.702 118.122C217.702 118.028 217.664 117.938 217.598 117.871C217.565 117.838 217.527 117.812 217.484 117.795C217.441 117.777 217.396 117.768 217.349 117.768C217.303 117.768 217.258 117.777 217.215 117.795C217.172 117.812 217.134 117.838 217.101 117.871C216.892 118.097 196.129 140.649 190.808 152.182C182.401 170.503 177.323 191.899 178.225 205.525C178.232 205.615 178.273 205.699 178.338 205.761C178.404 205.822 178.491 205.857 178.581 205.858V205.858ZM195.457 145.175C195.55 145.169 195.638 145.126 195.7 145.057C195.762 144.987 195.795 144.896 195.79 144.802L194.441 121.979C194.439 121.932 194.428 121.887 194.408 121.845C194.388 121.803 194.36 121.765 194.325 121.734C194.291 121.703 194.25 121.679 194.206 121.664C194.162 121.649 194.115 121.643 194.069 121.646C193.976 121.652 193.889 121.694 193.826 121.764C193.764 121.834 193.732 121.925 193.736 122.018L195.107 144.83C195.112 144.92 195.15 145.005 195.216 145.067C195.281 145.129 195.367 145.163 195.457 145.163V145.175ZM191.248 152.673C191.332 152.635 191.399 152.565 191.432 152.479C191.466 152.392 191.465 152.296 191.428 152.211L182.756 132.592C182.719 132.507 182.649 132.44 182.562 132.406C182.475 132.372 182.379 132.374 182.293 132.412C182.208 132.449 182.141 132.519 182.107 132.606C182.074 132.692 182.075 132.789 182.113 132.874L190.78 152.493C190.807 152.556 190.852 152.609 190.909 152.648C190.966 152.686 191.033 152.706 191.101 152.707C191.16 152.71 191.218 152.699 191.27 152.673H191.248ZM192.749 149.965L213.507 146.997C213.557 146.996 213.606 146.984 213.652 146.963C213.697 146.942 213.737 146.911 213.77 146.873C213.803 146.834 213.827 146.79 213.841 146.742C213.855 146.694 213.859 146.643 213.852 146.593C213.845 146.544 213.828 146.496 213.801 146.454C213.775 146.411 213.739 146.375 213.698 146.347C213.656 146.319 213.609 146.3 213.56 146.291C213.51 146.283 213.46 146.285 213.411 146.297L192.653 149.265C192.56 149.271 192.473 149.314 192.412 149.384C192.351 149.454 192.32 149.545 192.326 149.638C192.332 149.731 192.374 149.817 192.444 149.878C192.514 149.94 192.605 149.971 192.698 149.965H192.749ZM186.83 163.208C186.904 163.15 186.951 163.065 186.963 162.972C186.975 162.879 186.949 162.785 186.892 162.711L175.641 148.255C175.583 148.181 175.499 148.132 175.405 148.12C175.311 148.107 175.217 148.133 175.142 148.19C175.067 148.248 175.018 148.333 175.006 148.427C174.994 148.52 175.019 148.615 175.077 148.69L186.35 163.168C186.383 163.21 186.425 163.244 186.473 163.268C186.521 163.291 186.573 163.304 186.627 163.304C186.711 163.299 186.791 163.265 186.853 163.208H186.83ZM204.412 159.297C204.415 159.204 204.381 159.113 204.317 159.045C204.254 158.976 204.166 158.935 204.073 158.931L188.607 158.146C188.52 158.152 188.439 158.19 188.378 158.252C188.317 158.315 188.281 158.397 188.277 158.484C188.272 158.571 188.3 158.657 188.355 158.724C188.41 158.792 188.487 158.837 188.573 158.852L204.067 159.636C204.161 159.639 204.252 159.605 204.32 159.542C204.389 159.479 204.43 159.391 204.434 159.297H204.412ZM197.116 170.774C197.121 170.728 197.118 170.681 197.105 170.636C197.091 170.591 197.07 170.549 197.04 170.513C197.011 170.476 196.974 170.446 196.933 170.424C196.892 170.402 196.847 170.389 196.8 170.385L184.951 169.217C184.905 169.212 184.859 169.217 184.814 169.23C184.77 169.243 184.729 169.265 184.693 169.295C184.658 169.324 184.628 169.36 184.607 169.401C184.585 169.442 184.572 169.487 184.567 169.533C184.559 169.625 184.588 169.717 184.647 169.789C184.706 169.861 184.791 169.906 184.883 169.916L196.732 171.09H196.766C196.857 171.096 196.947 171.067 197.017 171.008C197.086 170.949 197.13 170.865 197.139 170.774H197.116ZM182.248 176.89C182.327 176.839 182.381 176.758 182.4 176.666C182.419 176.574 182.401 176.478 182.35 176.399L176.493 167.547C176.439 167.47 176.358 167.418 176.267 167.4C176.175 167.382 176.081 167.4 176.002 167.451C175.924 167.502 175.869 167.583 175.85 167.675C175.831 167.767 175.849 167.863 175.901 167.942L181.757 176.794C181.791 176.843 181.836 176.882 181.888 176.91C181.94 176.937 181.998 176.952 182.056 176.952C182.133 176.957 182.208 176.935 182.271 176.89H182.248ZM195.688 179.853C195.687 179.76 195.65 179.671 195.585 179.605C195.52 179.539 195.431 179.5 195.339 179.497L181.408 179.367C181.315 179.367 181.226 179.404 181.16 179.47C181.095 179.535 181.058 179.624 181.058 179.717C181.056 179.764 181.064 179.81 181.081 179.854C181.098 179.897 181.124 179.937 181.156 179.97C181.189 180.003 181.228 180.029 181.271 180.047C181.315 180.065 181.361 180.073 181.408 180.073L195.339 180.202C195.386 180.205 195.434 180.197 195.479 180.181C195.523 180.164 195.564 180.139 195.599 180.106C195.634 180.074 195.662 180.035 195.681 179.991C195.7 179.947 195.71 179.9 195.711 179.853H195.688ZM176.995 200.684C177.024 200.622 179.399 194.077 186.542 192.514C186.634 192.494 186.714 192.438 186.765 192.359C186.816 192.279 186.833 192.183 186.813 192.091C186.79 192.001 186.733 191.923 186.655 191.873C186.576 191.824 186.481 191.807 186.39 191.826C178.857 193.473 176.358 200.385 176.329 200.453C176.3 200.542 176.307 200.639 176.348 200.723C176.389 200.807 176.461 200.872 176.55 200.904H176.662C176.737 200.911 176.813 200.893 176.877 200.853C176.941 200.814 176.99 200.754 177.018 200.684H176.995ZM178.581 205.858C178.674 205.851 178.761 205.807 178.822 205.737C178.883 205.666 178.914 205.574 178.908 205.48C178.022 192.176 183.168 170.385 191.423 152.498C196.698 141.067 217.378 118.599 217.598 118.373C217.664 118.307 217.702 118.216 217.702 118.122C217.702 118.028 217.664 117.938 217.598 117.871C217.565 117.838 217.527 117.812 217.484 117.795C217.441 117.777 217.396 117.768 217.349 117.768C217.303 117.768 217.258 117.777 217.215 117.795C217.172 117.812 217.134 117.838 217.101 117.871C216.892 118.097 196.129 140.649 190.808 152.182C182.401 170.503 177.323 191.899 178.225 205.525C178.232 205.615 178.273 205.699 178.338 205.761C178.404 205.822 178.491 205.857 178.581 205.858V205.858ZM195.457 145.175C195.55 145.169 195.638 145.126 195.7 145.057C195.762 144.987 195.795 144.896 195.79 144.802L194.441 121.979C194.439 121.932 194.428 121.887 194.408 121.845C194.388 121.803 194.36 121.765 194.325 121.734C194.291 121.703 194.25 121.679 194.206 121.664C194.162 121.649 194.115 121.643 194.069 121.646C193.976 121.652 193.889 121.694 193.826 121.764C193.764 121.834 193.732 121.925 193.736 122.018L195.107 144.83C195.112 144.92 195.15 145.005 195.216 145.067C195.281 145.129 195.367 145.163 195.457 145.163V145.175ZM191.248 152.673C191.332 152.635 191.399 152.565 191.432 152.479C191.466 152.392 191.465 152.296 191.428 152.211L182.756 132.592C182.719 132.507 182.649 132.44 182.562 132.406C182.475 132.372 182.379 132.374 182.293 132.412C182.208 132.449 182.141 132.519 182.107 132.606C182.074 132.692 182.075 132.789 182.113 132.874L190.78 152.493C190.807 152.556 190.852 152.609 190.909 152.648C190.966 152.686 191.033 152.706 191.101 152.707C191.16 152.71 191.218 152.699 191.27 152.673H191.248ZM192.749 149.965L213.507 146.997C213.557 146.996 213.606 146.984 213.652 146.963C213.697 146.942 213.737 146.911 213.77 146.873C213.803 146.834 213.827 146.79 213.841 146.742C213.855 146.694 213.859 146.643 213.852 146.593C213.845 146.544 213.828 146.496 213.801 146.454C213.775 146.411 213.739 146.375 213.698 146.347C213.656 146.319 213.609 146.3 213.56 146.291C213.51 146.283 213.46 146.285 213.411 146.297L192.653 149.265C192.56 149.271 192.473 149.314 192.412 149.384C192.351 149.454 192.32 149.545 192.326 149.638C192.332 149.731 192.374 149.817 192.444 149.878C192.514 149.94 192.605 149.971 192.698 149.965H192.749ZM186.83 163.208C186.904 163.15 186.951 163.065 186.963 162.972C186.975 162.879 186.949 162.785 186.892 162.711L175.641 148.255C175.613 148.218 175.577 148.187 175.537 148.164C175.496 148.141 175.451 148.126 175.405 148.12C175.359 148.113 175.311 148.117 175.266 148.129C175.221 148.141 175.179 148.162 175.142 148.19C175.105 148.219 175.074 148.255 175.05 148.295C175.027 148.336 175.012 148.38 175.006 148.427C175 148.473 175.003 148.52 175.015 148.565C175.027 148.61 175.048 148.653 175.077 148.69L186.35 163.168C186.383 163.21 186.425 163.244 186.473 163.268C186.521 163.291 186.573 163.304 186.627 163.304C186.711 163.299 186.791 163.265 186.853 163.208H186.83ZM204.412 159.297C204.415 159.204 204.381 159.113 204.317 159.045C204.254 158.976 204.166 158.935 204.073 158.931L188.607 158.146C188.52 158.152 188.439 158.19 188.378 158.252C188.317 158.315 188.281 158.397 188.277 158.484C188.272 158.571 188.3 158.657 188.355 158.724C188.41 158.792 188.487 158.837 188.573 158.852L204.067 159.636C204.161 159.639 204.252 159.605 204.32 159.542C204.389 159.479 204.43 159.391 204.434 159.297H204.412ZM197.116 170.774C197.121 170.728 197.118 170.681 197.105 170.636C197.091 170.591 197.07 170.549 197.04 170.513C197.011 170.476 196.974 170.446 196.933 170.424C196.892 170.402 196.847 170.389 196.8 170.385L184.951 169.217C184.905 169.212 184.859 169.217 184.814 169.23C184.77 169.243 184.729 169.265 184.693 169.295C184.658 169.324 184.628 169.36 184.607 169.401C184.585 169.442 184.572 169.487 184.567 169.533C184.559 169.625 184.588 169.717 184.647 169.789C184.706 169.861 184.791 169.906 184.883 169.916L196.732 171.09H196.766C196.857 171.096 196.947 171.067 197.017 171.008C197.086 170.949 197.13 170.865 197.139 170.774H197.116ZM182.248 176.89C182.327 176.839 182.381 176.758 182.4 176.666C182.419 176.574 182.401 176.478 182.35 176.399L176.493 167.547C176.439 167.47 176.358 167.418 176.267 167.4C176.175 167.382 176.081 167.4 176.002 167.451C175.924 167.502 175.869 167.583 175.85 167.675C175.831 167.767 175.849 167.863 175.901 167.942L181.757 176.794C181.791 176.843 181.836 176.882 181.888 176.91C181.94 176.937 181.998 176.952 182.056 176.952C182.133 176.957 182.208 176.935 182.271 176.89H182.248ZM195.688 179.853C195.687 179.76 195.65 179.671 195.585 179.605C195.52 179.539 195.431 179.5 195.339 179.497L181.408 179.367C181.315 179.367 181.226 179.404 181.16 179.47C181.095 179.535 181.058 179.624 181.058 179.717C181.056 179.764 181.064 179.81 181.081 179.854C181.098 179.897 181.124 179.937 181.156 179.97C181.189 180.003 181.228 180.029 181.271 180.047C181.315 180.065 181.361 180.073 181.408 180.073L195.339 180.202C195.386 180.205 195.434 180.197 195.479 180.181C195.523 180.164 195.564 180.139 195.599 180.106C195.634 180.074 195.662 180.035 195.681 179.991C195.7 179.947 195.71 179.9 195.711 179.853H195.688ZM176.995 200.684C177.024 200.622 179.399 194.077 186.542 192.514C186.634 192.494 186.714 192.438 186.765 192.359C186.816 192.279 186.833 192.183 186.813 192.091C186.79 192.001 186.733 191.923 186.655 191.873C186.576 191.824 186.481 191.807 186.39 191.826C178.857 193.473 176.358 200.385 176.329 200.453C176.3 200.542 176.307 200.639 176.348 200.723C176.389 200.807 176.461 200.872 176.55 200.904H176.662C176.737 200.911 176.813 200.893 176.877 200.853C176.941 200.814 176.99 200.754 177.018 200.684H176.995Z" fill="#6159E4"/>
<path opacity="0.2" d="M195.463 144.825L194.092 122.013ZM191.124 152.352L182.457 132.733ZM213.49 146.647L192.721 149.626ZM186.632 162.926L175.387 148.498ZM188.607 158.502L204.101 159.281ZM184.94 169.567L196.789 170.74ZM182.079 176.597L176.194 167.744ZM181.402 179.723L195.333 179.853ZM178.581 205.858C178.674 205.851 178.761 205.807 178.822 205.737C178.883 205.666 178.914 205.574 178.908 205.48C178.022 192.176 183.168 170.385 191.423 152.498C196.698 141.067 217.378 118.599 217.598 118.373C217.664 118.307 217.702 118.216 217.702 118.122C217.702 118.028 217.664 117.938 217.598 117.871C217.565 117.838 217.527 117.812 217.484 117.795C217.441 117.777 217.396 117.768 217.349 117.768C217.303 117.768 217.258 117.777 217.215 117.795C217.172 117.812 217.134 117.838 217.101 117.871C216.892 118.097 196.129 140.649 190.808 152.182C182.401 170.503 177.323 191.899 178.225 205.525C178.232 205.615 178.273 205.699 178.338 205.761C178.404 205.822 178.491 205.857 178.581 205.858V205.858ZM195.457 145.175C195.55 145.169 195.638 145.126 195.7 145.057C195.762 144.987 195.795 144.896 195.79 144.802L194.441 121.979C194.439 121.932 194.428 121.887 194.408 121.845C194.388 121.803 194.36 121.765 194.325 121.734C194.291 121.703 194.25 121.679 194.206 121.664C194.162 121.649 194.115 121.643 194.069 121.646C193.976 121.652 193.889 121.694 193.826 121.764C193.764 121.834 193.732 121.925 193.736 122.018L195.107 144.83C195.112 144.92 195.15 145.005 195.216 145.067C195.281 145.129 195.367 145.163 195.457 145.163V145.175ZM191.248 152.673C191.332 152.635 191.399 152.565 191.432 152.479C191.466 152.392 191.465 152.296 191.428 152.211L182.756 132.592C182.719 132.507 182.649 132.44 182.562 132.406C182.475 132.372 182.379 132.374 182.293 132.412C182.208 132.449 182.141 132.519 182.107 132.606C182.074 132.692 182.075 132.789 182.113 132.874L190.78 152.493C190.807 152.556 190.852 152.609 190.909 152.648C190.966 152.686 191.033 152.706 191.101 152.707C191.16 152.71 191.218 152.699 191.27 152.673H191.248ZM192.749 149.965L213.507 146.997C213.557 146.996 213.606 146.984 213.652 146.963C213.697 146.942 213.737 146.911 213.77 146.873C213.803 146.834 213.827 146.79 213.841 146.742C213.855 146.694 213.859 146.643 213.852 146.593C213.845 146.544 213.828 146.496 213.801 146.454C213.775 146.411 213.739 146.375 213.698 146.347C213.656 146.319 213.609 146.3 213.56 146.291C213.51 146.283 213.46 146.285 213.411 146.297L192.653 149.265C192.56 149.271 192.473 149.314 192.412 149.384C192.351 149.454 192.32 149.545 192.326 149.638C192.332 149.731 192.374 149.817 192.444 149.878C192.514 149.94 192.605 149.971 192.698 149.965H192.749ZM186.83 163.208C186.904 163.15 186.951 163.065 186.963 162.972C186.975 162.879 186.949 162.785 186.892 162.711L175.641 148.255C175.583 148.181 175.499 148.132 175.405 148.12C175.311 148.107 175.217 148.133 175.142 148.19C175.067 148.248 175.018 148.333 175.006 148.427C174.994 148.52 175.019 148.615 175.077 148.69L186.35 163.168C186.383 163.21 186.425 163.244 186.473 163.268C186.521 163.291 186.573 163.304 186.627 163.304C186.711 163.299 186.791 163.265 186.853 163.208H186.83ZM204.412 159.297C204.415 159.204 204.381 159.113 204.317 159.045C204.254 158.976 204.166 158.935 204.073 158.931L188.607 158.146C188.52 158.152 188.439 158.19 188.378 158.252C188.317 158.315 188.281 158.397 188.277 158.484C188.272 158.571 188.3 158.657 188.355 158.724C188.41 158.792 188.487 158.837 188.573 158.852L204.067 159.636C204.161 159.639 204.252 159.605 204.32 159.542C204.389 159.479 204.43 159.391 204.434 159.297H204.412ZM197.116 170.774C197.121 170.728 197.118 170.681 197.105 170.636C197.091 170.591 197.07 170.549 197.04 170.513C197.011 170.476 196.974 170.446 196.933 170.424C196.892 170.402 196.847 170.389 196.8 170.385L184.951 169.217C184.905 169.212 184.859 169.217 184.814 169.23C184.77 169.243 184.729 169.265 184.693 169.295C184.658 169.324 184.628 169.36 184.607 169.401C184.585 169.442 184.572 169.487 184.567 169.533C184.559 169.625 184.588 169.717 184.647 169.789C184.706 169.861 184.791 169.906 184.883 169.916L196.732 171.09H196.766C196.857 171.096 196.947 171.067 197.017 171.008C197.086 170.949 197.13 170.865 197.139 170.774H197.116ZM182.248 176.89C182.327 176.839 182.381 176.758 182.4 176.666C182.419 176.574 182.401 176.478 182.35 176.399L176.493 167.547C176.439 167.47 176.358 167.418 176.267 167.4C176.175 167.382 176.081 167.4 176.002 167.451C175.924 167.502 175.869 167.583 175.85 167.675C175.831 167.767 175.849 167.863 175.901 167.942L181.757 176.794C181.791 176.843 181.836 176.882 181.888 176.91C181.94 176.937 181.998 176.952 182.056 176.952C182.133 176.957 182.208 176.935 182.271 176.89H182.248ZM195.688 179.853C195.687 179.76 195.65 179.671 195.585 179.605C195.52 179.539 195.431 179.5 195.339 179.497L181.408 179.367C181.315 179.367 181.226 179.404 181.16 179.47C181.095 179.535 181.058 179.624 181.058 179.717C181.056 179.764 181.064 179.81 181.081 179.854C181.098 179.897 181.124 179.937 181.156 179.97C181.189 180.003 181.228 180.029 181.271 180.047C181.315 180.065 181.361 180.073 181.408 180.073L195.339 180.202C195.386 180.205 195.434 180.197 195.479 180.181C195.523 180.164 195.564 180.139 195.599 180.106C195.634 180.074 195.662 180.035 195.681 179.991C195.7 179.947 195.71 179.9 195.711 179.853H195.688ZM176.995 200.684C177.024 200.622 179.399 194.077 186.542 192.514C186.634 192.494 186.714 192.438 186.765 192.359C186.816 192.279 186.833 192.183 186.813 192.091C186.79 192.001 186.733 191.923 186.655 191.873C186.576 191.824 186.481 191.807 186.39 191.826C178.857 193.473 176.358 200.385 176.329 200.453C176.3 200.542 176.307 200.639 176.348 200.723C176.389 200.807 176.461 200.872 176.55 200.904H176.662C176.737 200.911 176.813 200.893 176.877 200.853C176.941 200.814 176.99 200.754 177.018 200.684H176.995ZM178.581 205.858C178.674 205.851 178.761 205.807 178.822 205.737C178.883 205.666 178.914 205.574 178.908 205.48C178.022 192.176 183.168 170.385 191.423 152.498C196.698 141.067 217.378 118.599 217.598 118.373C217.664 118.307 217.702 118.216 217.702 118.122C217.702 118.028 217.664 117.938 217.598 117.871C217.565 117.838 217.527 117.812 217.484 117.795C217.441 117.777 217.396 117.768 217.349 117.768C217.303 117.768 217.258 117.777 217.215 117.795C217.172 117.812 217.134 117.838 217.101 117.871C216.892 118.097 196.129 140.649 190.808 152.182C182.401 170.503 177.323 191.899 178.225 205.525C178.232 205.615 178.273 205.699 178.338 205.761C178.404 205.822 178.491 205.857 178.581 205.858V205.858ZM195.457 145.175C195.55 145.169 195.638 145.126 195.7 145.057C195.762 144.987 195.795 144.896 195.79 144.802L194.441 121.979C194.439 121.932 194.428 121.887 194.408 121.845C194.388 121.803 194.36 121.765 194.325 121.734C194.291 121.703 194.25 121.679 194.206 121.664C194.162 121.649 194.115 121.643 194.069 121.646C193.976 121.652 193.889 121.694 193.826 121.764C193.764 121.834 193.732 121.925 193.736 122.018L195.107 144.83C195.112 144.92 195.15 145.005 195.216 145.067C195.281 145.129 195.367 145.163 195.457 145.163V145.175ZM191.248 152.673C191.332 152.635 191.399 152.565 191.432 152.479C191.466 152.392 191.465 152.296 191.428 152.211L182.756 132.592C182.719 132.507 182.649 132.44 182.562 132.406C182.475 132.372 182.379 132.374 182.293 132.412C182.208 132.449 182.141 132.519 182.107 132.606C182.074 132.692 182.075 132.789 182.113 132.874L190.78 152.493C190.807 152.556 190.852 152.609 190.909 152.648C190.966 152.686 191.033 152.706 191.101 152.707C191.16 152.71 191.218 152.699 191.27 152.673H191.248ZM192.749 149.965L213.507 146.997C213.557 146.996 213.606 146.984 213.652 146.963C213.697 146.942 213.737 146.911 213.77 146.873C213.803 146.834 213.827 146.79 213.841 146.742C213.855 146.694 213.859 146.643 213.852 146.593C213.845 146.544 213.828 146.496 213.801 146.454C213.775 146.411 213.739 146.375 213.698 146.347C213.656 146.319 213.609 146.3 213.56 146.291C213.51 146.283 213.46 146.285 213.411 146.297L192.653 149.265C192.56 149.271 192.473 149.314 192.412 149.384C192.351 149.454 192.32 149.545 192.326 149.638C192.332 149.731 192.374 149.817 192.444 149.878C192.514 149.94 192.605 149.971 192.698 149.965H192.749ZM186.83 163.208C186.904 163.15 186.951 163.065 186.963 162.972C186.975 162.879 186.949 162.785 186.892 162.711L175.641 148.255C175.613 148.218 175.577 148.187 175.537 148.164C175.496 148.141 175.451 148.126 175.405 148.12C175.359 148.113 175.311 148.117 175.266 148.129C175.221 148.141 175.179 148.162 175.142 148.19C175.105 148.219 175.074 148.255 175.05 148.295C175.027 148.336 175.012 148.38 175.006 148.427C175 148.473 175.003 148.52 175.015 148.565C175.027 148.61 175.048 148.653 175.077 148.69L186.35 163.168C186.383 163.21 186.425 163.244 186.473 163.268C186.521 163.291 186.573 163.304 186.627 163.304C186.711 163.299 186.791 163.265 186.853 163.208H186.83ZM204.412 159.297C204.415 159.204 204.381 159.113 204.317 159.045C204.254 158.976 204.166 158.935 204.073 158.931L188.607 158.146C188.52 158.152 188.439 158.19 188.378 158.252C188.317 158.315 188.281 158.397 188.277 158.484C188.272 158.571 188.3 158.657 188.355 158.724C188.41 158.792 188.487 158.837 188.573 158.852L204.067 159.636C204.161 159.639 204.252 159.605 204.32 159.542C204.389 159.479 204.43 159.391 204.434 159.297H204.412ZM197.116 170.774C197.121 170.728 197.118 170.681 197.105 170.636C197.091 170.591 197.07 170.549 197.04 170.513C197.011 170.476 196.974 170.446 196.933 170.424C196.892 170.402 196.847 170.389 196.8 170.385L184.951 169.217C184.905 169.212 184.859 169.217 184.814 169.23C184.77 169.243 184.729 169.265 184.693 169.295C184.658 169.324 184.628 169.36 184.607 169.401C184.585 169.442 184.572 169.487 184.567 169.533C184.559 169.625 184.588 169.717 184.647 169.789C184.706 169.861 184.791 169.906 184.883 169.916L196.732 171.09H196.766C196.857 171.096 196.947 171.067 197.017 171.008C197.086 170.949 197.13 170.865 197.139 170.774H197.116ZM182.248 176.89C182.327 176.839 182.381 176.758 182.4 176.666C182.419 176.574 182.401 176.478 182.35 176.399L176.493 167.547C176.439 167.47 176.358 167.418 176.267 167.4C176.175 167.382 176.081 167.4 176.002 167.451C175.924 167.502 175.869 167.583 175.85 167.675C175.831 167.767 175.849 167.863 175.901 167.942L181.757 176.794C181.791 176.843 181.836 176.882 181.888 176.91C181.94 176.937 181.998 176.952 182.056 176.952C182.133 176.957 182.208 176.935 182.271 176.89H182.248ZM195.688 179.853C195.687 179.76 195.65 179.671 195.585 179.605C195.52 179.539 195.431 179.5 195.339 179.497L181.408 179.367C181.315 179.367 181.226 179.404 181.16 179.47C181.095 179.535 181.058 179.624 181.058 179.717C181.056 179.764 181.064 179.81 181.081 179.854C181.098 179.897 181.124 179.937 181.156 179.97C181.189 180.003 181.228 180.029 181.271 180.047C181.315 180.065 181.361 180.073 181.408 180.073L195.339 180.202C195.386 180.205 195.434 180.197 195.479 180.181C195.523 180.164 195.564 180.139 195.599 180.106C195.634 180.074 195.662 180.035 195.681 179.991C195.7 179.947 195.71 179.9 195.711 179.853H195.688ZM176.995 200.684C177.024 200.622 179.399 194.077 186.542 192.514C186.634 192.494 186.714 192.438 186.765 192.359C186.816 192.279 186.833 192.183 186.813 192.091C186.79 192.001 186.733 191.923 186.655 191.873C186.576 191.824 186.481 191.807 186.39 191.826C178.857 193.473 176.358 200.385 176.329 200.453C176.3 200.542 176.307 200.639 176.348 200.723C176.389 200.807 176.461 200.872 176.55 200.904H176.662C176.737 200.911 176.813 200.893 176.877 200.853C176.941 200.814 176.99 200.754 177.018 200.684H176.995Z" fill="black"/>
<path d="M187.795 195.911H171.821V199.217H173.215L176.098 217.256H183.518L186.401 199.217H187.795V195.911Z" fill="#6159E4"/>
<path opacity="0.3" d="M187.795 195.911H171.821V199.217H173.215L176.098 217.256H183.518L186.401 199.217H187.795V195.911Z" fill="white"/>
<path d="M43.9821 95.928L25.4018 89.8624L23.7486 85.4952L19.9739 85.3768L13.124 84.079L13.9478 85.4952L22.5693 91.7526L24.6965 92.8134L44.1288 102.964L43.9821 95.928Z" fill="white" stroke="#263238" stroke-width="1.00396" stroke-miterlimit="10"/>
<path d="M23.7484 85.4953L21.9767 84.4346L18.439 85.7323L19.0258 86.4376L23.7484 85.4953Z" fill="white" stroke="#263238" stroke-width="1.00396" stroke-linejoin="round"/>
<path d="M43.9821 95.928L25.4018 89.8624L23.7486 85.4952L19.9739 85.3768L13.124 84.079L13.9478 85.4952L22.5693 91.7526L24.6965 92.8134L44.1288 102.964L43.9821 95.928Z" fill="white"/>
<path opacity="0.5" d="M43.9821 95.928L25.4018 89.8624L23.7486 85.4952L19.9739 85.3768L13.124 84.079L13.9478 85.4952L22.5693 91.7526L24.6965 92.8134L44.1288 102.964L43.9821 95.928Z" fill="#6159E4" stroke="#263238" stroke-width="1.00396" stroke-miterlimit="10"/>
<path d="M43.9821 95.928L25.4018 89.8624L23.7486 85.4952L19.9739 85.3768L13.124 84.079L13.9478 85.4952L22.5693 91.7526L24.6965 92.8134L44.1288 102.964L43.9821 95.928Z" stroke="#263238" stroke-width="1.00396" stroke-miterlimit="10"/>
<path d="M23.7484 85.4953L21.9767 84.4346L18.439 85.7323L19.0258 86.4376L23.7484 85.4953Z" fill="white"/>
<path opacity="0.5" d="M23.7484 85.4953L21.9767 84.4346L18.439 85.7323L19.0258 86.4376L23.7484 85.4953Z" fill="#6159E4" stroke="#263238" stroke-width="1.00396" stroke-linejoin="round"/>
<path d="M23.7484 85.4953L21.9767 84.4346L18.439 85.7323L19.0258 86.4376L23.7484 85.4953Z" stroke="#263238" stroke-width="1.00396" stroke-linejoin="round"/>
<path d="M47.926 56.5613C47.926 56.5613 47.6382 59.1003 48.3548 60.731C49.0714 62.3616 53.0493 67.8855 53.0493 67.8855L45.6239 73.8382C45.6239 73.8382 42.5432 67.6316 41.9564 66.6273C41.3696 65.6229 40.6643 61.3009 42.577 58.2032C44.4898 55.1056 47.2433 54.2705 47.926 56.5613Z" fill="white"/>
<g style="mix-blend-mode:multiply" opacity="0.5">
<path d="M44.1121 64.7201L47.3339 71.4007L45.6186 73.8438L42.3799 68.0604L44.1121 64.7201Z" fill="#6159E4"/>
</g>
<path d="M47.926 56.5613C47.926 56.5613 47.6382 59.1003 48.3548 60.731C49.0714 62.3616 53.0493 67.8855 53.0493 67.8855L45.6239 73.8382C45.6239 73.8382 42.5432 67.6316 41.9564 66.6273C41.3696 65.6229 40.6643 61.3009 42.577 58.2032C44.4898 55.1056 47.2433 54.2705 47.926 56.5613Z" stroke="#263238" stroke-width="1.00396" stroke-miterlimit="10"/>
<path d="M50.2282 51.9119C49.7712 49.0907 46.5381 43.3524 41.4092 43.5724C38.0802 43.7191 36.5229 44.3906 35.0785 45.2087C33.9011 45.9024 32.8036 46.7236 31.8059 47.6575C29.3007 50.6649 28.4205 51.4887 28.9057 53.7908C28.8659 54.709 29.0098 55.6259 29.3289 56.4878C30.0963 58.536 30.621 59.8732 31.2868 60.8494C31.0837 61.8029 30.5533 64.3194 30.5251 64.8949C30.4969 65.4705 32.2178 65.0698 33.0867 64.8498C34.7005 68.4609 37.657 70.9661 38.5768 71.2539C40.1792 71.7561 42.7126 69.1211 44.0555 67.0785C45.3984 65.036 44.3827 62.7396 44.3884 61.8255C44.394 60.9114 47.4071 58.9027 48.5242 58.2652C49.6414 57.6276 50.6796 54.7274 50.2282 51.9119Z" fill="white"/>
<g style="mix-blend-mode:multiply" opacity="0.5">
<path d="M28.9285 53.7908C28.8887 54.7091 29.0326 55.626 29.3517 56.4879C30.1191 58.5361 30.6438 59.8733 31.3096 60.8494C31.1065 61.803 30.5761 64.3195 30.5479 64.895C30.5197 65.4705 32.2406 65.0699 33.1095 64.8499C34.7233 68.461 37.6798 70.9662 38.5996 71.254C40.202 71.7561 42.7354 69.1211 44.0783 67.0786C44.4138 66.5687 44.6316 65.9905 44.7159 65.3859C44.6425 65.1207 44.5917 64.9571 44.5917 64.9571C44.5917 64.9571 43.8357 67.8629 42.3348 67.4849C40.8339 67.1068 38.5375 64.0994 37.2567 63.0612C35.9759 62.0231 36.5006 60.6576 36.2467 59.1116C35.9928 57.5656 32.2011 56.2058 31.9472 55.3199C31.6933 54.4341 32.5792 50.7665 32.5792 50.7665C32.5792 50.7665 34.018 48.8481 33.7076 49.6381C33.4883 50.323 33.4087 51.045 33.4737 51.7613C33.5386 52.4775 33.7467 53.1734 34.0857 53.8078C34.3235 54.3083 34.7008 54.7295 35.1722 55.0207C35.6437 55.312 36.1892 55.461 36.7432 55.4497L38.12 48.6281L35.2141 46.2244L31.8287 47.635C29.3009 50.665 28.4377 51.4888 28.9285 53.7908Z" fill="#6159E4"/>
</g>
<path d="M50.2282 51.9119C49.7712 49.0907 46.5381 43.3524 41.4092 43.5724C38.0802 43.7191 36.5229 44.3906 35.0785 45.2087C33.9011 45.9024 32.8036 46.7236 31.8059 47.6575C29.3007 50.6649 28.4205 51.4887 28.9057 53.7908C28.8659 54.709 29.0098 55.6259 29.3289 56.4878C30.0963 58.536 30.621 59.8732 31.2868 60.8494C31.0837 61.8029 30.5533 64.3194 30.5251 64.8949C30.4969 65.4705 32.2178 65.0698 33.0867 64.8498C34.7005 68.4609 37.657 70.9661 38.5768 71.2539C40.1792 71.7561 42.7126 69.1211 44.0555 67.0785C45.3984 65.036 44.3827 62.7396 44.3884 61.8255C44.394 60.9114 47.4071 58.9027 48.5242 58.2652C49.6414 57.6276 50.6796 54.7274 50.2282 51.9119Z" stroke="#263238" stroke-miterlimit="10"/>
<path d="M31.9863 59.1454L32.5506 60.7591C32.5506 60.7591 33.7637 61.1597 35.242 59.546" stroke="#263238" stroke-miterlimit="10" stroke-linecap="round"/>
<path d="M36.1562 66.6837C36.1562 66.6837 37.4991 66.5482 38.0408 64.6637" stroke="#263238" stroke-miterlimit="10" stroke-linecap="round"/>
<path d="M31.0439 57.7969C31.0439 57.7969 31.4446 56.5838 33.8651 56.5838" stroke="#263238" stroke-miterlimit="10" stroke-linecap="round"/>
<path d="M43.452 41.3268C41.6931 41.0739 39.9194 40.9382 38.1425 40.9206C38.1425 40.9206 32.8274 37.8568 27.721 41.1237C22.6147 44.3906 25.0691 50.112 25.0691 51.5395C25.0691 52.967 23.4329 52.9727 24.4541 54.8121C25.4754 56.6515 28.9285 55.6359 28.9285 55.6359C28.965 54.9421 29.1483 54.264 29.4664 53.6463C29.7845 53.0287 30.23 52.4856 30.7736 52.053C32.613 50.6254 34.08 50.3151 34.6894 50.727C34.6894 50.727 34.2831 53.7908 34.8925 55.0152C34.8925 55.0152 36.935 56.0365 37.55 56.0365C38.1651 56.0365 37.1494 56.8998 39.1863 57.6671C39.5574 57.8004 39.9544 57.8458 40.346 57.7998C40.7376 57.7538 41.1132 57.6176 41.4433 57.4019C41.7423 56.1606 42.3968 54.293 43.6156 54.7274C45.4042 55.365 47.0349 59.7661 44.6143 61.2669C47.5257 61.7973 51.0522 56.6458 51.261 51.9514C51.4698 47.2569 46.4763 41.8572 43.452 41.3268Z" fill="#263238"/>
<path d="M34.7798 48.7127C34.7798 48.7127 36.2807 47.9058 38.1201 49.6324C39.9595 51.3589 43.5367 53.6667 48.2763 52.3971" stroke="white" stroke-width="0.5" stroke-linecap="round" stroke-linejoin="round"/>
<path d="M34.5708 47.3303C34.5708 47.3303 35.6034 45.7166 37.3299 45.7166C39.0565 45.7166 43.0908 48.1372 46.3126 48.1372" stroke="white" stroke-width="0.5" stroke-linecap="round" stroke-linejoin="round"/>
<path d="M33.3973 50.4393C33.3973 50.4393 31.4394 48.0243 29.6 49.9822C27.7606 51.9401 28.9286 53.7908 28.9286 53.7908" stroke="white" stroke-width="0.5" stroke-linecap="round" stroke-linejoin="round"/>
<path d="M25.5713 52.0531C26.6933 51.0412 27.3907 49.6423 27.5235 48.1373C27.7549 45.6038 31.2137 43.4146 33.3972 45.491" stroke="white" stroke-width="0.5" stroke-linecap="round" stroke-linejoin="round"/>
<path d="M29.1372 42.839C29.1372 42.839 32.596 39.4987 35.4736 43.7587" stroke="white" stroke-width="0.5" stroke-linecap="round" stroke-linejoin="round"/>
<path d="M57.2867 207.071C57.2867 207.071 59.4139 210.378 59.1769 212.505L58.9456 214.632C58.9456 214.632 51.1422 216.77 49.489 216.77C47.8358 216.77 39.0845 215.941 39.0845 215.941L38.7064 214.44C38.68 214.329 38.6925 214.213 38.7418 214.11C38.7911 214.007 38.8742 213.925 38.9773 213.876L46.7807 210.237L49.2407 207.545L57.2867 207.071Z" fill="white" stroke="#263238" stroke-width="1.00396" stroke-miterlimit="10"/>
<path d="M50.6742 215.106C52.7901 215.27 56.8075 213.978 59.1378 213.154L58.9741 214.632C58.9741 214.632 51.1425 216.771 49.4893 216.771C47.8361 216.771 39.0848 215.941 39.0848 215.941L38.814 214.869C40.2133 214.875 47.8756 214.892 50.6742 215.106Z" fill="#6159E4" stroke="#263238" stroke-width="1.00396" stroke-miterlimit="10"/>
<path d="M46.7919 210.237L35.4338 215.179C35.4338 215.179 34.4633 217.611 35.4338 218.097C36.4043 218.582 57.5631 218.097 57.5631 218.097C57.5631 218.097 59.0245 214.254 56.7168 211.676C54.409 209.097 46.7919 210.237 46.7919 210.237Z" fill="white" stroke="#263238" stroke-width="1.00396" stroke-miterlimit="10"/>
<path d="M57.5635 218.096C57.5635 218.096 36.4046 218.582 35.4342 218.096C34.9658 217.859 34.9489 217.177 35.0561 216.528H57.9359C57.8611 217.061 57.7365 217.586 57.5635 218.096Z" fill="#6159E4" stroke="#263238" stroke-width="1.00396" stroke-miterlimit="10"/>
<path d="M41.4206 124.354C41.4206 124.354 38.4527 137.507 37.3298 145.733C36.207 153.96 35.5469 170.441 35.7838 172.331C36.0208 174.222 47.8359 205.892 47.8359 205.892L49.0152 208.713L57.2869 207.06C57.2869 207.06 53.5065 195.008 52.0903 188.39C50.674 181.771 47.5764 170.898 47.5764 169.008C47.5764 167.118 54.9115 131.018 55.4362 128.648C55.9609 126.278 58.342 122.639 58.342 122.639L42.5039 122.317L41.4206 124.354Z" fill="#6159E4" stroke="#263238" stroke-width="1.00396" stroke-miterlimit="10"/>
<path d="M41.4206 124.354C41.4206 124.354 39.6828 136.367 40.3993 144.718C41.1159 153.068 42.6563 170.847 42.6563 173.494C42.6563 176.14 46.9275 191.944 47.1702 196.909C47.5482 204.081 47.0178 207.63 47.0178 207.63L46.7639 210.231C46.7639 210.231 51.7461 210.942 52.8351 211.252C54.0929 211.576 55.3909 211.717 56.6888 211.67C56.6888 211.67 58.5 203.697 58.5 196.904C58.5 190.11 56.9935 176.129 56.2431 170.464C55.4927 164.799 57.8568 142.946 59.1997 138.866C60.5426 134.787 63.4766 126.149 61.5018 121.736C59.5269 117.324 41.4206 124.354 41.4206 124.354Z" fill="#6159E4" stroke="#263238" stroke-width="1.00396" stroke-miterlimit="10"/>
<path d="M63.6964 119.524L63.5158 124.896C63.5158 124.896 60.2997 125.534 55.9664 126.284C52.3891 126.905 43.4065 126.12 40.3822 125.827C40.1065 125.802 39.8517 125.67 39.6732 125.459C39.4946 125.248 39.4067 124.974 39.4286 124.698L39.722 119.846L63.6964 119.524Z" fill="#263238"/>
<path d="M51.1251 65.9783C51.1251 65.9783 46.047 71.4683 44.1342 74.882C42.2215 78.2956 41.4654 83.5261 40.7488 87.645C40.0322 91.7639 41.9732 101.435 41.4259 105.875L39.6937 119.863C39.6937 119.863 39.3213 120.811 40.5682 121.849C41.8152 122.887 47.9033 123.265 53.4046 123.542C55.4133 123.643 61.4111 122.351 62.3929 122.289C63.5778 122.216 63.6173 120.709 63.6681 119.524C63.9051 113.955 64.9094 99.1103 65.5696 92.6441C66.9294 79.4579 59.4871 66.7287 51.1251 65.9783Z" fill="white" stroke="#263238" stroke-width="1.00396" stroke-miterlimit="10"/>
<g style="mix-blend-mode:multiply">
<path d="M64.9492 100.143C65.1749 97.2145 65.4006 94.557 65.5981 92.6442C65.6545 92.08 65.6883 91.5157 65.7165 90.9515L52.2256 93.2084L40.6362 89.2588C40.6375 91.6569 40.7731 94.053 41.0425 96.4359L52.4118 99.6182L64.9492 100.143Z" fill="#6159E4"/>
</g>
<g style="mix-blend-mode:multiply">
<path d="M50.6232 66.5313C49.8558 67.3833 48.3324 69.1155 46.8823 70.9549L55.4474 79.6611L58.2686 78.5326L50.6232 66.5313Z" fill="#6159E4"/>
</g>
<path d="M51.1257 65.9783C51.1257 65.9783 46.0475 71.4683 44.1348 74.882C43.5676 75.9194 43.1082 77.0122 42.7637 78.1432L52.9763 66.3451C52.373 66.1623 51.7531 66.0394 51.1257 65.9783V65.9783Z" fill="#263238"/>
<g style="mix-blend-mode:multiply">
<path d="M41.144 85.422L52.2256 89.0669L65.6827 87.5209C65.4718 84.1686 64.727 80.8715 63.4765 77.754L52.6263 82.1042L42.927 77.7088C42.1339 80.2298 41.5378 82.8086 41.144 85.422V85.422Z" fill="#6159E4"/>
</g>
<g style="mix-blend-mode:multiply">
<path d="M60.2208 113.955C54.6002 114.899 48.8332 114.428 43.4404 112.584L40.7377 111.659L39.897 118.43L42.9777 119.293C48.8343 120.931 54.9555 121.402 60.9938 120.681L63.4821 120.382C63.6115 120.108 63.6845 119.81 63.6965 119.508C63.7642 118.001 63.8827 115.812 64.035 113.301L60.2208 113.955Z" fill="#6159E4"/>
</g>
<g style="mix-blend-mode:multiply">
<path d="M61.7273 104.736C56.1066 105.683 50.3381 105.21 44.9469 103.359L41.5051 102.18C41.5905 103.409 41.5735 104.643 41.4543 105.87L41.0537 109.125L44.4843 110.085C50.3386 111.724 56.4579 112.197 62.4947 111.478L64.1874 111.275C64.3285 109.018 64.4921 106.615 64.667 104.239L61.7273 104.736Z" fill="#6159E4"/>
</g>
<path d="M8.79145 80.8754L19.7012 89.647L20.1714 89.0622L9.26168 80.2905L8.79145 80.8754Z" fill="#263238"/>
<path d="M56.3785 72.0665C56.3785 72.0665 60.3789 74.7918 60.4692 81.2297C60.5087 84.0509 60.2153 86.6859 59.5664 91.307C58.9176 95.9281 54.8889 110.976 51.7518 112.804C48.6146 114.633 43.7452 111.179 43.7452 111.179L20.194 95.5444L14.5009 90.9459L11.6797 85.6195L12.5655 83.9268L19.5113 89.2531L15.7704 85.7944L16.5039 84.8634L17.8581 85.8057L21.8077 87.284L22.671 92.9263L23.8898 93.7614L46.4197 101.994C46.4197 101.994 46.1376 89.8682 46.3464 87.5492C46.5551 85.2301 46.8429 79.4016 49.3255 75.1754" fill="white"/>
<g style="mix-blend-mode:multiply" opacity="0.5">
<path d="M46.2615 92.8303C46.2615 97.017 46.4026 101.994 46.4026 101.994L23.8952 93.7952L22.6764 92.9601L21.8132 87.3178L17.8635 85.8395L16.515 84.8803L15.7815 85.8112L19.5111 89.2531L12.5653 83.9267L11.7246 85.5912L14.5458 90.9176L20.2389 95.5443L21.6721 96.4979L52.7897 106.524L46.2615 92.8303Z" fill="#6159E4"/>
</g>
<path d="M56.3785 72.0665C56.3785 72.0665 60.3789 74.7918 60.4692 81.2297C60.5087 84.0509 60.2153 86.6859 59.5664 91.307C58.9176 95.9281 54.8889 110.976 51.7518 112.804C48.6146 114.633 43.7452 111.179 43.7452 111.179L20.194 95.5444L14.5009 90.9459L11.6797 85.6195L12.5655 83.9268L19.5113 89.2531L15.7704 85.7944L16.5039 84.8634L17.8581 85.8057L21.8077 87.284L22.671 92.9263L23.8898 93.7614L46.4197 101.994C46.4197 101.994 46.1376 89.8682 46.3464 87.5492C46.5551 85.2301 46.8429 79.4016 49.3255 75.1754" stroke="#263238" stroke-width="1.00396" stroke-miterlimit="10"/>
<path d="M46.4198 101.994L55.0188 108.2L57.2475 104.251C57.2475 104.251 58.7879 103.037 59.0135 102.123C59.2392 101.209 58.9515 99.7253 59.1828 98.8113C59.4142 97.8972 60.5652 97.0396 60.6724 94.8278C60.7796 92.616 60.6724 90.7709 60.6724 90.7709C60.6724 90.7709 62.5344 83.1142 62.3313 79.7852C62.1281 76.4562 58.9176 70.5712 56.3447 70.4415C53.7718 70.3117 50.4259 70.701 47.8304 74.6281C45.2349 78.5552 45.7653 90.0205 45.359 90.7371C44.9528 91.4536 45.517 94.9914 45.517 94.9914C45.2915 95.1596 45.1044 95.3739 44.9682 95.62C44.832 95.8662 44.7498 96.1385 44.7271 96.4189C44.6819 97.3386 45.675 99.6012 45.675 99.6012L46.4198 101.994Z" fill="white" stroke="#263238" stroke-width="1.00396" stroke-miterlimit="10"/>
<g style="mix-blend-mode:multiply">
<path d="M45.5847 87.7917C45.6024 88.7763 45.5287 89.7604 45.3646 90.7314C45.0035 91.3746 45.4154 94.2805 45.5057 94.8729C50.3422 96.3751 55.4564 96.761 60.4636 96.0014C60.5712 95.609 60.6355 95.206 60.6554 94.7996C60.7683 92.5934 60.6554 90.7427 60.6554 90.7427C60.6554 90.7427 60.8191 90.06 61.0448 89.0218C55.8591 89.3514 50.653 88.9372 45.5847 87.7917V87.7917Z" fill="#6159E4"/>
</g>
<g style="mix-blend-mode:multiply">
<path d="M47.4807 75.2545C46.6738 76.8738 46.2224 79.3057 45.9629 81.7714C51.0851 83.7262 56.6077 84.3984 62.0493 83.7293C62.2664 82.4244 62.3627 81.1022 62.337 79.7796C62.2393 78.7342 61.9923 77.7081 61.6035 76.7328C56.8522 76.8437 52.1061 76.3469 47.4807 75.2545V75.2545Z" fill="#6159E4"/>
</g>
<path d="M45.6748 99.6632L46.4027 101.994L55.0016 108.2L57.2304 104.25C57.2304 104.25 58.7707 103.037 58.9964 102.123C59.0367 101.964 59.0613 101.802 59.0698 101.638C54.5383 101.56 50.036 100.896 45.6748 99.6632V99.6632Z" fill="#263238"/>
<path d="M51.8982 211.179C51.8982 211.179 52.0901 206.293 53.0267 199.149C53.9633 192.006 51.712 181.861 51.334 180.169C50.9559 178.476 51.5258 174.718 51.1478 173.398C50.7697 172.077 48.9416 166.446 50.0193 159.912C51.097 153.379 51.9716 136.107 51.9716 136.107C51.9716 136.107 49.2576 133.901 48.462 131.029C47.6664 128.157 48.2758 127.254 48.2758 127.254" stroke="#263238" stroke-width="1.00396" stroke-miterlimit="10"/>
<path d="M53.1566 127.52L52.1128 133.297" stroke="#263238" stroke-width="1.00396" stroke-miterlimit="10"/>
</svg>
