<svg width="650" height="512" viewBox="0 0 650 512" fill="none" xmlns="http://www.w3.org/2000/svg">
<path d="M596.674 246.038V227.847C596.674 226.129 596.336 224.429 595.678 222.842C595.021 221.255 594.058 219.813 592.843 218.598C591.629 217.384 590.187 216.42 588.6 215.763C587.013 215.106 585.312 214.768 583.595 214.768H547.429C543.96 214.768 540.633 213.39 538.18 210.937C535.727 208.484 534.349 205.157 534.349 201.688V183.497C534.349 176.273 550.205 170.417 557.429 170.417H558.886C562.355 170.417 565.682 169.039 568.135 166.587C570.588 164.134 571.966 160.807 571.966 157.338V139.147C571.966 137.429 571.627 135.728 570.97 134.142C570.313 132.555 569.349 131.113 568.135 129.898C566.92 128.684 565.479 127.72 563.892 127.063C562.305 126.406 560.604 126.067 558.886 126.067H116.979C115.262 126.067 113.561 126.406 111.974 127.063C110.387 127.72 108.945 128.684 107.731 129.898C106.516 131.113 105.553 132.555 104.895 134.142C104.238 135.728 103.9 137.429 103.9 139.147V157.338C103.9 159.056 104.238 160.756 104.895 162.343C105.553 163.93 106.516 165.372 107.731 166.587C108.945 167.801 110.387 168.765 111.974 169.422C113.561 170.079 115.262 170.417 116.979 170.417C120.448 170.417 123.775 171.795 126.228 174.248C128.681 176.701 130.059 180.028 130.059 183.497V201.688C130.059 205.157 128.681 208.484 126.228 210.937C123.775 213.389 120.448 214.767 116.979 214.768H66.3998C64.6821 214.768 62.9813 215.106 61.3945 215.763C59.8076 216.42 58.3657 217.384 57.1512 218.598C55.9367 219.813 54.9732 221.255 54.3159 222.842C53.6586 224.429 53.3203 226.129 53.3203 227.847V246.038C53.3203 249.507 54.6983 252.834 57.1512 255.287C59.6041 257.74 62.9309 259.118 66.3998 259.118H86.2463C89.7152 259.118 93.042 260.496 95.4949 262.948C97.9478 265.401 99.3258 268.728 99.3258 272.197V290.388C99.3258 292.106 98.9875 293.807 98.3302 295.394C97.6729 296.98 96.7095 298.422 95.4949 299.637C94.2804 300.851 92.8385 301.815 91.2516 302.472C89.6648 303.129 87.964 303.468 86.2463 303.468H86.1983C82.7295 303.468 79.4026 304.846 76.9498 307.299C74.4969 309.752 73.1189 313.078 73.1189 316.547V334.738C73.1189 336.456 73.4572 338.157 74.1145 339.744C74.7718 341.33 75.7352 342.772 76.9498 343.987C78.1643 345.201 79.6062 346.165 81.1931 346.822C82.7799 347.479 84.4807 347.818 86.1983 347.818H89.0697C92.5386 347.818 95.8654 349.196 98.3183 351.649C100.771 354.101 102.149 357.428 102.149 360.897V379.088C102.149 382.557 100.771 385.884 98.3183 388.337C95.8655 390.79 92.5386 392.168 89.0698 392.168H71.9453C70.2276 392.168 68.5268 392.506 66.94 393.163C65.3531 393.821 63.9112 394.784 62.6967 395.999C61.4822 397.213 60.5187 398.655 59.8614 400.242C59.2041 401.829 58.8658 403.53 58.8658 405.247V423.438C58.8658 426.907 60.2438 430.234 62.6967 432.687C65.1496 435.14 68.4764 436.518 71.9453 436.518H555.908C559.377 436.518 562.704 435.14 565.157 432.687C567.61 430.234 568.988 426.907 568.988 423.438V405.247C568.988 403.53 568.649 401.829 567.992 400.242C567.335 398.655 566.371 397.213 565.157 395.999C563.942 394.784 562.5 393.821 560.914 393.163C559.327 392.506 557.626 392.168 555.908 392.168H544.568C541.099 392.168 537.772 390.79 535.319 388.337C532.866 385.884 531.488 382.557 531.488 379.088V360.897C531.488 357.428 532.866 354.101 535.319 351.649C537.772 349.196 541.099 347.818 544.568 347.818H571.308C574.777 347.818 578.103 346.44 580.556 343.987C583.009 341.534 584.387 338.207 584.387 334.738V316.547C584.387 313.078 583.009 309.751 580.556 307.299C578.103 304.846 574.776 303.468 571.308 303.468H563.196C559.727 303.468 556.4 302.09 553.947 299.637C551.495 297.184 550.117 293.857 550.117 290.388V272.197C550.117 268.728 551.495 265.401 553.947 262.948C556.4 260.496 559.727 259.118 563.196 259.118H583.595C587.064 259.118 590.39 257.74 592.843 255.287C595.296 252.834 596.674 249.507 596.674 246.038Z" fill="#DBE8EC"/>
<path d="M221.782 214.164C221.779 220.797 219.143 227.157 214.454 231.849C209.765 236.54 203.406 239.178 196.773 239.184H103.323C98.5657 239.184 93.9761 237.426 90.4368 234.247C86.8975 231.068 84.6582 226.693 84.1496 221.963C83.641 217.233 84.899 212.482 87.6816 208.623C90.4643 204.764 94.5752 202.07 99.2239 201.059C99.5957 195.431 102.092 190.153 106.208 186.295C110.323 182.438 115.751 180.287 121.392 180.28C123.676 180.28 125.946 180.642 128.117 181.354C131.41 174.984 136.575 169.776 142.917 166.43C149.258 163.084 156.473 161.76 163.59 162.636C170.706 163.513 177.384 166.548 182.724 171.334C188.064 176.119 191.81 182.425 193.459 189.404C196.99 188.927 200.583 189.21 203.995 190.236C207.408 191.262 210.561 193.006 213.244 195.352C215.926 197.697 218.076 200.589 219.549 203.834C221.022 207.079 221.783 210.601 221.782 214.164H221.782Z" fill="#F9AE2B"/>
<path d="M384.281 361.08L365.702 333.46C380.68 320.153 390.119 301.71 392.153 281.778C394.187 261.847 388.668 241.877 376.688 225.819C364.707 209.761 347.137 198.783 327.452 195.055C307.766 191.328 287.399 195.122 270.377 205.689C253.355 216.256 240.917 232.825 235.524 252.121C230.13 271.416 232.173 292.033 241.249 309.895C250.325 327.756 265.772 341.562 284.537 348.583C303.302 355.603 324.018 355.326 342.589 347.808L360.699 374.612C361.588 376.16 362.773 377.518 364.186 378.609C365.599 379.699 367.214 380.501 368.937 380.968C370.66 381.434 372.458 381.557 374.229 381.328C375.999 381.1 377.708 380.525 379.256 379.637C380.804 378.748 382.163 377.564 383.253 376.15C384.344 374.737 385.145 373.122 385.612 371.399C386.078 369.676 386.201 367.878 385.973 366.107C385.744 364.337 385.169 362.629 384.281 361.08Z" fill="#6159E4"/>
<path d="M312.735 330.562C344.242 330.562 369.783 305.02 369.783 273.514C369.783 242.007 344.242 216.466 312.735 216.466C281.229 216.466 255.688 242.007 255.688 273.514C255.688 305.02 281.229 330.562 312.735 330.562Z" fill="#EE781D"/>
<path d="M312.733 216.466C310.009 216.469 307.289 216.665 304.594 217.053C318.173 219.01 330.592 225.795 339.575 236.164C348.558 246.534 353.503 259.794 353.503 273.514C353.503 287.233 348.558 300.493 339.575 310.863C330.592 321.233 318.173 328.018 304.594 329.974C312.349 331.092 320.251 330.601 327.808 328.53C335.365 326.46 342.414 322.855 348.516 317.94C354.618 313.026 359.643 306.907 363.276 299.965C366.909 293.023 369.074 285.407 369.634 277.592C370.195 269.777 369.139 261.93 366.533 254.54C363.928 247.151 359.828 240.378 354.489 234.643C349.15 228.908 342.687 224.334 335.503 221.207C328.319 218.079 320.568 216.466 312.733 216.466V216.466Z" fill="#E06714"/>
<path d="M282.18 283.454C287.056 283.454 291.009 279.501 291.009 274.625C291.009 269.749 287.056 265.796 282.18 265.796C277.304 265.796 273.352 269.749 273.352 274.625C273.352 279.501 277.304 283.454 282.18 283.454Z" fill="#F9AE2B"/>
<path d="M341.276 268.76C344.652 268.76 347.389 266.023 347.389 262.647C347.389 259.272 344.652 256.535 341.276 256.535C337.901 256.535 335.164 259.272 335.164 262.647C335.164 266.023 337.901 268.76 341.276 268.76Z" fill="#E06714"/>
<path d="M307.145 254.714C309.396 254.714 311.22 252.89 311.22 250.639C311.22 248.389 309.396 246.564 307.145 246.564C304.895 246.564 303.07 248.389 303.07 250.639C303.07 252.89 304.895 254.714 307.145 254.714Z" fill="#E06714"/>
<path d="M308.661 308.981C310.911 308.981 312.736 307.156 312.736 304.906C312.736 302.655 310.911 300.831 308.661 300.831C306.41 300.831 304.586 302.655 304.586 304.906C304.586 307.156 306.41 308.981 308.661 308.981Z" fill="#E06714"/>
<path d="M332.208 295.495C335.253 295.495 337.721 293.027 337.721 289.982C337.721 286.938 335.253 284.47 332.208 284.47C329.163 284.47 326.695 286.938 326.695 289.982C326.695 293.027 329.163 295.495 332.208 295.495Z" fill="#F9AE2B"/>
<path d="M270.218 329.312C271.948 329.312 273.351 327.909 273.351 326.179C273.351 324.449 271.948 323.047 270.218 323.047C268.488 323.047 267.086 324.449 267.086 326.179C267.086 327.909 268.488 329.312 270.218 329.312Z" fill="#3086A3"/>
<path d="M372.914 243.061C374.644 243.061 376.046 241.658 376.046 239.928C376.046 238.198 374.644 236.796 372.914 236.796C371.184 236.796 369.781 238.198 369.781 239.928C369.781 241.658 371.184 243.061 372.914 243.061Z" fill="#3086A3"/>
<path d="M371.014 307.043C369.113 311.078 366.782 314.896 364.062 318.431C361.248 321.945 358.091 325.169 354.636 328.056C351.109 330.895 347.316 333.386 343.308 335.494C335.201 339.656 326.3 342.042 317.198 342.493C314.929 342.514 312.665 342.598 310.404 342.46C308.146 342.334 305.897 342.083 303.667 341.708C294.786 340.282 286.346 336.848 278.992 331.667C286.909 335.364 295.388 337.711 304.079 338.614C312.64 339.45 321.281 338.741 329.592 336.523C333.725 335.398 337.755 333.92 341.637 332.107C345.505 330.231 349.219 328.051 352.743 325.589C356.24 323.033 359.533 320.209 362.593 317.144C365.632 313.977 368.445 310.602 371.014 307.043V307.043Z" fill="#3086A3"/>
<path d="M246.83 286.85C243.693 275.302 243.944 263.095 247.553 251.686C249.34 245.939 251.91 240.465 255.191 235.419C256.834 232.895 258.65 230.487 260.628 228.215C262.589 225.927 264.702 223.773 266.951 221.767C269.217 219.779 271.605 217.935 274.1 216.244C275.38 215.45 276.614 214.581 277.939 213.862L279.901 212.743L281.92 211.731C283.258 211.039 284.666 210.496 286.039 209.884C287.452 209.367 288.835 208.772 290.277 208.341C293.126 207.389 296.04 206.645 298.996 206.115C304.888 205.074 310.893 204.841 316.848 205.421C322.74 206.021 328.515 207.472 333.991 209.728C328.347 208.281 322.555 207.494 316.729 207.381C310.977 207.295 305.235 207.896 299.626 209.172C294.067 210.482 288.692 212.477 283.625 215.114C281.098 216.422 278.651 217.879 276.296 219.478C273.96 221.1 271.725 222.864 269.603 224.758C261.018 232.339 254.453 241.936 250.498 252.684C246.537 263.61 245.279 275.332 246.83 286.85V286.85Z" fill="#3086A3"/>
<path d="M203.271 332.512V355.677C203.271 375.795 204.491 377.32 226.133 379.452V387.988H154.805V379.452C177.666 377.32 179.191 375.49 179.191 355.372V332.512H98.7188V323.367C127.677 282.216 159.073 237.713 189.555 195.343H203.271V317.879H233.144V332.512L203.271 332.512ZM179.191 227.349C159.987 255.392 138.65 286.483 117.618 317.879H179.191V227.349Z" fill="#6159E4"/>
<path d="M552.436 143.698C552.432 152.435 548.961 160.812 542.785 166.991C536.608 173.17 528.232 176.645 519.496 176.653H396.408C390.142 176.654 384.096 174.338 379.435 170.15C374.773 165.963 371.823 160.201 371.153 153.97C370.484 147.74 372.14 141.482 375.806 136.4C379.471 131.317 384.885 127.769 391.008 126.437C391.498 119.023 394.786 112.072 400.207 106.991C405.628 101.909 412.777 99.0771 420.207 99.0671C423.216 99.0673 426.206 99.545 429.065 100.482C433.402 92.0925 440.205 85.2325 448.558 80.8249C456.912 76.4173 466.414 74.6736 475.788 75.8284C485.162 76.9832 493.957 80.9811 500.991 87.2842C508.024 93.5873 512.959 101.893 515.131 111.085C519.782 110.456 524.514 110.83 529.008 112.182C533.503 113.533 537.657 115.83 541.19 118.919C544.724 122.008 547.555 125.818 549.495 130.092C551.435 134.366 552.437 139.005 552.436 143.698Z" fill="#F9AE2B"/>
<path d="M552.266 401.374C552.263 408.007 549.628 414.367 544.939 419.059C540.25 423.75 533.89 426.388 527.258 426.394H433.807C429.05 426.394 424.46 424.636 420.921 421.457C417.382 418.278 415.143 413.903 414.634 409.173C414.125 404.443 415.383 399.692 418.166 395.833C420.949 391.974 425.059 389.28 429.708 388.269C430.08 382.641 432.576 377.363 436.692 373.505C440.808 369.647 446.235 367.497 451.876 367.49C454.161 367.49 456.43 367.852 458.601 368.564C461.894 362.194 467.059 356.986 473.401 353.64C479.743 350.293 486.957 348.97 494.074 349.846C501.191 350.723 507.868 353.758 513.208 358.544C518.548 363.329 522.295 369.635 523.943 376.614C527.475 376.136 531.067 376.42 534.479 377.446C537.892 378.472 541.045 380.216 543.728 382.562C546.411 384.907 548.561 387.799 550.033 391.044C551.506 394.289 552.267 397.811 552.266 401.374V401.374Z" fill="#F9AE2B"/>
<path d="M119.227 119.326H151.529" stroke="#B9D4DB" stroke-width="3" stroke-miterlimit="10" stroke-linecap="round"/>
<path d="M119.227 128.637H151.529" stroke="#B9D4DB" stroke-width="3" stroke-miterlimit="10" stroke-linecap="round"/>
<path d="M119.227 137.947H151.529" stroke="#B9D4DB" stroke-width="3" stroke-miterlimit="10" stroke-linecap="round"/>
<path d="M273.594 395.258H305.897" stroke="#B9D4DB" stroke-width="3" stroke-miterlimit="10" stroke-linecap="round"/>
<path d="M273.594 404.567H305.897" stroke="#B9D4DB" stroke-width="3" stroke-miterlimit="10" stroke-linecap="round"/>
<path d="M273.594 413.878H305.897" stroke="#B9D4DB" stroke-width="3" stroke-miterlimit="10" stroke-linecap="round"/>
<path d="M536.117 271.982H568.42" stroke="#B9D4DB" stroke-width="3" stroke-miterlimit="10" stroke-linecap="round"/>
<path d="M536.117 281.293H568.42" stroke="#B9D4DB" stroke-width="3" stroke-miterlimit="10" stroke-linecap="round"/>
<path d="M536.117 290.604H568.42" stroke="#B9D4DB" stroke-width="3" stroke-miterlimit="10" stroke-linecap="round"/>
<path d="M80.9124 416.056C89.9853 416.056 97.3403 408.701 97.3403 399.628C97.3403 390.555 89.9853 383.2 80.9124 383.2C71.8394 383.2 64.4844 390.555 64.4844 399.628C64.4844 408.701 71.8394 416.056 80.9124 416.056Z" fill="#B9D4DB"/>
<path d="M101.588 381.824C106.314 381.824 110.145 377.993 110.145 373.267C110.145 368.541 106.314 364.71 101.588 364.71C96.8624 364.71 93.0312 368.541 93.0312 373.267C93.0312 377.993 96.8624 381.824 101.588 381.824Z" fill="#B9D4DB"/>
<path d="M144.117 418.942C148.207 418.942 151.523 415.626 151.523 411.536C151.523 407.446 148.207 404.13 144.117 404.13C140.027 404.13 136.711 407.446 136.711 411.536C136.711 415.626 140.027 418.942 144.117 418.942Z" fill="#B9D4DB"/>
<path d="M126.92 394.519C129.646 394.519 131.856 392.309 131.856 389.583C131.856 386.857 129.646 384.647 126.92 384.647C124.194 384.647 121.984 386.857 121.984 389.583C121.984 392.309 124.194 394.519 126.92 394.519Z" fill="#B9D4DB"/>
<path d="M115.301 426.392C121.836 426.392 127.134 421.094 127.134 414.559C127.134 408.024 121.836 402.727 115.301 402.727C108.766 402.727 103.469 408.024 103.469 414.559C103.469 421.094 108.766 426.392 115.301 426.392Z" fill="#B9D4DB"/>
<path d="M308.28 178.717C317.352 178.717 324.708 171.362 324.708 162.289C324.708 153.216 317.352 145.861 308.28 145.861C299.207 145.861 291.852 153.216 291.852 162.289C291.852 171.362 299.207 178.717 308.28 178.717Z" fill="#B9D4DB"/>
<path d="M275.695 186.124C279.786 186.124 283.101 182.808 283.101 178.718C283.101 174.627 279.786 171.312 275.695 171.312C271.605 171.312 268.289 174.627 268.289 178.718C268.289 182.808 271.605 186.124 275.695 186.124Z" fill="#B9D4DB"/>
<path d="M266.614 162.289C273.149 162.289 278.446 156.992 278.446 150.457C278.446 143.922 273.149 138.624 266.614 138.624C260.079 138.624 254.781 143.922 254.781 150.457C254.781 156.992 260.079 162.289 266.614 162.289Z" fill="#B9D4DB"/>
<path d="M504.427 332.512V355.677C504.427 375.795 505.647 377.32 527.289 379.452V387.988H455.961V379.452C478.822 377.32 480.346 375.49 480.346 355.372V332.512H399.875V323.367C428.832 282.216 460.229 237.713 490.711 195.343H504.427V317.879H534.3V332.512L504.427 332.512ZM480.346 227.349C461.143 255.392 439.806 286.483 418.774 317.879H480.346V227.349Z" fill="#6159E4"/>
</svg>
