<svg width="140" height="39" viewBox="0 0 140 39" fill="none" xmlns="http://www.w3.org/2000/svg">
<path d="M12.592 38.336C10.352 38.336 8.336 37.952 6.544 37.184C4.752 36.384 3.344 35.264 2.32 33.824C1.296 32.384 0.784 30.704 0.784 28.784H6.64C6.768 30.224 7.328 31.408 8.32 32.336C9.344 33.264 10.768 33.728 12.592 33.728C14.48 33.728 15.952 33.28 17.008 32.384C18.064 31.456 18.592 30.272 18.592 28.832C18.592 27.712 18.256 26.8 17.584 26.096C16.944 25.392 16.128 24.848 15.136 24.464C14.176 24.08 12.832 23.664 11.104 23.216C8.928 22.64 7.152 22.064 5.776 21.488C4.432 20.88 3.28 19.952 2.32 18.704C1.36 17.456 0.88 15.792 0.88 13.712C0.88 11.792 1.36 10.112 2.32 8.672C3.28 7.232 4.624 6.128 6.352 5.36C8.08 4.592 10.08 4.208 12.352 4.208C15.584 4.208 18.224 5.024 20.272 6.656C22.352 8.256 23.504 10.464 23.728 13.28H17.68C17.584 12.064 17.008 11.024 15.952 10.16C14.896 9.296 13.504 8.864 11.776 8.864C10.208 8.864 8.928 9.264 7.936 10.064C6.944 10.864 6.448 12.016 6.448 13.52C6.448 14.544 6.752 15.392 7.36 16.064C8 16.704 8.8 17.216 9.76 17.6C10.72 17.984 12.032 18.4 13.696 18.848C15.904 19.456 17.696 20.064 19.072 20.672C20.48 21.28 21.664 22.224 22.624 23.504C23.616 24.752 24.112 26.432 24.112 28.544C24.112 30.24 23.648 31.84 22.72 33.344C21.824 34.848 20.496 36.064 18.736 36.992C17.008 37.888 14.96 38.336 12.592 38.336ZM54.8088 24.128C54.8088 25.12 54.7448 26.016 54.6168 26.816H34.4088C34.5688 28.928 35.3528 30.624 36.7608 31.904C38.1688 33.184 39.8968 33.824 41.9448 33.824C44.8888 33.824 46.9688 32.592 48.1848 30.128H54.0887C53.2888 32.56 51.8328 34.56 49.7208 36.128C47.6408 37.664 45.0488 38.432 41.9448 38.432C39.4168 38.432 37.1448 37.872 35.1288 36.752C33.1448 35.6 31.5768 34 30.4248 31.952C29.3048 29.872 28.7448 27.472 28.7448 24.752C28.7448 22.032 29.2888 19.648 30.3768 17.6C31.4968 15.52 33.0488 13.92 35.0328 12.8C37.0488 11.68 39.3528 11.12 41.9448 11.12C44.4408 11.12 46.6648 11.664 48.6168 12.752C50.5688 13.84 52.0888 15.376 53.1768 17.36C54.2648 19.312 54.8088 21.568 54.8088 24.128ZM49.0968 22.4C49.0648 20.384 48.3448 18.768 46.9368 17.552C45.5288 16.336 43.7848 15.728 41.7048 15.728C39.8168 15.728 38.2008 16.336 36.8568 17.552C35.5128 18.736 34.7128 20.352 34.4568 22.4H49.0968ZM65.6658 2.48V38H60.1938V2.48H65.6658ZM83.938 16.016H79.042V38H73.522V16.016H70.402V11.552H73.522V9.68C73.522 6.64 74.322 4.432 75.922 3.056C77.554 1.648 80.098 0.943999 83.554 0.943999V5.504C81.89 5.504 80.722 5.824 80.05 6.464C79.378 7.072 79.042 8.144 79.042 9.68V11.552H83.938V16.016Z" fill="#292929"/>
<path d="M94.2595 9.056V18.848H105.78V23.312H94.2595V33.536H107.22V38H88.7875V4.592H107.22V9.056H94.2595ZM112.135 24.656C112.135 22 112.679 19.648 113.767 17.6C114.887 15.552 116.391 13.968 118.279 12.848C120.199 11.696 122.327 11.12 124.663 11.12C126.391 11.12 128.087 11.504 129.751 12.272C131.447 13.008 132.791 14 133.783 15.248V2.48H139.303V38H133.783V34.016C132.887 35.296 131.639 36.352 130.039 37.184C128.471 38.016 126.663 38.432 124.615 38.432C122.311 38.432 120.199 37.856 118.279 36.704C116.391 35.52 114.887 33.888 113.767 31.808C112.679 29.696 112.135 27.312 112.135 24.656ZM133.783 24.752C133.783 22.928 133.399 21.344 132.631 20C131.895 18.656 130.919 17.632 129.703 16.928C128.487 16.224 127.175 15.872 125.767 15.872C124.359 15.872 123.047 16.224 121.831 16.928C120.615 17.6 119.623 18.608 118.855 19.952C118.119 21.264 117.751 22.832 117.751 24.656C117.751 26.48 118.119 28.08 118.855 29.456C119.623 30.832 120.615 31.888 121.831 32.624C123.079 33.328 124.391 33.68 125.767 33.68C127.175 33.68 128.487 33.328 129.703 32.624C130.919 31.92 131.895 30.896 132.631 29.552C133.399 28.176 133.783 26.576 133.783 24.752Z" fill="#6159E4"/>
</svg>
