<svg width="297" height="221" viewBox="0 0 297 221" fill="none" xmlns="http://www.w3.org/2000/svg">
<path d="M296.677 194.052H0.323242V194.2H296.677V194.052Z" fill="#EBEBEB"/>
<path d="M266.982 203.589H247.352V203.737H266.982V203.589Z" fill="#EBEBEB"/>
<path d="M196.639 205.201H191.489V205.349H196.639V205.201Z" fill="#EBEBEB"/>
<path d="M246.759 198.089H235.385V198.237H246.759V198.089Z" fill="#EBEBEB"/>
<path d="M57.0155 199.084H31.4165V199.232H57.0155V199.084Z" fill="#EBEBEB"/>
<path d="M66.0487 199.084H62.2969V199.232H66.0487V199.084Z" fill="#EBEBEB"/>
<path d="M133.771 201.585H78.2466V201.734H133.771V201.585Z" fill="#EBEBEB"/>
<path d="M140.795 167.617H26.3491C25.4526 167.616 24.5933 167.259 23.9599 166.624C23.3265 165.99 22.9707 165.13 22.9707 164.233V3.35472C22.9785 2.4633 23.3377 1.61096 23.9703 0.982837C24.6028 0.35471 25.4577 0.00152704 26.3491 0H140.795C141.692 0 142.553 0.356565 143.188 0.991255C143.823 1.62594 144.179 2.48677 144.179 3.38435V164.233C144.179 165.131 143.823 165.991 143.188 166.626C142.553 167.261 141.692 167.617 140.795 167.617ZM26.3491 0.118542C25.4919 0.120112 24.6703 0.461757 24.0646 1.06849C23.459 1.67522 23.1189 2.49746 23.1189 3.35472V164.233C23.1189 165.09 23.459 165.913 24.0646 166.519C24.6703 167.126 25.4919 167.468 26.3491 167.469H140.795C141.653 167.468 142.475 167.126 143.081 166.52C143.688 165.913 144.029 165.091 144.031 164.233V3.35472C144.029 2.49691 143.688 1.67469 143.081 1.06813C142.475 0.461564 141.653 0.120109 140.795 0.118542H26.3491Z" fill="#EBEBEB"/>
<path d="M269.003 167.617H154.551C153.654 167.616 152.794 167.259 152.16 166.624C151.526 165.99 151.169 165.13 151.167 164.233V3.35472C151.176 2.46276 151.537 1.61043 152.17 0.982466C152.804 0.354503 153.659 0.00151039 154.551 0H269.003C269.893 0.00308474 270.747 0.356957 271.378 0.984917C272.009 1.61288 272.368 2.46433 272.375 3.35472V164.233C272.375 165.129 272.021 165.988 271.388 166.622C270.756 167.256 269.898 167.614 269.003 167.617ZM154.551 0.118542C153.694 0.120109 152.871 0.461564 152.265 1.06813C151.658 1.67469 151.317 2.49691 151.315 3.35472V164.233C151.317 165.091 151.658 165.913 152.265 166.52C152.871 167.126 153.694 167.468 154.551 167.469H269.003C269.861 167.468 270.683 167.126 271.29 166.52C271.896 165.913 272.238 165.091 272.239 164.233V3.35472C272.238 2.49691 271.896 1.67469 271.29 1.06813C270.683 0.461564 269.861 0.120109 269.003 0.118542H154.551Z" fill="#EBEBEB"/>
<path d="M143.96 70.4609H59.8071V193.845H143.96V70.4609Z" fill="#F0F0F0"/>
<path d="M140.984 74.3432H62.7769V97.1328H140.984V74.3432Z" fill="#E0E0E0"/>
<path d="M67.2222 78.0298H62.7769V97.1268H67.2222V78.0298Z" fill="#EBEBEB"/>
<path d="M88.7075 78.0298H84.2622V97.1268H88.7075V78.0298Z" fill="#EBEBEB"/>
<path d="M113.093 77.5502L108.712 78.3053L111.956 97.1248L116.337 96.3697L113.093 77.5502Z" fill="#EBEBEB"/>
<path d="M72.7285 80.5488H68.2832V97.1328H72.7285V80.5488Z" fill="#EBEBEB"/>
<path d="M82.9404 80.5488H78.4951V97.1328H82.9404V80.5488Z" fill="#EBEBEB"/>
<path d="M108.717 80.5488H104.272V97.1328H108.717V80.5488Z" fill="#EBEBEB"/>
<path d="M94.5465 79.9734L90.207 80.9378L93.8049 97.1267L98.1444 96.1623L94.5465 79.9734Z" fill="#EBEBEB"/>
<path d="M76.5688 77.0815H74.3462V97.1268H76.5688V77.0815Z" fill="#EBEBEB"/>
<path d="M102.992 77.0815H100.769V97.1268H102.992V77.0815Z" fill="#EBEBEB"/>
<path d="M62.7826 123.532L140.99 123.532V100.742L62.7826 100.742V123.532Z" fill="#E0E0E0"/>
<path d="M136.539 123.526H140.984V104.429H136.539V123.526Z" fill="#EBEBEB"/>
<path d="M115.06 123.526H119.505V104.429H115.06V123.526Z" fill="#EBEBEB"/>
<path d="M87.4318 122.767L91.8125 123.522L95.0564 104.703L90.6757 103.948L87.4318 122.767Z" fill="#EBEBEB"/>
<path d="M131.033 123.532H135.478V106.948H131.033V123.532Z" fill="#EBEBEB"/>
<path d="M120.826 123.532H125.271V106.948H120.826V123.532Z" fill="#EBEBEB"/>
<path d="M95.0498 123.532H99.4951V106.948H95.0498V123.532Z" fill="#EBEBEB"/>
<path d="M105.637 122.563L109.977 123.527L113.574 107.338L109.235 106.374L105.637 122.563Z" fill="#EBEBEB"/>
<path d="M127.192 123.526H129.415V103.481H127.192V123.526Z" fill="#EBEBEB"/>
<path d="M100.775 123.526H102.998V103.481H100.775V123.526Z" fill="#EBEBEB"/>
<path d="M67.2222 104.429H62.7769V123.526H67.2222V104.429Z" fill="#EBEBEB"/>
<path d="M72.7285 106.942H68.2832V123.526H72.7285V106.942Z" fill="#EBEBEB"/>
<path d="M82.9404 106.942H78.4951V123.526H82.9404V106.942Z" fill="#EBEBEB"/>
<path d="M76.5688 103.481H74.3462V123.526H76.5688V103.481Z" fill="#EBEBEB"/>
<path d="M140.984 127.136H62.7769V149.925H140.984V127.136Z" fill="#E0E0E0"/>
<path d="M112.114 130.822H107.668V149.919H112.114V130.822Z" fill="#EBEBEB"/>
<path d="M136.502 130.341L132.122 131.096L135.366 149.916L139.746 149.161L136.502 130.341Z" fill="#EBEBEB"/>
<path d="M96.1343 133.341H91.689V149.925H96.1343V133.341Z" fill="#EBEBEB"/>
<path d="M106.347 133.341H101.901V149.925H106.347V133.341Z" fill="#EBEBEB"/>
<path d="M132.124 133.341H127.678V149.925H132.124V133.341Z" fill="#EBEBEB"/>
<path d="M117.955 132.766L113.615 133.731L117.213 149.92L121.553 148.955L117.955 132.766Z" fill="#EBEBEB"/>
<path d="M99.9751 129.874H97.7524V149.919H99.9751V129.874Z" fill="#EBEBEB"/>
<path d="M126.398 129.874H124.175V149.919H126.398V129.874Z" fill="#EBEBEB"/>
<path d="M85.389 130.346L81.0083 131.101L84.2522 149.92L88.6329 149.165L85.389 130.346Z" fill="#EBEBEB"/>
<path d="M81.0083 133.341H76.563V149.925H81.0083V133.341Z" fill="#EBEBEB"/>
<path d="M66.8419 132.766L62.5024 133.731L66.1003 149.92L70.4398 148.955L66.8419 132.766Z" fill="#EBEBEB"/>
<path d="M75.2886 129.874H73.0659V149.919H75.2886V129.874Z" fill="#EBEBEB"/>
<path d="M45.2858 194.165H59.8071L59.8071 70.4609H45.2858L45.2858 194.165Z" fill="#E0E0E0"/>
<path d="M193.214 190.934H180.879L187.364 138.101C187.519 136.997 188.061 135.984 188.894 135.243C189.727 134.501 190.795 134.079 191.91 134.052H245.704L237.815 190.911L193.214 190.934Z" fill="#F5F5F5"/>
<path d="M232.333 190.935H244.667L251.157 138.101C251.236 137.593 251.203 137.074 251.059 136.58C250.916 136.087 250.665 135.631 250.326 135.244C249.987 134.858 249.567 134.551 249.096 134.345C248.625 134.139 248.115 134.039 247.601 134.052H243.363C242.25 134.086 241.185 134.511 240.354 135.251C239.523 135.991 238.979 137 238.817 138.101L232.333 190.935Z" fill="#F0F0F0"/>
<path d="M227.792 190.852L230.026 165.306C230.074 164.752 230.309 164.23 230.695 163.829C231.08 163.428 231.591 163.171 232.142 163.101L233.061 162.982C233.803 162.89 234.49 162.544 235.007 162.005C235.524 161.465 235.839 160.764 235.9 160.019L236.309 155.36C236.35 154.909 236.295 154.454 236.15 154.024C236.005 153.594 235.772 153.2 235.466 152.865C235.16 152.531 234.787 152.264 234.372 152.081C233.957 151.898 233.509 151.804 233.055 151.804H253.67C254.123 151.804 254.572 151.898 254.987 152.081C255.402 152.264 255.774 152.531 256.08 152.865C256.386 153.2 256.619 153.594 256.764 154.024C256.91 154.454 256.964 154.909 256.924 155.36L256.515 160.019C256.454 160.764 256.138 161.465 255.621 162.005C255.104 162.544 254.417 162.89 253.675 162.982L252.757 163.101C252.205 163.172 251.695 163.429 251.31 163.83C250.925 164.231 250.689 164.752 250.641 165.306L248.406 190.852C248.326 191.749 247.914 192.585 247.249 193.193C246.584 193.802 245.716 194.14 244.815 194.141H224.2C225.101 194.14 225.97 193.802 226.635 193.193C227.299 192.585 227.712 191.749 227.792 190.852Z" fill="#E6E6E6"/>
<path d="M171.058 158.934C170.895 156.995 170.009 155.188 168.577 153.871C167.144 152.554 165.269 151.822 163.323 151.822H181.27C183.211 151.83 185.079 152.564 186.505 153.881C187.931 155.197 188.813 157 188.976 158.934L190.754 179.181H172.83L171.058 158.934Z" fill="#E6E6E6"/>
<path d="M155.351 151.845H163.317C165.263 151.846 167.138 152.577 168.571 153.895C170.003 155.212 170.889 157.019 171.052 158.958L172.83 179.205H215.576L217.354 158.958C217.516 157.023 218.397 155.22 219.824 153.903C221.25 152.586 223.118 151.852 225.06 151.845H233.031C233.485 151.845 233.933 151.94 234.348 152.122C234.763 152.305 235.136 152.572 235.442 152.907C235.748 153.241 235.981 153.636 236.126 154.065C236.272 154.495 236.326 154.95 236.285 155.402L235.876 160.06C235.816 160.805 235.5 161.506 234.983 162.046C234.466 162.586 233.779 162.931 233.037 163.024L232.119 163.142C231.567 163.212 231.056 163.469 230.671 163.871C230.286 164.272 230.05 164.793 230.003 165.347L227.792 190.851C227.712 191.749 227.299 192.585 226.634 193.193C225.97 193.802 225.101 194.14 224.2 194.141H164.206C163.305 194.14 162.437 193.802 161.772 193.193C161.107 192.585 160.695 191.749 160.615 190.851L158.38 165.306C158.331 164.752 158.094 164.232 157.71 163.831C157.325 163.431 156.815 163.173 156.264 163.101L155.345 162.982C154.604 162.889 153.916 162.543 153.399 162.004C152.881 161.465 152.564 160.764 152.5 160.019L152.097 155.36C152.063 154.912 152.122 154.461 152.27 154.037C152.418 153.612 152.652 153.223 152.957 152.893C153.263 152.563 153.633 152.299 154.045 152.119C154.457 151.939 154.902 151.846 155.351 151.845Z" fill="#F0F0F0"/>
<path d="M60.8743 64.2968C60.8743 64.2968 60.2164 59.9642 63.3755 57.1844C66.5347 54.4046 66.2561 52.7568 65.3493 52.5435C64.4424 52.3301 63.6186 55.104 62.2316 55.8686C62.2316 55.8686 62.1842 51.9093 63.5948 50.4571C65.0055 49.005 65.7464 45.2413 64.4009 45.1761C63.0555 45.1109 62.9251 47.4047 62.6228 49.0346C62.3205 50.6646 60.8447 52.9524 60.8447 52.9524C60.8447 52.9524 60.5543 49.3962 59.6593 47.9559C58.7643 46.5157 61.1766 43.1669 60.252 41.7147C59.3274 40.2626 57.65 43.0305 57.7863 46.1541C57.9226 49.2777 60.009 52.6087 59.523 55.8686C59.523 55.8686 58.6043 53.5748 57.7804 53.3673C56.9565 53.1599 56.1208 51.6485 55.5696 51.0854C55.0184 50.5223 54.319 52.4664 55.5696 54.2682C56.8202 56.0701 60.009 60.9006 59.523 64.8006L60.8743 64.2968Z" fill="#E6E6E6"/>
<path d="M62.7588 62.3231L63.796 68.8133C63.8705 69.2845 63.842 69.7662 63.7125 70.2254C63.583 70.6845 63.3554 71.1102 63.0456 71.4729C62.7358 71.8357 62.351 72.127 61.9178 72.3268C61.4846 72.5266 61.0132 72.6301 60.5361 72.6303H59.4337C58.9566 72.6301 58.4853 72.5266 58.052 72.3268C57.6188 72.127 57.2341 71.8357 56.9242 71.4729C56.6144 71.1102 56.3869 70.6845 56.2573 70.2254C56.1278 69.7662 56.0993 69.2845 56.1738 68.8133L57.2229 62.3231H62.7588Z" fill="#E6E6E6"/>
<path d="M124.821 71.3619H128.04V57.5222H124.821V71.3619Z" fill="#EBEBEB"/>
<path d="M109.257 71.3619H112.475V57.5222H109.257V71.3619Z" fill="#EBEBEB"/>
<path d="M89.2376 70.8118L92.4092 71.3585L94.7601 57.7199L91.5884 57.1733L89.2376 70.8118Z" fill="#EBEBEB"/>
<path d="M120.832 71.356H124.051V59.3418H120.832V71.356Z" fill="#EBEBEB"/>
<path d="M113.435 71.356H116.654V59.3418H113.435V71.356Z" fill="#EBEBEB"/>
<path d="M94.7533 71.356H97.9717V59.3418H94.7533V71.356Z" fill="#EBEBEB"/>
<path d="M102.429 70.659L105.571 71.3572L108.177 59.6292L105.036 58.931L102.429 70.659Z" fill="#EBEBEB"/>
<path d="M118.047 71.3619H119.659V56.8346H118.047V71.3619Z" fill="#EBEBEB"/>
<path d="M98.8961 71.3619H100.508V56.8346H98.8961V71.3619Z" fill="#EBEBEB"/>
<path d="M87.4214 60.3731H71.7324V71.2019H87.4214V60.3731Z" fill="#EBEBEB"/>
<path d="M141.227 64.8065H128.087V72.891H141.227V64.8065Z" fill="#EBEBEB"/>
<path d="M138.157 57.7H131.584V65.7845H138.157V57.7Z" fill="#EBEBEB"/>
<path d="M247.962 47.0016H232.333V112.128H247.962V47.0016Z" fill="#E0E0E0"/>
<path d="M187.832 112.306L246.285 112.306V47.0075L187.832 47.0075V112.306Z" fill="#E0E0E0"/>
<path d="M185.947 112.306L246.593 112.306V47.0075L185.947 47.0075V112.306Z" fill="#F0F0F0"/>
<path d="M188.543 109.301H244.104V49.082L188.543 49.082V109.301Z" fill="white"/>
<path d="M188.537 109.301H189.568V49.082H188.537V109.301Z" fill="#E0E0E0"/>
<path d="M189.402 92.3911V94.0151H244.251V92.3911H189.402Z" fill="#E0E0E0"/>
<path d="M188.537 92.3852H244.969V89.6587H188.537V92.3852Z" fill="#F0F0F0"/>
<path d="M148.5 220.819C211.968 220.819 263.42 217.815 263.42 214.109C263.42 210.404 211.968 207.4 148.5 207.4C85.0315 207.4 33.5801 210.404 33.5801 214.109C33.5801 217.815 85.0315 220.819 148.5 220.819Z" fill="#F5F5F5"/>
<path d="M191.145 57.9786H85.1042C82.7081 57.9786 80.7656 59.921 80.7656 62.3172V187.177C80.7656 189.573 82.7081 191.515 85.1042 191.515H191.145C193.542 191.515 195.484 189.573 195.484 187.177V62.3172C195.484 59.921 193.542 57.9786 191.145 57.9786Z" fill="#6159E4"/>
<path opacity="0.6" d="M191.145 57.9786H85.1042C82.7081 57.9786 80.7656 59.921 80.7656 62.3172V187.177C80.7656 189.573 82.7081 191.515 85.1042 191.515H191.145C193.542 191.515 195.484 189.573 195.484 187.177V62.3172C195.484 59.921 193.542 57.9786 191.145 57.9786Z" fill="white"/>
<path d="M176.903 119.223H99.353V132.5H176.903V119.223Z" fill="white"/>
<g opacity="0.4">
<path d="M106.288 127.153V127.503H103.597V123.698H106.205V124.042H104V125.399H105.968V125.737H104V127.153H106.288Z" fill="#263238"/>
<path d="M106.827 125.861H108.256V126.193H106.827V125.861Z" fill="#263238"/>
<path d="M113.833 125.844V127.503H113.447V125.879C113.447 125.286 113.145 124.966 112.629 124.966C112.496 124.96 112.362 124.983 112.239 125.034C112.115 125.085 112.003 125.162 111.913 125.26C111.822 125.358 111.753 125.475 111.712 125.603C111.671 125.73 111.659 125.865 111.675 125.998V127.503H111.284V125.879C111.284 125.286 110.982 124.966 110.46 124.966C110.327 124.96 110.193 124.983 110.069 125.034C109.945 125.085 109.834 125.162 109.743 125.26C109.652 125.358 109.584 125.475 109.543 125.603C109.502 125.73 109.489 125.865 109.506 125.998V127.503H109.115V124.64H109.488V125.162C109.6 124.987 109.756 124.845 109.94 124.749C110.124 124.653 110.33 124.608 110.537 124.617C110.747 124.599 110.956 124.646 111.138 124.752C111.319 124.859 111.464 125.018 111.551 125.209C111.669 125.018 111.837 124.863 112.036 124.758C112.235 124.654 112.458 124.605 112.683 124.617C112.844 124.604 113.005 124.628 113.156 124.687C113.306 124.745 113.441 124.837 113.552 124.955C113.662 125.072 113.745 125.213 113.793 125.367C113.842 125.521 113.855 125.684 113.833 125.844Z" fill="#263238"/>
<path d="M117.045 125.725V127.503H116.672V127.053C116.566 127.213 116.418 127.342 116.245 127.425C116.072 127.509 115.879 127.544 115.688 127.527C115.042 127.527 114.645 127.189 114.645 126.697C114.645 126.205 114.929 125.885 115.747 125.885H116.654V125.713C116.654 125.221 116.381 124.954 115.848 124.954C115.5 124.951 115.162 125.07 114.893 125.292L114.722 125.008C115.056 124.738 115.478 124.599 115.907 124.617C116.058 124.598 116.212 124.614 116.356 124.663C116.501 124.711 116.632 124.792 116.741 124.898C116.851 125.005 116.935 125.134 116.987 125.277C117.04 125.42 117.059 125.573 117.045 125.725ZM116.654 126.644V126.175H115.759C115.208 126.175 115.024 126.389 115.024 126.685C115.024 126.981 115.291 127.224 115.747 127.224C115.94 127.237 116.133 127.188 116.296 127.083C116.459 126.979 116.585 126.825 116.654 126.644Z" fill="#263238"/>
<path d="M118.005 123.739C118.006 123.703 118.014 123.667 118.029 123.633C118.044 123.6 118.065 123.569 118.091 123.544C118.118 123.519 118.149 123.499 118.183 123.486C118.217 123.472 118.253 123.466 118.29 123.467C118.326 123.466 118.361 123.472 118.395 123.485C118.428 123.498 118.459 123.518 118.484 123.542C118.51 123.567 118.531 123.597 118.545 123.63C118.56 123.662 118.568 123.698 118.568 123.733C118.569 123.771 118.563 123.807 118.549 123.842C118.535 123.876 118.515 123.908 118.489 123.934C118.463 123.961 118.432 123.982 118.398 123.996C118.364 124.011 118.327 124.018 118.29 124.018C118.253 124.019 118.216 124.012 118.181 123.998C118.147 123.985 118.116 123.964 118.089 123.938C118.063 123.913 118.041 123.882 118.027 123.847C118.013 123.813 118.005 123.776 118.005 123.739ZM118.094 124.64H118.48V127.503H118.094V124.64Z" fill="#263238"/>
<path d="M119.552 123.467H119.938V127.503H119.552V123.467Z" fill="#263238"/>
</g>
<path d="M176.903 137.36H99.353V150.636H176.903V137.36Z" fill="white"/>
<g opacity="0.4">
<path d="M106.572 143.156C106.572 143.968 105.979 144.46 105.019 144.46H104V145.646H103.597V141.841H105.019C105.985 141.852 106.572 142.344 106.572 143.156ZM106.169 143.156C106.169 142.564 105.772 142.202 104.984 142.202H103.976V144.105H104.984C105.772 144.105 106.169 143.755 106.169 143.156Z" fill="#263238"/>
<path d="M109.494 143.885V145.664H109.121V145.213C109.015 145.373 108.867 145.502 108.694 145.586C108.521 145.669 108.328 145.704 108.137 145.687C107.491 145.687 107.094 145.349 107.094 144.852C107.094 144.354 107.378 144.028 108.196 144.028H109.103V143.85C109.103 143.364 108.824 143.097 108.291 143.097C107.945 143.092 107.608 143.212 107.343 143.435L107.165 143.145C107.503 142.881 107.922 142.745 108.35 142.759C108.504 142.739 108.66 142.755 108.806 142.804C108.953 142.853 109.086 142.935 109.196 143.044C109.307 143.152 109.391 143.284 109.442 143.43C109.494 143.576 109.512 143.732 109.494 143.885ZM109.109 144.798V144.33H108.196C107.645 144.33 107.467 144.549 107.467 144.846C107.467 145.142 107.728 145.379 108.19 145.379C108.385 145.393 108.58 145.345 108.745 145.24C108.911 145.136 109.038 144.981 109.109 144.798Z" fill="#263238"/>
<path d="M110.146 145.332L110.318 145.029C110.617 145.238 110.973 145.35 111.337 145.349C111.877 145.349 112.102 145.166 112.102 144.881C112.102 144.134 110.247 144.721 110.247 143.595C110.247 143.127 110.65 142.777 111.379 142.777C111.734 142.774 112.084 142.866 112.392 143.044L112.22 143.352C111.971 143.187 111.678 143.103 111.379 143.109C110.863 143.109 110.632 143.31 110.632 143.583C110.632 144.354 112.487 143.773 112.487 144.869C112.487 145.367 112.055 145.687 111.302 145.687C110.888 145.698 110.482 145.573 110.146 145.332Z" fill="#263238"/>
<path d="M112.801 145.332L112.979 145.029C113.275 145.24 113.629 145.352 113.993 145.349C114.538 145.349 114.757 145.166 114.757 144.881C114.757 144.134 112.908 144.721 112.908 143.595C112.908 143.127 113.311 142.777 114.034 142.777C114.39 142.772 114.74 142.865 115.048 143.044L114.882 143.352C114.63 143.188 114.335 143.103 114.034 143.109C113.518 143.109 113.293 143.311 113.293 143.583C113.293 144.354 115.148 143.773 115.148 144.869C115.148 145.367 114.71 145.687 113.963 145.687C113.548 145.697 113.14 145.572 112.801 145.332Z" fill="#263238"/>
<path d="M119.997 142.801L118.918 145.658H118.557L117.679 143.316L116.779 145.658H116.417L115.309 142.801H115.676L116.577 145.231L117.496 142.801H117.828L118.74 145.231L119.647 142.801H119.997Z" fill="#263238"/>
<path d="M120.21 144.229C120.21 143.941 120.296 143.659 120.456 143.419C120.616 143.179 120.844 142.992 121.11 142.882C121.377 142.772 121.67 142.743 121.953 142.799C122.236 142.855 122.495 142.994 122.699 143.198C122.903 143.402 123.042 143.662 123.098 143.945C123.155 144.228 123.126 144.521 123.015 144.787C122.905 145.054 122.718 145.281 122.478 145.441C122.239 145.602 121.957 145.687 121.668 145.687C121.475 145.694 121.283 145.661 121.103 145.59C120.923 145.519 120.759 145.412 120.623 145.275C120.486 145.138 120.379 144.975 120.308 144.795C120.237 144.615 120.204 144.422 120.21 144.229ZM122.729 144.229C122.72 144.02 122.649 143.819 122.526 143.649C122.403 143.48 122.233 143.351 122.038 143.277C121.842 143.204 121.628 143.19 121.425 143.237C121.221 143.284 121.035 143.389 120.891 143.541C120.747 143.692 120.65 143.883 120.613 144.089C120.576 144.295 120.601 144.507 120.684 144.699C120.767 144.891 120.904 145.055 121.079 145.169C121.254 145.284 121.459 145.344 121.668 145.343C121.813 145.346 121.957 145.319 122.09 145.263C122.224 145.208 122.344 145.125 122.444 145.02C122.544 144.915 122.621 144.791 122.67 144.654C122.719 144.518 122.739 144.374 122.729 144.229Z" fill="#263238"/>
<path d="M125.349 142.777V143.15H125.254C125.119 143.144 124.983 143.167 124.858 143.219C124.732 143.271 124.62 143.35 124.528 143.45C124.436 143.55 124.368 143.669 124.327 143.799C124.287 143.928 124.276 144.065 124.294 144.2V145.658H123.909V142.801H124.276V143.358C124.376 143.165 124.532 143.006 124.723 142.902C124.914 142.799 125.133 142.755 125.349 142.777Z" fill="#263238"/>
<path d="M128.627 141.657V145.687H128.259V145.124C128.144 145.312 127.981 145.465 127.788 145.569C127.594 145.673 127.376 145.724 127.157 145.717C126.787 145.693 126.44 145.53 126.186 145.259C125.933 144.989 125.792 144.632 125.792 144.262C125.792 143.891 125.933 143.534 126.186 143.264C126.44 142.994 126.787 142.83 127.157 142.807C127.374 142.802 127.588 142.854 127.778 142.958C127.969 143.062 128.128 143.214 128.241 143.399V141.657H128.627ZM128.247 144.259C128.238 144.05 128.167 143.848 128.044 143.679C127.921 143.51 127.751 143.38 127.555 143.307C127.36 143.234 127.146 143.22 126.942 143.266C126.739 143.313 126.553 143.419 126.409 143.571C126.264 143.722 126.168 143.913 126.131 144.119C126.094 144.325 126.119 144.537 126.202 144.729C126.285 144.921 126.422 145.084 126.597 145.199C126.772 145.314 126.977 145.374 127.186 145.373C127.334 145.376 127.48 145.348 127.616 145.291C127.752 145.233 127.874 145.148 127.974 145.04C128.074 144.931 128.15 144.803 128.197 144.664C128.245 144.524 128.261 144.376 128.247 144.229V144.259Z" fill="#263238"/>
</g>
<path opacity="0.2" d="M176.903 164.18H99.353V177.456H176.903V164.18Z" fill="black"/>
<g opacity="0.5">
<path d="M118.213 158.081H116.944L116.672 158.674H116.423L117.46 156.403H117.697L118.734 158.674H118.485L118.213 158.081ZM118.124 157.885L117.579 156.664L117.033 157.885H118.124Z" fill="black"/>
<path d="M119.066 156.279H119.298V158.685H119.066V156.279Z" fill="black"/>
<path d="M120.803 156.966V157.192H120.744C120.661 157.185 120.578 157.196 120.5 157.226C120.423 157.255 120.353 157.302 120.296 157.363C120.239 157.423 120.196 157.496 120.171 157.575C120.146 157.654 120.139 157.738 120.151 157.82V158.691H119.92V156.984H120.145V157.316C120.205 157.197 120.3 157.098 120.418 157.036C120.536 156.973 120.671 156.949 120.803 156.966Z" fill="black"/>
<path d="M122.688 157.903H121.236C121.24 157.986 121.261 158.067 121.297 158.142C121.334 158.217 121.384 158.284 121.447 158.339C121.509 158.394 121.582 158.437 121.66 158.464C121.739 158.49 121.822 158.501 121.905 158.496C122.004 158.499 122.102 158.481 122.193 158.443C122.284 158.406 122.366 158.349 122.433 158.276L122.557 158.425C122.435 158.553 122.277 158.643 122.104 158.682C121.931 158.721 121.75 158.708 121.584 158.645C121.418 158.582 121.274 158.471 121.171 158.326C121.068 158.181 121.01 158.009 121.004 157.832C120.999 157.719 121.016 157.607 121.056 157.501C121.095 157.395 121.156 157.299 121.235 157.218C121.313 157.137 121.407 157.073 121.511 157.029C121.615 156.986 121.727 156.965 121.84 156.966C121.953 156.964 122.065 156.985 122.169 157.028C122.274 157.071 122.368 157.135 122.446 157.216C122.524 157.298 122.584 157.394 122.623 157.5C122.661 157.606 122.677 157.719 122.67 157.832C122.67 157.832 122.688 157.879 122.688 157.903ZM121.259 157.731H122.445C122.445 157.574 122.382 157.423 122.271 157.312C122.16 157.201 122.009 157.138 121.852 157.138C121.695 157.138 121.544 157.201 121.433 157.312C121.322 157.423 121.259 157.574 121.259 157.731Z" fill="black"/>
<path d="M124.401 157.66V158.715H124.199V158.448C124.136 158.546 124.048 158.624 123.943 158.674C123.838 158.724 123.722 158.745 123.606 158.733C123.221 158.733 123.014 158.531 123.014 158.235C123.014 157.939 123.18 157.749 123.672 157.749H124.199V157.648C124.199 157.358 124.033 157.198 123.713 157.198C123.497 157.19 123.286 157.261 123.12 157.399L123.02 157.227C123.216 157.071 123.462 156.989 123.713 156.996C123.805 156.98 123.899 156.986 123.988 157.014C124.077 157.041 124.158 157.089 124.225 157.154C124.292 157.219 124.343 157.298 124.373 157.386C124.404 157.474 124.413 157.568 124.401 157.66ZM124.175 158.205V157.921H123.636C123.304 157.921 123.197 158.051 123.197 158.229C123.197 158.407 123.357 158.549 123.63 158.549C123.753 158.558 123.875 158.527 123.978 158.459C124.081 158.392 124.159 158.292 124.199 158.176L124.175 158.205Z" fill="black"/>
<path d="M126.57 156.279V158.685H126.35V158.348C126.283 158.461 126.186 158.554 126.071 158.616C125.955 158.679 125.824 158.709 125.693 158.703C125.475 158.685 125.271 158.586 125.123 158.425C124.975 158.264 124.893 158.053 124.893 157.835C124.893 157.616 124.975 157.406 125.123 157.245C125.271 157.084 125.475 156.985 125.693 156.967C125.821 156.963 125.948 156.992 126.062 157.051C126.176 157.11 126.273 157.197 126.345 157.304V156.279H126.57ZM126.345 157.832C126.339 157.708 126.297 157.588 126.224 157.488C126.15 157.388 126.049 157.311 125.933 157.267C125.817 157.224 125.69 157.216 125.569 157.243C125.448 157.271 125.338 157.334 125.252 157.423C125.167 157.513 125.109 157.626 125.087 157.748C125.065 157.87 125.079 157.996 125.128 158.111C125.177 158.225 125.258 158.322 125.361 158.391C125.465 158.459 125.586 158.496 125.71 158.496C125.799 158.501 125.887 158.487 125.97 158.456C126.052 158.424 126.127 158.375 126.189 158.313C126.252 158.25 126.3 158.174 126.331 158.091C126.361 158.009 126.374 157.92 126.368 157.832H126.345Z" fill="black"/>
<path d="M128.674 156.978L127.821 158.893C127.678 159.225 127.495 159.331 127.228 159.331C127.075 159.336 126.926 159.28 126.813 159.177L126.92 159.005C127.003 159.089 127.116 159.136 127.234 159.136C127.388 159.136 127.489 159.065 127.589 158.845L127.661 158.685L126.896 156.978H127.163L127.809 158.431L128.449 156.978H128.674Z" fill="black"/>
<path d="M131.14 157.66V158.715H130.92V158.448C130.857 158.546 130.769 158.624 130.664 158.674C130.559 158.724 130.443 158.745 130.328 158.733C129.942 158.733 129.735 158.531 129.735 158.235C129.735 157.939 129.901 157.749 130.393 157.749H130.932V157.648C130.932 157.358 130.772 157.198 130.452 157.198C130.236 157.19 130.025 157.261 129.859 157.399L129.753 157.227C129.951 157.071 130.199 156.989 130.452 156.996C130.544 156.98 130.638 156.986 130.727 157.014C130.816 157.041 130.897 157.089 130.964 157.154C131.031 157.219 131.082 157.298 131.112 157.386C131.143 157.474 131.152 157.568 131.14 157.66ZM130.908 158.205V157.921H130.375C130.043 157.921 129.936 158.051 129.936 158.229C129.936 158.407 130.096 158.549 130.369 158.549C130.487 158.554 130.604 158.52 130.701 158.453C130.798 158.385 130.871 158.288 130.908 158.176V158.205Z" fill="black"/>
<path d="M135.46 157.696V158.685H135.235V157.719C135.235 157.358 135.051 157.174 134.743 157.174C134.664 157.168 134.584 157.179 134.509 157.206C134.434 157.234 134.367 157.277 134.31 157.334C134.254 157.39 134.21 157.458 134.183 157.533C134.155 157.607 134.144 157.687 134.15 157.767V158.662H133.925V157.719C133.925 157.358 133.742 157.174 133.427 157.174C133.348 157.168 133.268 157.179 133.193 157.206C133.119 157.234 133.051 157.277 132.994 157.334C132.938 157.39 132.895 157.458 132.867 157.533C132.839 157.607 132.828 157.687 132.835 157.767V158.662H132.604V156.955H132.823V157.269C132.888 157.163 132.981 157.076 133.092 157.019C133.202 156.961 133.327 156.935 133.451 156.943C133.575 156.933 133.7 156.963 133.806 157.028C133.912 157.093 133.996 157.189 134.044 157.304C134.113 157.188 134.212 157.093 134.331 157.029C134.45 156.966 134.585 156.936 134.719 156.943C134.822 156.925 134.927 156.931 135.026 156.963C135.125 156.995 135.215 157.05 135.288 157.124C135.361 157.198 135.415 157.289 135.445 157.388C135.475 157.488 135.48 157.593 135.46 157.696Z" fill="black"/>
<path d="M137.559 157.903H136.131C136.143 158.071 136.22 158.227 136.347 158.338C136.473 158.449 136.638 158.505 136.806 158.496C136.904 158.499 137.001 158.482 137.091 158.444C137.181 158.406 137.262 158.349 137.328 158.276L137.458 158.425C137.375 158.515 137.273 158.587 137.16 158.635C137.046 158.684 136.924 158.707 136.8 158.703C136.683 158.711 136.565 158.693 136.455 158.653C136.344 158.612 136.244 158.548 136.159 158.466C136.075 158.384 136.009 158.285 135.965 158.176C135.921 158.067 135.901 157.949 135.905 157.832C135.905 157.612 135.993 157.401 136.148 157.245C136.304 157.089 136.515 157.002 136.735 157.002C136.955 157.002 137.166 157.089 137.322 157.245C137.478 157.401 137.565 157.612 137.565 157.832C137.565 157.832 137.559 157.879 137.559 157.903ZM136.131 157.731H137.346C137.346 157.57 137.282 157.415 137.168 157.302C137.054 157.188 136.899 157.124 136.738 157.124C136.577 157.124 136.422 157.188 136.309 157.302C136.195 157.415 136.131 157.57 136.131 157.731Z" fill="black"/>
<path d="M140.854 157.696V158.685H140.623V157.719C140.623 157.358 140.445 157.174 140.137 157.174C140.058 157.167 139.977 157.177 139.902 157.204C139.827 157.231 139.759 157.275 139.702 157.331C139.645 157.388 139.602 157.456 139.575 157.532C139.548 157.607 139.537 157.687 139.545 157.767V158.662H139.313V157.719C139.313 157.358 139.136 157.174 138.821 157.174C138.742 157.167 138.661 157.177 138.586 157.204C138.511 157.231 138.443 157.275 138.386 157.331C138.33 157.388 138.286 157.456 138.259 157.532C138.232 157.607 138.221 157.687 138.229 157.767V158.662H137.998V156.955H138.217V157.269C138.282 157.162 138.375 157.075 138.485 157.018C138.596 156.96 138.721 156.934 138.845 156.943C138.969 156.933 139.094 156.963 139.2 157.028C139.306 157.093 139.39 157.189 139.438 157.304C139.507 157.188 139.606 157.093 139.725 157.029C139.844 156.966 139.979 156.936 140.114 156.943C140.216 156.925 140.321 156.931 140.42 156.963C140.519 156.995 140.609 157.05 140.682 157.124C140.755 157.198 140.809 157.289 140.839 157.388C140.869 157.488 140.874 157.593 140.854 157.696Z" fill="black"/>
<path d="M143.213 157.832C143.219 157.946 143.201 158.06 143.161 158.166C143.121 158.273 143.059 158.37 142.979 158.452C142.9 158.534 142.804 158.598 142.699 158.642C142.593 158.685 142.48 158.706 142.366 158.703C142.234 158.709 142.103 158.679 141.988 158.616C141.872 158.554 141.775 158.461 141.708 158.348V158.685H141.482V156.279H141.714V157.304C141.784 157.197 141.881 157.11 141.996 157.051C142.11 156.991 142.237 156.962 142.366 156.967C142.479 156.963 142.593 156.983 142.698 157.026C142.804 157.068 142.899 157.132 142.979 157.214C143.059 157.295 143.12 157.392 143.161 157.498C143.201 157.605 143.219 157.718 143.213 157.832ZM142.982 157.832C142.976 157.708 142.934 157.588 142.861 157.488C142.788 157.388 142.687 157.311 142.571 157.267C142.454 157.224 142.328 157.216 142.207 157.243C142.086 157.271 141.976 157.334 141.89 157.423C141.804 157.513 141.747 157.626 141.724 157.748C141.702 157.87 141.716 157.996 141.765 158.111C141.814 158.225 141.895 158.322 141.999 158.391C142.102 158.459 142.224 158.496 142.348 158.496C142.434 158.498 142.52 158.481 142.6 158.448C142.679 158.415 142.751 158.366 142.811 158.303C142.871 158.241 142.917 158.167 142.946 158.086C142.976 158.004 142.988 157.918 142.982 157.832Z" fill="black"/>
<path d="M145.175 157.903H143.759C143.763 157.986 143.784 158.067 143.82 158.142C143.857 158.217 143.907 158.284 143.97 158.339C144.032 158.394 144.105 158.437 144.183 158.464C144.262 158.49 144.345 158.501 144.428 158.496C144.527 158.496 144.624 158.474 144.713 158.432C144.802 158.39 144.881 158.329 144.944 158.253L145.074 158.401C144.952 158.53 144.794 158.619 144.621 158.658C144.448 158.697 144.267 158.685 144.101 158.621C143.935 158.558 143.791 158.447 143.688 158.302C143.585 158.158 143.527 157.986 143.522 157.808C143.516 157.696 143.533 157.583 143.573 157.477C143.613 157.372 143.673 157.275 143.752 157.194C143.83 157.113 143.924 157.049 144.028 157.006C144.133 156.962 144.245 156.941 144.357 156.943C144.47 156.94 144.582 156.961 144.686 157.004C144.79 157.047 144.883 157.111 144.961 157.193C145.039 157.274 145.098 157.371 145.136 157.477C145.174 157.583 145.189 157.696 145.181 157.808L145.175 157.903ZM143.747 157.731H144.932C144.932 157.574 144.87 157.423 144.759 157.312C144.647 157.201 144.497 157.138 144.339 157.138C144.182 157.138 144.032 157.201 143.92 157.312C143.809 157.423 143.747 157.574 143.747 157.731Z" fill="black"/>
<path d="M146.509 156.966V157.192H146.455C146.372 157.185 146.289 157.196 146.212 157.226C146.134 157.255 146.064 157.302 146.007 157.363C145.95 157.423 145.907 157.496 145.882 157.575C145.857 157.654 145.851 157.738 145.863 157.82V158.691H145.631V156.984H145.851V157.316C145.911 157.197 146.006 157.1 146.124 157.037C146.242 156.974 146.376 156.95 146.509 156.966Z" fill="black"/>
<path d="M148.002 156.996C148.002 156.759 147.813 156.599 147.481 156.599C147.364 156.592 147.247 156.613 147.14 156.658C147.032 156.703 146.936 156.772 146.858 156.86L146.687 156.729C146.788 156.615 146.913 156.526 147.054 156.467C147.194 156.409 147.346 156.383 147.499 156.392C147.955 156.392 148.245 156.611 148.245 156.984C148.245 157.536 147.653 157.577 147.653 158.027H147.41C147.41 157.47 148.002 157.417 148.002 156.996ZM147.362 158.531C147.37 158.492 147.391 158.456 147.421 158.431C147.452 158.405 147.491 158.391 147.531 158.391C147.571 158.391 147.61 158.405 147.641 158.431C147.672 158.456 147.693 158.492 147.7 158.531C147.705 158.556 147.704 158.582 147.698 158.606C147.691 158.631 147.68 158.653 147.663 158.673C147.647 158.692 147.627 158.708 147.604 158.719C147.581 158.729 147.556 158.735 147.531 158.735C147.506 158.735 147.481 158.729 147.458 158.719C147.435 158.708 147.415 158.692 147.399 158.673C147.383 158.653 147.371 158.631 147.365 158.606C147.358 158.582 147.358 158.556 147.362 158.531Z" fill="black"/>
<path d="M149.608 156.415H150.136V158.253H151.274V158.679H149.608V156.415Z" fill="black"/>
<path d="M151.392 157.814C151.381 157.622 151.427 157.431 151.525 157.265C151.623 157.1 151.768 156.968 151.942 156.886C152.116 156.804 152.311 156.776 152.501 156.806C152.691 156.837 152.868 156.923 153.008 157.055C153.148 157.186 153.246 157.357 153.288 157.545C153.33 157.732 153.315 157.928 153.244 158.107C153.173 158.286 153.051 158.44 152.892 158.548C152.733 158.656 152.545 158.715 152.353 158.715C152.229 158.723 152.106 158.706 151.99 158.664C151.873 158.623 151.767 158.558 151.677 158.473C151.587 158.389 151.515 158.286 151.466 158.173C151.417 158.06 151.392 157.938 151.392 157.814ZM152.797 157.814C152.79 157.728 152.758 157.646 152.706 157.578C152.653 157.509 152.581 157.458 152.5 157.43C152.418 157.401 152.33 157.397 152.246 157.418C152.162 157.439 152.087 157.484 152.028 157.548C151.969 157.611 151.93 157.69 151.916 157.775C151.901 157.86 151.912 157.948 151.946 158.027C151.981 158.106 152.038 158.174 152.11 158.221C152.182 158.268 152.266 158.294 152.353 158.294C152.414 158.295 152.476 158.283 152.533 158.259C152.589 158.235 152.64 158.199 152.682 158.154C152.724 158.108 152.756 158.055 152.776 157.996C152.796 157.938 152.803 157.876 152.797 157.814Z" fill="black"/>
<path d="M155.453 156.937V158.395C155.469 158.526 155.455 158.659 155.411 158.784C155.367 158.908 155.295 159.021 155.2 159.113C155.105 159.205 154.99 159.273 154.864 159.313C154.739 159.353 154.605 159.364 154.475 159.343C154.17 159.355 153.869 159.27 153.615 159.1L153.817 158.739C153.99 158.863 154.197 158.931 154.41 158.934C154.765 158.934 154.925 158.774 154.925 158.46V158.383C154.854 158.457 154.768 158.515 154.673 158.552C154.578 158.59 154.476 158.607 154.374 158.602C154.257 158.612 154.139 158.598 154.029 158.56C153.918 158.522 153.816 158.461 153.729 158.382C153.643 158.302 153.574 158.206 153.527 158.098C153.48 157.991 153.456 157.875 153.456 157.758C153.456 157.641 153.48 157.525 153.527 157.417C153.574 157.31 153.643 157.213 153.729 157.134C153.816 157.055 153.918 156.994 154.029 156.956C154.139 156.918 154.257 156.903 154.374 156.913C154.485 156.904 154.597 156.922 154.701 156.966C154.804 157.009 154.895 157.076 154.967 157.162V156.937H155.453ZM154.955 157.761C154.957 157.701 154.946 157.642 154.923 157.587C154.901 157.532 154.867 157.483 154.824 157.442C154.781 157.401 154.729 157.37 154.673 157.35C154.617 157.331 154.558 157.323 154.498 157.328C154.438 157.321 154.376 157.327 154.318 157.345C154.26 157.363 154.206 157.394 154.16 157.434C154.115 157.475 154.078 157.525 154.053 157.581C154.028 157.636 154.015 157.697 154.015 157.758C154.015 157.819 154.028 157.879 154.053 157.935C154.078 157.991 154.115 158.041 154.16 158.081C154.206 158.122 154.26 158.152 154.318 158.171C154.376 158.189 154.438 158.195 154.498 158.188C154.557 158.193 154.616 158.185 154.672 158.166C154.727 158.147 154.778 158.116 154.821 158.076C154.864 158.035 154.899 157.987 154.922 157.932C154.945 157.878 154.956 157.82 154.955 157.761Z" fill="black"/>
<path d="M156.798 156.415C156.799 156.376 156.807 156.336 156.824 156.3C156.84 156.264 156.864 156.232 156.893 156.205C156.923 156.178 156.957 156.158 156.995 156.145C157.033 156.132 157.072 156.128 157.112 156.131C157.151 156.127 157.19 156.131 157.227 156.142C157.264 156.154 157.299 156.173 157.328 156.199C157.358 156.224 157.382 156.256 157.398 156.291C157.415 156.326 157.425 156.364 157.426 156.403C157.426 156.487 157.393 156.567 157.334 156.626C157.275 156.684 157.195 156.718 157.112 156.718C157.029 156.718 156.949 156.684 156.89 156.626C156.831 156.567 156.798 156.487 156.798 156.403V156.415ZM156.857 156.937H157.361V158.715H156.857V156.937Z" fill="black"/>
<path d="M159.607 157.66V158.662H159.103V157.743C159.103 157.458 158.973 157.328 158.748 157.328C158.523 157.328 158.327 157.476 158.327 157.796V158.662H157.823V156.884H158.309V157.091C158.386 157.012 158.478 156.951 158.58 156.911C158.683 156.871 158.792 156.854 158.902 156.86C159.004 156.855 159.107 156.873 159.201 156.913C159.295 156.952 159.38 157.013 159.448 157.09C159.515 157.167 159.565 157.258 159.593 157.357C159.62 157.455 159.625 157.559 159.607 157.66Z" fill="black"/>
</g>
<path d="M176.903 163.368H99.353V176.644H176.903V163.368Z" fill="#6159E4"/>
<path d="M128.111 172.069L127.163 170.699H126.878H125.752V172.08H125.1V167.534H126.878C128.064 167.534 128.769 168.127 128.769 169.123C128.784 169.438 128.695 169.75 128.514 170.009C128.334 170.268 128.074 170.461 127.773 170.557L128.852 172.08L128.111 172.069ZM128.111 169.105C128.111 168.453 127.678 168.086 126.843 168.086H125.74V170.13H126.843C127.661 170.136 128.093 169.757 128.093 169.111L128.111 169.105Z" fill="white"/>
<path d="M132.805 170.557H130.013C130.057 170.85 130.21 171.116 130.44 171.303C130.67 171.489 130.962 171.583 131.258 171.565C131.444 171.571 131.63 171.538 131.801 171.466C131.973 171.395 132.128 171.287 132.254 171.15L132.598 171.553C132.344 171.81 132.021 171.989 131.669 172.068C131.316 172.147 130.948 172.122 130.609 171.997C130.27 171.872 129.974 171.652 129.757 171.363C129.54 171.074 129.411 170.728 129.385 170.368C129.373 170.135 129.409 169.902 129.491 169.684C129.573 169.466 129.699 169.267 129.862 169.1C130.024 168.933 130.219 168.801 130.435 168.713C130.651 168.626 130.883 168.583 131.116 168.589C131.348 168.583 131.578 168.625 131.793 168.713C132.007 168.802 132.201 168.934 132.361 169.101C132.521 169.269 132.644 169.468 132.723 169.686C132.802 169.904 132.834 170.136 132.817 170.368C132.817 170.421 132.811 170.498 132.805 170.557ZM130.013 170.107H132.218C132.19 169.834 132.062 169.582 131.858 169.398C131.654 169.214 131.39 169.113 131.116 169.113C130.842 169.113 130.577 169.214 130.374 169.398C130.17 169.582 130.042 169.834 130.013 170.107Z" fill="white"/>
<path d="M136.978 168.631V171.594C136.978 172.81 136.356 173.373 135.2 173.373C134.61 173.398 134.03 173.218 133.558 172.863L133.855 172.383C134.234 172.677 134.702 172.834 135.182 172.827C135.994 172.827 136.368 172.454 136.368 171.672V171.399C136.214 171.575 136.023 171.714 135.809 171.807C135.595 171.899 135.362 171.942 135.129 171.932C134.687 171.932 134.264 171.757 133.951 171.445C133.639 171.132 133.463 170.709 133.463 170.267C133.463 169.825 133.639 169.401 133.951 169.089C134.264 168.777 134.687 168.601 135.129 168.601C135.373 168.594 135.615 168.644 135.836 168.747C136.058 168.849 136.252 169.003 136.403 169.194V168.661L136.978 168.631ZM136.385 170.261C136.398 170.024 136.34 169.789 136.218 169.586C136.096 169.382 135.916 169.22 135.701 169.12C135.486 169.021 135.245 168.988 135.011 169.026C134.777 169.064 134.56 169.171 134.388 169.334C134.215 169.497 134.096 169.708 134.044 169.939C133.993 170.171 134.013 170.413 134.1 170.633C134.187 170.853 134.339 171.043 134.535 171.176C134.731 171.309 134.963 171.381 135.2 171.381C135.352 171.39 135.504 171.368 135.646 171.315C135.789 171.263 135.919 171.181 136.029 171.076C136.138 170.971 136.225 170.844 136.283 170.704C136.342 170.564 136.37 170.413 136.368 170.261H136.385Z" fill="white"/>
<path d="M138.057 167.564C138.057 167.51 138.069 167.456 138.09 167.406C138.112 167.356 138.143 167.31 138.182 167.272C138.221 167.234 138.268 167.205 138.318 167.184C138.369 167.164 138.423 167.154 138.477 167.155C138.535 167.148 138.593 167.153 138.648 167.171C138.704 167.188 138.755 167.217 138.798 167.255C138.841 167.293 138.876 167.341 138.9 167.393C138.923 167.446 138.936 167.503 138.936 167.561C138.936 167.619 138.923 167.676 138.9 167.729C138.876 167.782 138.841 167.829 138.798 167.867C138.755 167.906 138.704 167.934 138.648 167.952C138.593 167.969 138.535 167.974 138.477 167.967C138.423 167.969 138.369 167.959 138.319 167.94C138.268 167.921 138.222 167.891 138.183 167.854C138.144 167.816 138.112 167.771 138.091 167.722C138.069 167.672 138.057 167.618 138.057 167.564ZM138.169 168.631H138.792V172.069H138.169V168.631Z" fill="white"/>
<path d="M139.544 171.707L139.805 171.215C140.158 171.444 140.57 171.568 140.991 171.571C141.583 171.571 141.809 171.393 141.809 171.103C141.809 170.332 139.633 171.002 139.633 169.627C139.633 169.034 140.185 168.595 141.068 168.595C141.505 168.588 141.936 168.697 142.318 168.91L142.052 169.401C141.756 169.215 141.411 169.12 141.062 169.129C140.516 169.129 140.25 169.33 140.25 169.603C140.25 170.415 142.431 169.751 142.431 171.091C142.431 171.683 141.838 172.11 140.943 172.11C140.447 172.117 139.96 171.977 139.544 171.707Z" fill="white"/>
<path d="M145.169 171.885C144.953 172.05 144.688 172.135 144.416 172.128C144.27 172.145 144.122 172.128 143.983 172.08C143.844 172.032 143.717 171.953 143.612 171.85C143.508 171.746 143.428 171.621 143.378 171.482C143.328 171.344 143.31 171.196 143.326 171.049V169.158H142.733V168.649H143.326V167.896H143.918V168.649H144.944V169.158H143.954V171.025C143.94 171.102 143.944 171.18 143.965 171.255C143.986 171.329 144.025 171.398 144.077 171.455C144.129 171.513 144.194 171.557 144.266 171.586C144.338 171.614 144.416 171.625 144.493 171.618C144.668 171.62 144.839 171.564 144.979 171.458L145.169 171.885Z" fill="white"/>
<path d="M148.903 170.557H146.129C146.173 170.851 146.326 171.118 146.558 171.305C146.789 171.492 147.083 171.584 147.38 171.565C147.565 171.572 147.749 171.538 147.92 171.467C148.091 171.395 148.245 171.287 148.37 171.15L148.713 171.553C148.46 171.811 148.138 171.991 147.786 172.07C147.433 172.149 147.065 172.124 146.726 171.999C146.387 171.874 146.092 171.653 145.875 171.363C145.659 171.074 145.531 170.728 145.507 170.368C145.494 170.135 145.53 169.902 145.612 169.684C145.694 169.466 145.821 169.267 145.983 169.1C146.146 168.933 146.341 168.801 146.557 168.713C146.773 168.626 147.004 168.583 147.237 168.589C147.469 168.584 147.699 168.627 147.913 168.715C148.127 168.804 148.32 168.936 148.48 169.103C148.64 169.27 148.764 169.469 148.843 169.687C148.922 169.905 148.954 170.137 148.939 170.368C148.932 170.432 148.92 170.495 148.903 170.557ZM146.129 170.107H148.34C148.306 169.838 148.175 169.59 147.971 169.411C147.768 169.232 147.506 169.133 147.235 169.133C146.963 169.133 146.701 169.232 146.498 169.411C146.294 169.59 146.163 169.838 146.129 170.107Z" fill="white"/>
<path d="M151.635 168.595V169.188H151.493C151.339 169.177 151.184 169.201 151.041 169.259C150.897 169.316 150.769 169.405 150.664 169.519C150.56 169.633 150.483 169.769 150.439 169.917C150.394 170.065 150.384 170.221 150.408 170.374V172.086H149.786V168.649H150.379V169.241C150.504 169.024 150.689 168.848 150.912 168.733C151.135 168.619 151.386 168.571 151.635 168.595Z" fill="white"/>
<g opacity="0.6">
<path d="M124.549 72.6718L124.816 72.1146C125.275 72.5002 125.857 72.7102 126.457 72.7073C127.317 72.7073 127.684 72.3754 127.684 71.9427C127.684 70.7573 124.673 71.4923 124.673 69.649C124.673 68.8784 125.266 68.2265 126.576 68.2265C127.14 68.2173 127.695 68.3695 128.176 68.6651L127.939 69.2578C127.532 68.9972 127.059 68.8574 126.576 68.8547C125.728 68.8547 125.39 69.2104 125.39 69.643C125.39 70.8284 128.407 70.0935 128.407 71.925C128.407 72.6836 127.815 73.3356 126.481 73.3356C125.779 73.3503 125.094 73.1151 124.549 72.6718Z" fill="#263238"/>
<path d="M129.202 68.3035C129.202 68.2439 129.215 68.1849 129.239 68.1302C129.262 68.0754 129.297 68.026 129.34 67.9846C129.383 67.9432 129.434 67.9108 129.489 67.8893C129.545 67.8677 129.604 67.8574 129.664 67.859C129.723 67.8566 129.782 67.866 129.837 67.8865C129.892 67.907 129.943 67.9384 129.986 67.9786C130.029 68.0189 130.063 68.0673 130.087 68.121C130.112 68.1748 130.125 68.2328 130.126 68.2917C130.126 68.4143 130.078 68.5319 129.991 68.6186C129.904 68.7053 129.787 68.754 129.664 68.754C129.541 68.754 129.424 68.7053 129.337 68.6186C129.25 68.5319 129.202 68.4143 129.202 68.2917V68.3035ZM129.32 69.4889H130.008V73.2586H129.32V69.4889Z" fill="#263238"/>
<path d="M134.91 69.4712V72.7251C134.91 74.0587 134.234 74.6633 132.96 74.6633C132.32 74.6836 131.693 74.4849 131.181 74.1002L131.507 73.5727C131.92 73.8993 132.433 74.0731 132.96 74.0647C133.849 74.0647 134.252 73.6498 134.252 72.7963V72.4999C134.084 72.6937 133.875 72.8474 133.64 72.95C133.405 73.0525 133.15 73.1013 132.894 73.0926C132.646 73.1068 132.398 73.0701 132.164 72.9849C131.931 72.8997 131.717 72.7678 131.537 72.5972C131.356 72.4265 131.212 72.2208 131.114 71.9926C131.016 71.7644 130.965 71.5185 130.965 71.2701C130.965 71.0216 131.016 70.7757 131.114 70.5475C131.212 70.3193 131.356 70.1136 131.537 69.943C131.717 69.7723 131.931 69.6404 132.164 69.5552C132.398 69.47 132.646 69.4333 132.894 69.4475C133.156 69.4339 133.418 69.4802 133.659 69.5829C133.901 69.6856 134.115 69.842 134.287 70.0402V69.4475L134.91 69.4712ZM134.246 71.2493C134.259 70.9902 134.194 70.7331 134.059 70.5113C133.925 70.2894 133.727 70.1129 133.491 70.0046C133.256 69.8963 132.993 69.8611 132.737 69.9036C132.481 69.9461 132.244 70.0643 132.055 70.2429C131.867 70.4216 131.737 70.6525 131.681 70.9059C131.626 71.1593 131.647 71.4236 131.744 71.6646C131.84 71.9056 132.006 72.1123 132.22 72.258C132.435 72.4038 132.688 72.4818 132.948 72.4821C133.117 72.497 133.288 72.4763 133.449 72.4212C133.61 72.3662 133.758 72.2781 133.883 72.1626C134.008 72.047 134.108 71.9066 134.175 71.7504C134.243 71.5941 134.277 71.4255 134.275 71.2552L134.246 71.2493Z" fill="#263238"/>
<path d="M139.793 71.0715V73.2408H139.106V71.1248C139.106 70.3839 138.738 70.0224 138.092 70.0224C137.928 70.0116 137.764 70.0372 137.61 70.0972C137.457 70.1572 137.319 70.2502 137.206 70.3696C137.093 70.4889 137.007 70.6318 136.956 70.7879C136.904 70.9441 136.887 71.1097 136.907 71.273V73.2171H136.225V69.4475H136.883V70.0402C137.045 69.8393 137.253 69.6805 137.489 69.5773C137.725 69.4741 137.983 69.4296 138.24 69.4475C138.454 69.4331 138.668 69.4659 138.868 69.5434C139.068 69.621 139.248 69.7415 139.396 69.8964C139.545 70.0513 139.657 70.2368 139.725 70.4398C139.794 70.6429 139.817 70.8585 139.793 71.0715Z" fill="#263238"/>
<path d="M146.485 69.4712V73.2408H145.839V72.6481C145.689 72.842 145.494 72.9971 145.271 73.1002C145.048 73.2033 144.804 73.2516 144.559 73.2408C144.338 73.2635 144.116 73.2365 143.907 73.1617C143.699 73.087 143.509 72.9664 143.354 72.8089C143.198 72.6513 143.079 72.4609 143.007 72.2515C142.934 72.0421 142.91 71.8191 142.935 71.599V69.4297H143.616V71.5219C143.616 72.2569 143.99 72.6303 144.636 72.6303C144.8 72.6421 144.965 72.6173 145.119 72.5577C145.273 72.498 145.411 72.4051 145.524 72.2854C145.638 72.1658 145.723 72.0225 145.775 71.8659C145.826 71.7093 145.842 71.5432 145.821 71.3797V69.4297L146.485 69.4712Z" fill="#263238"/>
<path d="M151.689 71.356C151.702 71.6104 151.663 71.8649 151.572 72.1031C151.482 72.3413 151.342 72.558 151.163 72.7393C150.984 72.9206 150.769 73.0625 150.532 73.156C150.295 73.2495 150.041 73.2925 149.786 73.2823C149.536 73.292 149.287 73.2436 149.059 73.1407C148.831 73.0379 148.629 72.8834 148.471 72.6896V74.6336H147.789V69.4889H148.441V70.0817C148.598 69.8753 148.802 69.7099 149.036 69.5994C149.27 69.489 149.528 69.4369 149.786 69.4475C150.04 69.4365 150.293 69.4784 150.529 69.5705C150.765 69.6626 150.979 69.8029 151.158 69.9824C151.337 70.162 151.477 70.3768 151.568 70.6133C151.66 70.8498 151.701 71.1027 151.689 71.356ZM151.002 71.356C150.99 71.1082 150.906 70.8693 150.76 70.6688C150.614 70.4682 150.412 70.3149 150.18 70.2278C149.948 70.1406 149.695 70.1234 149.453 70.1784C149.212 70.2333 148.991 70.358 148.819 70.5369C148.648 70.7159 148.532 70.9412 148.487 71.1852C148.442 71.4291 148.47 71.6808 148.566 71.9093C148.663 72.1377 148.824 72.3328 149.031 72.4704C149.237 72.6081 149.479 72.6822 149.727 72.6836C149.9 72.6872 150.072 72.655 150.232 72.5888C150.391 72.5226 150.536 72.4241 150.656 72.2993C150.775 72.1745 150.868 72.0263 150.927 71.8639C150.987 71.7015 151.012 71.5286 151.002 71.356Z" fill="#263238"/>
</g>
<path d="M176.903 101.08H99.353V114.357H176.903V101.08Z" fill="white"/>
<g opacity="0.4">
<path d="M103.597 105.555H104V109.011H106.128V109.36H103.597V105.555Z" fill="#263238"/>
<path d="M108.884 107.588V109.366H108.516V108.922C108.408 109.08 108.261 109.208 108.088 109.291C107.915 109.374 107.724 109.41 107.532 109.396C106.886 109.396 106.489 109.058 106.489 108.56C106.489 108.062 106.768 107.754 107.592 107.754H108.499V107.582C108.499 107.09 108.22 106.824 107.687 106.824C107.34 106.819 107.004 106.939 106.738 107.161L106.56 106.871C106.899 106.609 107.318 106.473 107.746 106.486C107.897 106.467 108.049 106.483 108.193 106.531C108.337 106.58 108.469 106.66 108.578 106.766C108.687 106.871 108.771 107 108.824 107.142C108.877 107.284 108.897 107.437 108.884 107.588ZM108.499 108.501V108.033H107.604C107.046 108.033 106.869 108.252 106.869 108.548C106.869 108.845 107.135 109.082 107.592 109.082C107.785 109.094 107.977 109.044 108.14 108.939C108.303 108.835 108.429 108.681 108.499 108.501Z" fill="#263238"/>
<path d="M109.536 109.058L109.708 108.756C110.007 108.964 110.362 109.076 110.727 109.076C111.272 109.076 111.492 108.892 111.492 108.608C111.492 107.861 109.642 108.447 109.642 107.321C109.642 106.853 110.039 106.503 110.768 106.503C111.124 106.499 111.475 106.591 111.782 106.77L111.61 107.078C111.361 106.914 111.067 106.829 110.768 106.835C110.253 106.835 110.028 107.037 110.028 107.309C110.028 108.08 111.877 107.499 111.877 108.596C111.877 109.094 111.444 109.414 110.691 109.414C110.278 109.423 109.873 109.298 109.536 109.058Z" fill="#263238"/>
<path d="M114.123 109.188C113.955 109.322 113.745 109.393 113.531 109.39C113.418 109.402 113.304 109.389 113.197 109.351C113.09 109.313 112.993 109.252 112.913 109.172C112.833 109.092 112.771 108.995 112.734 108.888C112.696 108.781 112.683 108.667 112.695 108.554V106.829H112.179V106.503H112.695V105.875H113.08V106.503H113.945V106.829H113.08V108.536C113.07 108.605 113.075 108.674 113.096 108.74C113.117 108.806 113.152 108.866 113.2 108.917C113.247 108.967 113.305 109.006 113.37 109.03C113.434 109.055 113.503 109.064 113.572 109.058C113.728 109.063 113.88 109.01 113.999 108.91L114.123 109.188Z" fill="#263238"/>
<path d="M119.458 105.555V109.36H119.126L116.684 106.272V109.36H116.281V105.555H116.613L119.061 108.643V105.555H119.458Z" fill="#263238"/>
<path d="M122.8 107.588V109.366H122.421V108.922C122.314 109.081 122.167 109.209 121.994 109.292C121.821 109.376 121.629 109.411 121.437 109.396C120.791 109.396 120.394 109.058 120.394 108.56C120.394 108.062 120.679 107.754 121.502 107.754H122.421V107.582C122.421 107.09 122.143 106.823 121.609 106.823C121.263 106.819 120.926 106.939 120.661 107.161L120.483 106.871C120.821 106.607 121.24 106.471 121.668 106.486C121.819 106.468 121.971 106.485 122.114 106.534C122.257 106.582 122.388 106.662 122.496 106.768C122.605 106.874 122.688 107.002 122.741 107.144C122.793 107.286 122.814 107.437 122.8 107.588ZM122.415 108.501V108.033H121.514C120.963 108.033 120.785 108.252 120.785 108.548C120.785 108.845 121.052 109.082 121.508 109.082C121.703 109.095 121.896 109.046 122.06 108.941C122.224 108.837 122.351 108.682 122.421 108.501H122.415Z" fill="#263238"/>
<path d="M128.568 107.701V109.36H128.182V107.742C128.182 107.149 127.874 106.829 127.358 106.829C127.225 106.823 127.091 106.846 126.967 106.897C126.844 106.948 126.732 107.025 126.641 107.123C126.551 107.221 126.482 107.338 126.441 107.466C126.4 107.593 126.388 107.728 126.404 107.861V109.36H126.019V107.742C126.019 107.149 125.711 106.829 125.189 106.829C125.055 106.823 124.922 106.846 124.798 106.897C124.674 106.948 124.563 107.025 124.472 107.123C124.381 107.221 124.313 107.338 124.272 107.466C124.231 107.593 124.218 107.728 124.235 107.861V109.36H123.85V106.503H124.199V107.025C124.311 106.85 124.467 106.708 124.651 106.612C124.835 106.517 125.041 106.471 125.248 106.48C125.459 106.462 125.669 106.51 125.851 106.616C126.033 106.722 126.179 106.881 126.268 107.072C126.385 106.881 126.551 106.726 126.749 106.621C126.948 106.517 127.17 106.468 127.394 106.48C127.556 106.464 127.72 106.485 127.873 106.541C128.026 106.598 128.164 106.688 128.277 106.806C128.39 106.923 128.474 107.065 128.525 107.22C128.575 107.375 128.59 107.539 128.568 107.701Z" fill="#263238"/>
<path d="M132.118 108.05H129.747C129.755 108.19 129.791 108.326 129.852 108.452C129.913 108.577 129.999 108.69 130.103 108.782C130.208 108.875 130.33 108.946 130.462 108.991C130.594 109.036 130.734 109.055 130.873 109.046C131.038 109.051 131.201 109.021 131.353 108.956C131.504 108.892 131.64 108.795 131.75 108.673L131.964 108.922C131.758 109.136 131.494 109.285 131.205 109.351C130.915 109.416 130.612 109.395 130.335 109.289C130.057 109.183 129.817 108.998 129.644 108.757C129.471 108.516 129.373 108.229 129.362 107.932C129.352 107.743 129.381 107.554 129.447 107.377C129.513 107.2 129.615 107.039 129.746 106.902C129.877 106.766 130.035 106.659 130.21 106.586C130.384 106.513 130.572 106.477 130.76 106.48C130.949 106.476 131.137 106.512 131.311 106.584C131.485 106.657 131.643 106.765 131.773 106.901C131.903 107.038 132.004 107.2 132.068 107.377C132.133 107.555 132.16 107.743 132.147 107.932C132.124 107.967 132.118 108.009 132.118 108.05ZM129.747 107.766H131.774C131.774 107.497 131.667 107.239 131.477 107.049C131.287 106.859 131.029 106.752 130.76 106.752C130.492 106.752 130.234 106.859 130.044 107.049C129.854 107.239 129.747 107.497 129.747 107.766Z" fill="#263238"/>
</g>
<path d="M176.903 82.9434H99.353V96.22H176.903V82.9434Z" fill="white"/>
<g opacity="0.4">
<path d="M104 87.768V89.2617H105.968V89.6113H104V91.2235H103.597V87.4183H106.205V87.768H104Z" fill="#263238"/>
<path d="M106.815 87.4598C106.814 87.403 106.83 87.3472 106.86 87.2996C106.891 87.2519 106.936 87.2145 106.988 87.1922C107.04 87.17 107.098 87.1638 107.154 87.1746C107.209 87.1854 107.26 87.2126 107.301 87.2528C107.341 87.2929 107.368 87.3441 107.379 87.3999C107.39 87.4556 107.383 87.5133 107.361 87.5655C107.339 87.6177 107.302 87.6621 107.254 87.6929C107.206 87.7237 107.15 87.7395 107.094 87.7384C107.02 87.7384 106.949 87.709 106.897 87.6568C106.844 87.6045 106.815 87.5337 106.815 87.4598ZM106.898 88.3666H107.283V91.2235H106.898V88.3666Z" fill="#263238"/>
<path d="M109.802 88.3429V88.7163H109.707C109.571 88.7097 109.435 88.7332 109.309 88.7853C109.183 88.8374 109.07 88.9167 108.978 89.0175C108.887 89.1183 108.818 89.2382 108.778 89.3685C108.738 89.4988 108.728 89.6364 108.747 89.7713V91.2294H108.362V88.3725H108.729V88.906C108.832 88.716 108.989 88.561 109.18 88.4607C109.371 88.3604 109.588 88.3194 109.802 88.3429Z" fill="#263238"/>
<path d="M110.123 90.8975L110.294 90.5893C110.591 90.804 110.948 90.9183 111.314 90.9153C111.859 90.9153 112.078 90.7256 112.078 90.447C112.078 89.7002 110.229 90.287 110.229 89.1549C110.229 88.6926 110.626 88.3429 111.355 88.3429C111.712 88.3352 112.063 88.4276 112.369 88.6096L112.197 88.9178C111.948 88.7532 111.654 88.6684 111.355 88.6748C110.84 88.6748 110.615 88.8764 110.615 89.149C110.615 89.9195 112.464 89.3387 112.464 90.4352C112.464 90.9271 112.031 91.2472 111.278 91.2472C110.865 91.2579 110.46 91.1353 110.123 90.8975Z" fill="#263238"/>
<path d="M114.716 91.0516C114.546 91.181 114.337 91.2498 114.123 91.2472C114.011 91.2603 113.897 91.248 113.79 91.211C113.683 91.1741 113.586 91.1134 113.506 91.0337C113.425 90.954 113.364 90.8571 113.326 90.7504C113.288 90.6437 113.275 90.5299 113.288 90.4174V88.6926H112.772V88.3666H113.288V87.7206H113.673V88.3488H114.538V88.6748H113.673V90.3759C113.663 90.4444 113.668 90.5143 113.689 90.5804C113.71 90.6465 113.745 90.7071 113.792 90.7577C113.84 90.8083 113.898 90.8477 113.962 90.8729C114.026 90.8982 114.096 90.9086 114.165 90.9034C114.32 90.9054 114.471 90.853 114.592 90.7552L114.716 91.0516Z" fill="#263238"/>
<path d="M120.05 87.4183V91.2235H119.719L117.277 88.1355V91.2235H116.874V87.4183H117.205L119.653 90.5063V87.4183H120.05Z" fill="#263238"/>
<path d="M123.387 89.4513V91.2294H123.014V90.7849C122.908 90.9432 122.761 91.0701 122.589 91.1525C122.417 91.2348 122.226 91.2696 122.036 91.2531C121.384 91.2531 120.987 90.9212 120.987 90.4233C120.987 89.9254 121.271 89.6172 122.095 89.6172H123.014V89.4394C123.014 88.9534 122.735 88.6867 122.202 88.6867C121.855 88.6821 121.519 88.802 121.254 89.0245L121.076 88.7341C121.414 88.471 121.833 88.3347 122.261 88.3488C122.411 88.3314 122.563 88.3477 122.706 88.3965C122.849 88.4454 122.979 88.5256 123.087 88.6313C123.195 88.737 123.278 88.8655 123.33 89.0073C123.382 89.1492 123.402 89.3009 123.387 89.4513ZM123.002 90.364V89.8958H122.101C121.55 89.8958 121.372 90.1151 121.372 90.4055C121.372 90.696 121.639 90.9449 122.095 90.9449C122.29 90.9584 122.484 90.9094 122.65 90.8049C122.815 90.7004 122.942 90.546 123.014 90.364H123.002Z" fill="#263238"/>
<path d="M129.154 89.5639V91.2235H128.769V89.6054C128.769 89.0127 128.461 88.6926 127.945 88.6926C127.811 88.6864 127.678 88.7095 127.554 88.7602C127.43 88.811 127.319 88.8882 127.228 88.9864C127.137 89.0846 127.069 89.2015 127.028 89.3289C126.987 89.4563 126.974 89.5911 126.991 89.7239V91.2235H126.605V89.6054C126.605 89.0127 126.297 88.6926 125.776 88.6926C125.642 88.6864 125.508 88.7095 125.385 88.7602C125.261 88.811 125.15 88.8882 125.059 88.9864C124.968 89.0846 124.899 89.2015 124.858 89.3289C124.817 89.4563 124.805 89.5911 124.821 89.7239V91.2235H124.436V88.3666H124.792V88.906C124.904 88.7313 125.059 88.5889 125.243 88.4932C125.427 88.3975 125.633 88.3519 125.841 88.3607C126.051 88.3435 126.261 88.391 126.444 88.497C126.626 88.603 126.771 88.7623 126.86 88.9534C126.976 88.7616 127.142 88.605 127.341 88.5005C127.539 88.3961 127.762 88.3478 127.986 88.3607C128.146 88.3463 128.308 88.3679 128.458 88.4238C128.609 88.4797 128.745 88.5685 128.857 88.6839C128.969 88.7992 129.054 88.938 129.105 89.0903C129.156 89.2426 129.173 89.4044 129.154 89.5639Z" fill="#263238"/>
<path d="M132.705 89.9136H130.334C130.342 90.053 130.378 90.1894 130.439 90.315C130.5 90.4405 130.586 90.5528 130.69 90.6453C130.795 90.7378 130.917 90.8088 131.049 90.8541C131.181 90.8994 131.321 90.9182 131.46 90.9093C131.625 90.9147 131.789 90.8835 131.941 90.8179C132.093 90.7523 132.228 90.654 132.337 90.53L132.551 90.7849C132.345 90.9994 132.081 91.1486 131.791 91.2139C131.502 91.2792 131.199 91.2577 130.922 91.1522C130.644 91.0466 130.404 90.8615 130.231 90.6202C130.058 90.3788 129.96 90.0918 129.949 89.795C129.939 89.6063 129.968 89.4175 130.034 89.2405C130.1 89.0634 130.202 88.9018 130.333 88.7657C130.464 88.6296 130.622 88.5218 130.796 88.4491C130.971 88.3764 131.158 88.3402 131.347 88.3429C131.536 88.3392 131.724 88.3748 131.898 88.4473C132.072 88.5199 132.229 88.6278 132.36 88.7643C132.49 88.9008 132.591 89.0629 132.655 89.2404C132.72 89.4178 132.747 89.6067 132.734 89.795C132.711 89.8247 132.705 89.8662 132.705 89.9136ZM130.334 89.6232H132.361C132.361 89.3544 132.254 89.0966 132.064 88.9065C131.874 88.7164 131.616 88.6096 131.347 88.6096C131.079 88.6096 130.821 88.7164 130.631 88.9065C130.441 89.0966 130.334 89.3544 130.334 89.6232Z" fill="#263238"/>
</g>
<path d="M70.1739 195.759H69.6108C69.6108 194.923 70.3043 175.34 73.7124 172.051C77.2153 168.643 81.3346 172.003 81.3701 172.051L81.0145 172.478C80.8604 172.353 77.239 169.413 74.0976 172.478C70.8555 175.566 70.1798 195.558 70.1739 195.759Z" fill="#6159E4"/>
<path d="M69.8896 199.689L69.3325 199.635C69.3325 199.398 71.5373 175.856 63.0083 166.064L63.4291 165.697C72.1182 175.672 69.9133 199.452 69.8896 199.689Z" fill="#6159E4"/>
<path d="M70.1621 197.176C70.091 196.061 68.4492 169.911 75.0045 163.866L75.3838 164.281C69.0241 170.125 70.7015 196.879 70.7192 197.134L70.1621 197.176Z" fill="#6159E4"/>
<path d="M69.3321 197.158C69.3321 196.98 69.1306 179.377 64.466 176.727C64.0695 176.466 63.6158 176.303 63.1434 176.254C62.671 176.204 62.1936 176.269 61.7514 176.443C59.019 177.575 57.5669 182.791 57.5491 182.844L57.0098 182.696C57.069 182.471 58.5508 177.166 61.538 175.927C62.0585 175.718 62.6216 175.637 63.1797 175.692C63.7379 175.747 64.2746 175.935 64.7446 176.241C69.6818 179.068 69.8893 196.393 69.8952 197.152L69.3321 197.158Z" fill="#6159E4"/>
<path d="M71.2525 197.17C71.2169 196.577 70.4998 183.277 74.2753 178.339C75.2829 177.03 76.3972 176.407 77.6063 176.496C80.2913 176.68 82.348 180.319 82.4606 180.473L81.9746 180.752C81.9746 180.716 79.9475 177.196 77.5648 177.053C76.5632 176.976 75.603 177.527 74.7198 178.683C71.0688 183.425 71.8037 197.004 71.8097 197.14L71.2525 197.17Z" fill="#6159E4"/>
<path d="M70.5 199.013L69.9429 198.972C69.9429 198.651 72.3137 166.894 68.4019 161.595L68.8523 161.264C72.8946 166.728 70.6008 197.697 70.5 199.013Z" fill="#6159E4"/>
<path d="M60.4535 179.086C60.4535 179.086 62.8717 179.981 62.1545 182.085C61.4374 184.189 53.7796 187.657 53.7796 187.657C53.7796 187.657 50.573 184.723 53.5188 179.952C56.4645 175.18 60.3883 177.581 60.4535 179.086Z" fill="#6159E4"/>
<path opacity="0.2" d="M60.4535 179.086C60.4535 179.086 62.8717 179.981 62.1545 182.085C61.4374 184.189 53.7796 187.657 53.7796 187.657C53.7796 187.657 50.573 184.723 53.5188 179.952C56.4645 175.18 60.3883 177.581 60.4535 179.086Z" fill="black"/>
<path d="M70.9739 175.08C70.9739 175.08 68.3956 174.973 68.2475 177.19C68.0993 179.406 73.8189 185.559 73.8189 185.559C73.8189 185.559 77.9086 184.077 77.0314 178.535C76.1542 172.993 71.614 173.71 70.9739 175.08Z" fill="#6159E4"/>
<path opacity="0.2" d="M70.9739 175.08C70.9739 175.08 68.3956 174.973 68.2475 177.19C68.0993 179.406 73.8189 185.559 73.8189 185.559C73.8189 185.559 77.9086 184.077 77.0314 178.535C76.1542 172.993 71.614 173.71 70.9739 175.08Z" fill="black"/>
<path d="M73.1552 164.446C73.1552 164.446 71.4363 164.263 71.5726 163.22C71.709 162.176 78.2524 159.48 82.111 163.812C82.111 163.812 79.6394 168.056 76.0713 168.115C72.5032 168.175 73.1552 164.446 73.1552 164.446Z" fill="#6159E4"/>
<path opacity="0.2" d="M73.1552 164.446C73.1552 164.446 71.4363 164.263 71.5726 163.22C71.709 162.176 78.2524 159.48 82.111 163.812C82.111 163.812 79.6394 168.056 76.0713 168.115C72.5032 168.175 73.1552 164.446 73.1552 164.446Z" fill="black"/>
<path d="M69.9544 161.904C69.9544 161.904 71.5073 162.656 71.9459 161.696C72.3845 160.736 68.2534 154.993 62.676 156.646C62.676 156.646 62.5278 161.554 65.5269 163.492C68.526 165.43 69.9544 161.904 69.9544 161.904Z" fill="#6159E4"/>
<path opacity="0.2" d="M69.9544 161.904C69.9544 161.904 71.5073 162.656 71.9459 161.696C72.3845 160.736 68.2534 154.993 62.676 156.646C62.676 156.646 62.5278 161.554 65.5269 163.492C68.526 165.43 69.9544 161.904 69.9544 161.904Z" fill="black"/>
<path d="M78.0865 178.245C78.0865 178.245 76.901 177.284 78.1813 176.816C79.4615 176.348 85.7383 176.484 85.8035 182.702C85.8035 182.702 78.4895 183.917 77.5886 181.546C76.6877 179.175 78.0865 178.245 78.0865 178.245Z" fill="#6159E4"/>
<path opacity="0.2" d="M78.0865 178.245C78.0865 178.245 76.901 177.284 78.1813 176.816C79.4615 176.348 85.7383 176.484 85.8035 182.702C85.8035 182.702 78.4895 183.917 77.5886 181.546C76.6877 179.175 78.0865 178.245 78.0865 178.245Z" fill="black"/>
<path d="M63.1501 164.292C63.1501 164.292 64.3356 163.332 63.0553 162.87C61.7751 162.407 55.4983 162.532 55.4331 168.749C55.4331 168.749 62.7471 169.97 63.648 167.6C64.5489 165.229 63.1501 164.292 63.1501 164.292Z" fill="#6159E4"/>
<path opacity="0.2" d="M63.1501 164.292C63.1501 164.292 64.3356 163.332 63.0553 162.87C61.7751 162.407 55.4983 162.532 55.4331 168.749C55.4331 168.749 62.7471 169.97 63.648 167.6C64.5489 165.229 63.1501 164.292 63.1501 164.292Z" fill="black"/>
<path d="M67.0387 169.301C67.0387 169.301 67.1454 168.115 66.203 168.595C65.2606 169.075 61.9947 172.584 65.385 175.933C65.385 175.933 69.9548 172.549 69.1309 170.788C68.3071 169.028 67.0387 169.301 67.0387 169.301Z" fill="#6159E4"/>
<path opacity="0.2" d="M67.0387 169.301C67.0387 169.301 67.1454 168.115 66.203 168.595C65.2606 169.075 61.9947 172.584 65.385 175.933C65.385 175.933 69.9548 172.549 69.1309 170.788C68.3071 169.028 67.0387 169.301 67.0387 169.301Z" fill="black"/>
<path d="M79.1535 170.96C79.1535 170.96 78.4423 170.03 79.4854 169.917C80.5286 169.804 85.1754 171.043 84.0908 175.69C84.0908 175.69 78.4245 175.263 78.1637 173.319C77.9029 171.375 79.1535 170.96 79.1535 170.96Z" fill="#6159E4"/>
<path opacity="0.2" d="M79.1535 170.96C79.1535 170.96 78.4423 170.03 79.4854 169.917C80.5286 169.804 85.1754 171.043 84.0908 175.69C84.0908 175.69 78.4245 175.263 78.1637 173.319C77.9029 171.375 79.1535 170.96 79.1535 170.96Z" fill="black"/>
<path d="M60.8745 214.394H79.1951L81.6311 196.577H58.4385L60.8745 214.394Z" fill="#263238"/>
<path opacity="0.2" d="M60.8745 214.394H79.1951L81.6311 196.577H58.4385L60.8745 214.394Z" fill="white"/>
<path d="M83.9308 195.131V196.826C83.9308 197.37 83.7147 197.892 83.3302 198.276C82.9456 198.661 82.4239 198.877 81.8801 198.877H57.9643C57.4204 198.877 56.8988 198.661 56.5142 198.276C56.1296 197.892 55.9136 197.37 55.9136 196.826V195.131H83.9308Z" fill="#263238"/>
<path d="M236.588 26.2628H219.559C218.17 26.2628 216.837 26.8148 215.854 27.7974C214.872 28.78 214.32 30.1127 214.32 31.5023V46.32C214.319 47.0086 214.454 47.6905 214.717 48.3269C214.98 48.9633 215.366 49.5416 215.852 50.0287C216.339 50.5159 216.917 50.9024 217.553 51.1661C218.189 51.4297 218.871 51.5655 219.559 51.5655H224.532L223.347 56.2419L228.088 51.5655H236.617C238.009 51.5655 239.343 51.0128 240.327 50.0291C241.31 49.0454 241.863 47.7112 241.863 46.32V31.5023C241.863 30.8113 241.726 30.127 241.461 29.489C241.195 28.851 240.806 28.2718 240.316 27.7848C239.825 27.2978 239.244 26.9126 238.604 26.6514C237.964 26.3902 237.279 26.2581 236.588 26.2628Z" fill="#6159E4"/>
<path opacity="0.7" d="M236.588 26.2628H219.559C218.17 26.2628 216.837 26.8148 215.854 27.7974C214.872 28.78 214.32 30.1127 214.32 31.5023V46.32C214.319 47.0086 214.454 47.6905 214.717 48.3269C214.98 48.9633 215.366 49.5416 215.852 50.0287C216.339 50.5159 216.917 50.9024 217.553 51.1661C218.189 51.4297 218.871 51.5655 219.559 51.5655H224.532L223.347 56.2419L228.088 51.5655H236.617C238.009 51.5655 239.343 51.0128 240.327 50.0291C241.31 49.0454 241.863 47.7112 241.863 46.32V31.5023C241.863 30.8113 241.726 30.127 241.461 29.489C241.195 28.851 240.806 28.2718 240.316 27.7848C239.825 27.2978 239.244 26.9126 238.604 26.6514C237.964 26.3902 237.279 26.2581 236.588 26.2628Z" fill="white"/>
<path d="M228.076 45.4606C231.726 45.4606 234.685 42.5018 234.685 38.8519C234.685 35.202 231.726 32.2432 228.076 32.2432C224.427 32.2432 221.468 35.202 221.468 38.8519C221.468 42.5018 224.427 45.4606 228.076 45.4606Z" fill="white"/>
<path d="M228.077 30.3999C226.405 30.3999 224.771 30.8956 223.381 31.8243C221.991 32.753 220.908 34.0731 220.268 35.6175C219.628 37.1619 219.461 38.8613 219.787 40.5008C220.113 42.1403 220.918 43.6463 222.1 44.8284C223.282 46.0104 224.788 46.8154 226.428 47.1415C228.067 47.4676 229.767 47.3002 231.311 46.6605C232.855 46.0208 234.175 44.9375 235.104 43.5476C236.033 42.1577 236.529 40.5235 236.529 38.8519C236.529 37.7418 236.311 36.6423 235.887 35.6165C235.462 34.5907 234.84 33.6587 234.055 32.8737C233.27 32.0887 232.338 31.4662 231.312 31.0417C230.286 30.6172 229.187 30.3991 228.077 30.3999ZM232.872 36.327L227.78 42.3252C227.708 42.4118 227.617 42.4813 227.515 42.5284C227.412 42.5756 227.3 42.5993 227.187 42.5978C227.075 42.5985 226.963 42.5744 226.861 42.5273C226.758 42.4802 226.668 42.4112 226.595 42.3252L223.282 38.4192C223.212 38.342 223.158 38.2515 223.124 38.153C223.089 38.0546 223.075 37.9502 223.082 37.8462C223.089 37.7422 223.117 37.6407 223.164 37.5476C223.211 37.4546 223.276 37.372 223.356 37.3047C223.435 37.2374 223.528 37.1869 223.627 37.156C223.727 37.1252 223.832 37.1148 223.935 37.1253C224.039 37.1358 224.139 37.1671 224.231 37.2173C224.322 37.2675 224.402 37.3356 224.467 37.4175L227.187 40.6241L231.686 35.3253C231.821 35.1762 232.009 35.0854 232.21 35.072C232.411 35.0587 232.609 35.1238 232.763 35.2537C232.916 35.3836 233.014 35.5681 233.034 35.7683C233.054 35.9685 232.996 36.1688 232.872 36.327Z" fill="#6159E4"/>
<path d="M233.636 117.688C233.636 117.688 223.317 116.384 207.681 120.651C207.681 120.651 205.168 92.7112 205.465 88.8704C205.761 85.0297 229.606 86.1558 229.606 86.1558C229.606 86.1558 230.198 97.3402 231.751 104.085C233.304 110.83 234.442 116.39 233.636 117.688Z" fill="#6159E4"/>
<path opacity="0.2" d="M233.636 117.688C233.636 117.688 223.317 116.384 207.681 120.651C207.681 120.651 205.168 92.7112 205.465 88.8704C205.761 85.0297 229.606 86.1558 229.606 86.1558C229.606 86.1558 230.198 97.3402 231.751 104.085C233.304 110.83 234.442 116.39 233.636 117.688Z" fill="black"/>
<path d="M200.142 210.186L204.35 211.377L205.352 204.828L205.891 201.325L201.683 200.133L200.966 204.828L200.142 210.186Z" fill="#E4897B"/>
<path d="M224.336 210.529L228.675 211.104L228.717 204.828L228.746 200.928L224.402 200.359L224.372 204.828L224.336 210.529Z" fill="#E4897B"/>
<path opacity="0.2" d="M224.402 200.359L224.372 204.828H228.717L228.746 200.928L224.402 200.359Z" fill="black"/>
<path opacity="0.2" d="M200.966 204.828H205.352L205.891 201.325L201.683 200.133L200.966 204.828Z" fill="black"/>
<path d="M181.46 91.1642L177.281 89.9313L178.046 94.7026C178.046 94.7026 181.839 95.5739 182.195 93.6002L181.46 91.1642Z" fill="#E4897B"/>
<path d="M173.109 91.0397L175.16 94.916L178.046 94.7026L177.282 89.9313L173.109 91.0397Z" fill="#E4897B"/>
<path d="M187.227 92.3851L180.364 90.85L179.741 94.181L185.971 95.6984L187.227 92.3851Z" fill="#E4897B"/>
<path d="M207.99 89.3742L207.587 89.8543C206.721 90.8678 204.623 93.3157 202.436 95.4257C200.658 97.1446 198.88 98.6441 197.694 98.9464C194.334 99.8118 182.118 96.214 182.118 96.214L183.381 91.259C183.381 91.259 194.761 92.7704 195.644 92.7704C196.313 92.7704 203.236 82.7418 204.914 81.918L207.99 89.3742Z" fill="#6159E4"/>
<path opacity="0.2" d="M207.587 89.8543C206.721 90.8678 204.623 93.3157 202.436 95.4257C202.875 91.9525 204.149 88.7637 205.826 86.7485C205.983 86.554 206.162 86.3789 206.36 86.2269L207.587 89.8543Z" fill="black"/>
<path d="M200.195 209.528L204.973 209.403C205.059 209.401 205.143 209.427 205.212 209.479C205.281 209.531 205.33 209.604 205.352 209.688L206.359 213.534C206.384 213.627 206.387 213.723 206.368 213.816C206.35 213.91 206.311 213.998 206.254 214.074C206.197 214.15 206.124 214.213 206.039 214.257C205.955 214.301 205.862 214.326 205.767 214.329C204.042 214.329 201.547 214.329 199.383 214.37C196.847 214.441 195.234 214.317 192.271 214.37C190.493 214.418 189.9 212.628 190.659 212.444C194.055 211.602 196.278 211.768 199.17 209.872C199.475 209.668 199.829 209.549 200.195 209.528Z" fill="#263238"/>
<path d="M199.781 210.144C199.081 210.298 197.837 210.506 197.339 210.097C197.266 210.037 197.209 209.96 197.172 209.874C197.135 209.787 197.119 209.693 197.125 209.599C197.125 209.542 197.14 209.487 197.168 209.438C197.196 209.389 197.237 209.348 197.285 209.32C197.813 209.006 199.597 209.854 199.804 209.949C199.823 209.958 199.838 209.973 199.848 209.991C199.859 210.008 199.864 210.029 199.864 210.049C199.863 210.072 199.854 210.094 199.839 210.111C199.824 210.129 199.803 210.14 199.781 210.144ZM197.41 209.486H197.374C197.355 209.498 197.338 209.514 197.327 209.534C197.315 209.554 197.309 209.576 197.309 209.599C197.304 209.66 197.314 209.722 197.338 209.778C197.361 209.835 197.398 209.885 197.446 209.925C197.724 210.156 198.447 210.18 199.407 209.99C198.714 209.7 197.748 209.362 197.422 209.486H197.41Z" fill="#6159E4"/>
<path d="M199.781 210.144H199.71C199.17 209.919 198.092 209.006 198.151 208.514C198.151 208.396 198.246 208.248 198.53 208.212C198.635 208.198 198.741 208.205 198.842 208.233C198.944 208.26 199.039 208.308 199.123 208.372C199.716 208.817 199.852 209.984 199.864 210.032C199.865 210.05 199.862 210.068 199.855 210.084C199.848 210.101 199.837 210.115 199.822 210.126L199.781 210.144ZM198.453 208.443C198.364 208.473 198.358 208.52 198.358 208.538C198.323 208.834 199.058 209.557 199.609 209.866C199.545 209.368 199.325 208.903 198.981 208.538C198.922 208.489 198.854 208.453 198.78 208.432C198.706 208.412 198.629 208.407 198.554 208.419C198.519 208.422 198.485 208.43 198.453 208.443Z" fill="#6159E4"/>
<path d="M224.508 209.528L229.286 209.403C229.372 209.4 229.458 209.427 229.528 209.478C229.598 209.53 229.648 209.604 229.671 209.688L230.673 213.534C230.698 213.627 230.702 213.723 230.684 213.817C230.666 213.911 230.627 214 230.57 214.076C230.513 214.153 230.439 214.215 230.354 214.259C230.269 214.303 230.175 214.327 230.08 214.329C228.355 214.329 225.86 214.329 223.69 214.37C221.16 214.441 219.541 214.317 216.578 214.37C214.8 214.417 214.207 212.628 214.966 212.444C218.362 211.602 220.579 211.768 223.471 209.871C223.78 209.666 224.138 209.547 224.508 209.528Z" fill="#263238"/>
<path d="M224.099 210.144C223.4 210.298 222.149 210.506 221.657 210.097C221.585 210.037 221.527 209.96 221.49 209.874C221.453 209.787 221.437 209.693 221.444 209.599C221.444 209.542 221.458 209.487 221.486 209.438C221.514 209.389 221.555 209.348 221.604 209.32C222.125 209.006 223.915 209.854 224.117 209.949C224.137 209.956 224.153 209.97 224.164 209.989C224.175 210.007 224.179 210.028 224.176 210.049C224.175 210.071 224.166 210.092 224.153 210.109C224.139 210.126 224.12 210.138 224.099 210.144ZM221.728 209.486H221.693C221.673 209.497 221.657 209.514 221.647 209.534C221.636 209.554 221.632 209.576 221.633 209.599C221.628 209.66 221.637 209.722 221.661 209.779C221.684 209.836 221.722 209.886 221.77 209.925C222.048 210.156 222.766 210.18 223.732 209.99C223.026 209.7 222.06 209.362 221.734 209.486H221.728Z" fill="#6159E4"/>
<path d="M224.1 210.144H224.023C223.489 209.919 222.404 209.006 222.47 208.514C222.47 208.396 222.559 208.247 222.843 208.212C222.947 208.198 223.054 208.204 223.156 208.232C223.257 208.259 223.353 208.307 223.436 208.372C223.85 208.834 224.11 209.414 224.177 210.031C224.18 210.05 224.177 210.068 224.17 210.085C224.163 210.102 224.15 210.116 224.135 210.126L224.1 210.144ZM222.766 208.443C222.683 208.473 222.677 208.52 222.677 208.538C222.636 208.834 223.376 209.557 223.928 209.866C223.86 209.369 223.64 208.905 223.299 208.538C223.241 208.489 223.172 208.453 223.099 208.433C223.025 208.412 222.948 208.408 222.873 208.419L222.766 208.443Z" fill="#6159E4"/>
<path d="M233.286 115.139C235.586 125.103 231.639 203.488 231.639 203.488H224.016L220.757 138.166L208.754 203.488L200.604 202.895C205.939 152.29 210.639 122.08 210.639 122.08V118.263L233.286 115.139Z" fill="#263238"/>
<path opacity="0.4" d="M200.604 202.895L208.754 203.488L218.202 152.065L220.757 138.166L224.016 203.488H231.639C231.639 203.488 235.586 125.103 233.286 115.139L210.627 118.263V122.08C210.627 122.08 205.933 152.29 200.604 202.895Z" fill="white"/>
<path d="M229.179 78.2373C228.945 83.0011 229.066 87.7756 229.541 92.5215C229.861 95.8407 230.299 98.9761 230.767 101.803C231.864 108.436 233.109 113.408 233.286 115.145L210.627 118.269C202.365 95.1531 205.477 81.7224 205.477 81.7224C207.171 81.0228 208.907 80.429 210.675 79.9443C211.048 79.8435 211.427 79.7487 211.819 79.6598C215.001 79.0335 218.217 78.5902 221.45 78.3321C222.043 78.2788 222.689 78.2373 223.293 78.2076C226.387 78.0535 229.179 78.2373 229.179 78.2373Z" fill="#263238"/>
<path d="M217.052 67.8353C217.218 71.0062 217.556 76.957 220.193 78.4684C220.193 78.4684 218.552 81.592 215.001 81.912C212.316 82.1491 212.494 79.4997 212.494 79.4997C214.047 78.344 213.68 76.3821 212.494 74.1654L217.052 67.8353Z" fill="#E4897B"/>
<path opacity="0.2" d="M215.191 70.4194L212.512 74.1653C212.794 74.6776 213.032 75.213 213.223 75.7656C214.468 75.2678 215.896 73.3948 215.689 72.0375C215.624 71.4721 215.455 70.9236 215.191 70.4194Z" fill="black"/>
<path d="M205.494 61.4518C204.979 63.0995 205.263 66.478 207.557 65.3815C209.851 64.2849 206.383 58.6246 205.494 61.4518Z" fill="#263238"/>
<path d="M217.348 63.6804C217.603 67.9064 217.941 70.3661 216.098 72.7607C213.294 76.3584 207.865 75.0189 206.348 70.9411C204.985 67.2663 204.801 60.9717 208.719 58.838C209.587 58.3655 210.561 58.121 211.55 58.1275C212.538 58.134 213.509 58.3911 214.371 58.8749C215.234 59.3587 215.959 60.0533 216.48 60.8938C217 61.7342 217.299 62.693 217.348 63.6804Z" fill="#E4897B"/>
<path d="M214.385 61.3807V56.639C214.385 56.639 219.411 56.2656 219.186 58.838C221.971 60.219 220.656 64.5517 216.916 66.6735C214.865 65.0318 215.102 61.0843 215.102 61.0843C214.883 61.1969 214.634 61.2918 214.385 61.3807Z" fill="#263238"/>
<path d="M219.393 66.9759C219.296 67.4928 219.097 67.9852 218.807 68.4239C218.517 68.8626 218.142 69.2389 217.704 69.5304C216.519 70.3069 215.493 69.3526 215.452 68.019C215.416 66.8336 215.979 64.9607 217.343 64.7236C217.641 64.6771 217.946 64.7052 218.23 64.8055C218.515 64.9058 218.77 65.0751 218.974 65.2983C219.177 65.5214 219.321 65.7914 219.395 66.0842C219.468 66.377 219.467 66.6833 219.393 66.9759Z" fill="#E4897B"/>
<path d="M211.107 65.5652C211.149 65.909 211 66.2053 210.775 66.2291C210.55 66.2528 210.337 65.9979 210.295 65.6363C210.254 65.2748 210.402 64.9962 210.621 64.9725C210.84 64.9488 211.066 65.1977 211.107 65.5652Z" fill="#263238"/>
<path d="M207.231 65.9979C207.273 66.3417 207.124 66.638 206.899 66.6617C206.674 66.6854 206.461 66.4306 206.419 66.069C206.378 65.7075 206.526 65.4289 206.751 65.4052C206.976 65.3815 207.178 65.6541 207.231 65.9979Z" fill="#263238"/>
<path d="M208.481 66.0275C208.182 67.0874 207.737 68.1006 207.16 69.0385C207.415 69.1699 207.696 69.2457 207.983 69.261C208.27 69.2763 208.557 69.2308 208.825 69.1274L208.481 66.0275Z" fill="#DE5753"/>
<path d="M210.823 70.2298C210.676 70.2671 210.528 70.2948 210.378 70.3128C210.351 70.3128 210.326 70.3021 210.307 70.2833C210.288 70.2644 210.277 70.2387 210.277 70.212C210.277 70.1853 210.288 70.1597 210.307 70.1408C210.326 70.1219 210.351 70.1112 210.378 70.1112C210.804 70.0726 211.214 69.9345 211.577 69.708C211.939 69.4815 212.243 69.1729 212.464 68.8073C212.47 68.7953 212.477 68.7845 212.486 68.7755C212.496 68.7666 212.507 68.7597 212.519 68.7552C212.532 68.7508 212.545 68.7489 212.558 68.7497C212.571 68.7505 212.583 68.754 212.595 68.7599C212.607 68.7656 212.618 68.7737 212.627 68.7836C212.636 68.7936 212.643 68.8053 212.647 68.818C212.652 68.8307 212.654 68.8442 212.653 68.8576C212.652 68.871 212.648 68.8842 212.642 68.8962C212.448 69.2328 212.186 69.5253 211.873 69.755C211.56 69.9846 211.202 70.1463 210.823 70.2298Z" fill="#263238"/>
<path d="M212.15 64.1842C212.115 64.1925 212.077 64.1915 212.042 64.1811C212.007 64.1707 211.975 64.1514 211.949 64.1249C211.777 63.9369 211.564 63.7913 211.327 63.6997C211.089 63.6082 210.833 63.5732 210.58 63.5974C210.554 63.6034 210.527 63.604 210.5 63.5991C210.474 63.5942 210.449 63.5839 210.426 63.5689C210.404 63.5539 210.385 63.5345 210.371 63.5119C210.356 63.4892 210.347 63.4639 210.343 63.4374C210.338 63.4113 210.338 63.3845 210.343 63.3584C210.348 63.3323 210.358 63.3076 210.373 63.2855C210.388 63.2635 210.407 63.2446 210.43 63.23C210.452 63.2154 210.477 63.2053 210.503 63.2003C210.823 63.1622 211.147 63.2009 211.449 63.3133C211.751 63.4257 212.022 63.6084 212.239 63.8464C212.259 63.8646 212.274 63.8867 212.285 63.9112C212.295 63.9356 212.301 63.962 212.301 63.9886C212.301 64.0153 212.295 64.0416 212.285 64.0661C212.274 64.0905 212.259 64.1126 212.239 64.1309C212.214 64.155 212.184 64.1732 212.15 64.1842Z" fill="#263238"/>
<path d="M205.4 64.8539C205.361 64.8685 205.319 64.8685 205.281 64.8539C205.231 64.8364 205.19 64.7998 205.166 64.7521C205.143 64.7044 205.14 64.6494 205.157 64.5991C205.255 64.294 205.425 64.0172 205.653 63.7922C205.881 63.5672 206.16 63.4007 206.467 63.307C206.518 63.2936 206.573 63.3014 206.62 63.3287C206.666 63.3559 206.699 63.4003 206.712 63.4522C206.726 63.5041 206.718 63.5591 206.691 63.6053C206.664 63.6514 206.619 63.6848 206.567 63.6982C206.325 63.7729 206.105 63.906 205.926 64.0858C205.747 64.2657 205.615 64.4867 205.542 64.7295C205.531 64.7606 205.512 64.7883 205.487 64.81C205.462 64.8318 205.432 64.8469 205.4 64.8539Z" fill="#263238"/>
<path d="M216.614 63.1351C216.614 63.1351 213.65 62.0504 212.299 60.3316C212.299 60.3316 209.608 61.0369 209.057 62.1097C208.805 61.8943 208.642 61.5934 208.6 61.265C208.557 60.9367 208.637 60.6041 208.825 60.3316C208.825 60.3316 206.81 60.7583 206.413 62.1097C206.086 61.9538 205.817 61.6969 205.646 61.3769C205.475 61.0568 205.412 60.6904 205.465 60.3316C205.465 60.3316 204.57 60.6694 204.279 62.1097C204.279 62.1097 202.057 57.4747 209.4 56.1471C208.845 55.9585 208.262 55.8604 207.676 55.8567C207.676 55.8567 212.803 53.7881 216.863 55.6788C220.923 57.5696 220.217 61.2325 216.614 63.1351Z" fill="#263238"/>
<path d="M235.035 119.134L227.922 120.082C227.922 120.082 224.988 99.5806 223.696 92.9601V78.83L227.413 77.852L230.293 78.83C231.083 81.6728 231.691 84.5632 232.113 87.4835C232.462 89.7002 232.777 92.071 233.055 94.4715C233.44 97.7432 233.76 101.074 234.033 104.192C234.46 109.224 234.744 113.675 234.898 116.396C234.987 118.103 235.035 119.134 235.035 119.134Z" fill="#6159E4"/>
<path d="M223.702 92.9483C223.702 92.9483 224.295 82.973 227.418 77.8283C227.418 77.8283 227.341 76.3584 226.719 76.1213C226.097 75.8842 223.702 77.3067 223.702 77.3067C223.702 77.3067 222.214 76.2873 221.888 76.7614C221.562 77.2356 220.768 80.3888 223.702 92.9483Z" fill="#6159E4"/>
<path opacity="0.7" d="M223.702 92.9483C223.702 92.9483 224.295 82.973 227.418 77.8283C227.418 77.8283 227.341 76.3584 226.719 76.1213C226.097 75.8842 223.702 77.3067 223.702 77.3067C223.702 77.3067 222.214 76.2873 221.888 76.7614C221.562 77.2356 220.768 80.3888 223.702 92.9483Z" fill="white"/>
<path d="M207.533 121.866L208.345 122.459C208.345 122.459 207.16 115.85 207.646 99.1361C207.646 98.33 207.699 97.5536 207.729 96.8127C208.321 82.6707 210.526 80.0984 210.692 79.9443L208.642 80.6437L204.925 81.9239C203.805 93.9855 207.533 121.866 207.533 121.866Z" fill="#6159E4"/>
<path d="M207.853 94.3767C207.853 94.3767 205.802 84.68 206.413 81.3371C207.023 77.9943 209.21 79.482 209.21 79.482C209.21 79.482 211.22 77.8579 211.818 79.6479C211.818 79.6479 209.056 81.592 207.853 94.3767Z" fill="#6159E4"/>
<path opacity="0.7" d="M207.853 94.3767C207.853 94.3767 205.802 84.68 206.413 81.3371C207.023 77.9943 209.21 79.482 209.21 79.482C209.21 79.482 211.22 77.8579 211.818 79.6479C211.818 79.6479 209.056 81.592 207.853 94.3767Z" fill="white"/>
<path opacity="0.2" d="M233.043 94.4478C230.009 92.7467 229.605 88.3074 229.605 88.3074C229.789 88.2362 230.915 87.851 232.101 87.4598C232.45 89.6765 232.765 92.0473 233.043 94.4478Z" fill="black"/>
<path opacity="0.2" d="M218.202 152.065L220.757 138.166L220.265 130.81C220.265 130.81 216.762 143.565 218.202 152.065Z" fill="black"/>
<path opacity="0.2" d="M234.887 116.372C232.978 116.242 231.33 116.117 231.33 116.117L230.969 108.359C231.564 107.986 232.278 107.855 232.966 107.991C233.435 106.752 233.79 105.472 234.027 104.168C234.442 109.2 234.732 113.657 234.887 116.372Z" fill="black"/>
<path d="M235.539 104.162L231.822 110.131L234.762 111.82L238.253 106.444L235.539 104.162Z" fill="#E4897B"/>
<path d="M230.133 78.7351C232.634 79.0078 243.267 93.6002 243.736 97.9981C244.204 102.396 237.489 109.989 237.489 109.989L233.008 107.351C233.008 107.351 237.56 100.351 237.797 98.4604C238.034 96.5696 229.469 88.9297 229.469 88.9297C228.822 87.1697 228.465 85.3159 228.414 83.4412C228.296 80.2287 230.133 78.7351 230.133 78.7351Z" fill="#6159E4"/>
<path d="M230.963 108.365C230.963 108.365 234.786 109.182 236.327 111.589C236.327 111.589 234.726 116.597 233.583 117.143C232.439 117.688 229.605 117.688 229.605 117.688C229.605 117.688 229.422 112.116 230.963 108.365Z" fill="#6159E4"/>
</svg>
