<svg width="144" height="144" viewBox="0 0 144 144" fill="none" xmlns="http://www.w3.org/2000/svg">
<rect width="144" height="144" fill="#D6D5DA"/>
<path fill-rule="evenodd" clip-rule="evenodd" d="M72.4998 118.584C98.504 118.584 119.583 97.5044 119.583 71.5003C119.583 45.4962 98.504 24.417 72.4998 24.417C46.4957 24.417 25.4165 45.4962 25.4165 71.5003C25.4165 97.5044 46.4957 118.584 72.4998 118.584ZM86.6248 62.0837C86.6248 65.8298 85.1367 69.4226 82.4877 72.0715C79.8388 74.7205 76.246 76.2087 72.4998 76.2087C68.7537 76.2087 65.1609 74.7205 62.5119 72.0715C59.863 69.4226 58.3748 65.8298 58.3748 62.0837C58.3748 58.3375 59.863 54.7447 62.5119 52.0958C65.1609 49.4468 68.7537 47.9587 72.4998 47.9587C76.246 47.9587 79.8388 49.4468 82.4877 52.0958C85.1367 54.7447 86.6248 58.3375 86.6248 62.0837V62.0837ZM44.2498 95.042C47.5363 90.6533 51.8009 87.0915 56.7049 84.6396C61.6088 82.1876 67.017 80.913 72.4998 80.917C77.9826 80.913 83.3908 82.1876 88.2948 84.6396C93.1988 87.0915 97.4634 90.6533 100.75 95.042C97.4634 99.4306 93.1988 102.992 88.2948 105.444C83.3908 107.896 77.9826 109.171 72.4998 109.167C67.017 109.171 61.6088 107.896 56.7049 105.444C51.8009 102.992 47.5363 99.4306 44.2498 95.042V95.042Z" fill="white"/>
</svg>
