<svg width="18" height="17" viewBox="0 0 18 17" fill="none" xmlns="http://www.w3.org/2000/svg">
<path d="M11.0417 13.8333L8.99999 16.75L6.95832 13.8333H1.49999C1.27898 13.8333 1.06701 13.7455 0.910734 13.5893C0.754454 13.433 0.666656 13.221 0.666656 13V1.33333C0.666656 1.11232 0.754454 0.900358 0.910734 0.744078C1.06701 0.587797 1.27898 0.5 1.49999 0.5H16.5C16.721 0.5 16.933 0.587797 17.0892 0.744078C17.2455 0.900358 17.3333 1.11232 17.3333 1.33333V13C17.3333 13.221 17.2455 13.433 17.0892 13.5893C16.933 13.7455 16.721 13.8333 16.5 13.8333H11.0417ZM10.1742 12.1667H15.6667V2.16667H2.33332V12.1667H7.82582L8.99999 13.8433L10.1742 12.1667V12.1667Z" fill="#292929"/>
</svg>
