<svg width="20" height="20" viewBox="0 0 20 20" fill="none" xmlns="http://www.w3.org/2000/svg">
<path d="M12.1667 6.66667H17.5C17.942 6.66667 18.366 6.84227 18.6785 7.15483C18.9911 7.46739 19.1667 7.89131 19.1667 8.33334V10.0867C19.1669 10.3045 19.1244 10.5202 19.0417 10.7217L16.4625 16.9842C16.3996 17.1369 16.2927 17.2674 16.1555 17.3592C16.0182 17.4511 15.8568 17.5001 15.6917 17.5H1.66668C1.44566 17.5 1.2337 17.4122 1.07742 17.2559C0.921141 17.0997 0.833344 16.8877 0.833344 16.6667V8.33334C0.833344 8.11233 0.921141 7.90036 1.07742 7.74408C1.2337 7.5878 1.44566 7.50001 1.66668 7.50001H4.56834C4.70176 7.50004 4.83323 7.46804 4.9517 7.4067C5.07018 7.34536 5.1722 7.25647 5.24918 7.14751L9.79334 0.70834C9.85079 0.626934 9.9355 0.568807 10.0321 0.544498C10.1287 0.52019 10.2309 0.531309 10.32 0.57584L11.8317 1.33167C12.2571 1.54431 12.597 1.8961 12.7948 2.3286C12.9926 2.7611 13.0365 3.24828 12.9192 3.70917L12.1667 6.66667ZM5.83334 8.82334V15.8333H15.1333L17.5 10.0867V8.33334H12.1667C11.9128 8.3333 11.6624 8.27529 11.4344 8.16372C11.2064 8.05215 11.0069 7.88998 10.8511 7.68958C10.6953 7.48917 10.5873 7.25583 10.5354 7.00736C10.4836 6.75889 10.4891 6.50184 10.5517 6.25584L11.3042 3.29917C11.3277 3.20695 11.319 3.10944 11.2794 3.02286C11.2398 2.93629 11.1718 2.86588 11.0867 2.82334L10.5358 2.54834L6.61084 8.10834C6.40251 8.40334 6.13584 8.64501 5.83334 8.82334ZM4.16668 9.16667H2.50001V15.8333H4.16668V9.16667Z" fill="#292929"/>
</svg>
